<svg width="52" height="51" viewBox="0 0 52 51" fill="none" xmlns="http://www.w3.org/2000/svg">
<path d="M6.19853 16.5959C4.35503 19.8036 1.90688 28.0551 6.86218 35.3995M6.86218 35.3995L1 32.5237M6.86218 35.3995L8.07901 29.0948M16.7065 45.2438C22.6426 47.9722 36.5941 49.823 44.912 35.3995M44.912 35.3995L38.7178 37.1693M44.912 35.3995L45.5756 41.5937M44.912 15.0474C42.626 10.7336 34.6916 2.48217 21.2415 3.98646M21.2415 3.98646L26.1084 1M21.2415 3.98646L26.1084 7.08352M8.07901 7.08352L9.84876 9.1851L14.605 3.98646M41.7043 26.4402L43.2528 28.0993L48.1196 23.3431M3.3228 45.2438L4.87133 47.1242L9.84876 42.3679M6.19853 1.55305V11.3973H16.7065V1.55305H6.19853ZM39.2709 20.246V30.7539H50.4424V20.246H39.2709ZM11.8397 39.0497V50L1.44244 49.8894V39.0497H11.8397ZM22.6795 17.3702L23.2325 15.0474H28.4312L29.2054 17.3702L31.0858 16.5959L34.7359 20.246L33.9616 21.9052L35.9526 23.3431V28.0993L33.9616 29.0948L34.7359 30.7539L31.0858 34.5147L29.2054 33.7404L28.4312 35.3995H23.2325L22.6795 33.7404L20.1354 34.5147L16.7065 30.7539L17.3702 29.0948L15.2686 28.0993L15.0474 22.9007L17.3702 21.9052L16.7065 20.246L20.1354 16.5959L22.6795 17.3702ZM32.3014 25.4447C32.3014 29.11 29.3302 32.0813 25.6649 32.0813C21.9996 32.0813 19.0283 29.11 19.0283 25.4447C19.0283 21.7795 21.9996 18.8082 25.6649 18.8082C29.3302 18.8082 32.3014 21.7795 32.3014 25.4447ZM28.7639 25.5552C28.7639 27.2046 27.4269 28.5416 25.7775 28.5416C24.1281 28.5416 22.791 27.2046 22.791 25.5552C22.791 23.9058 24.1281 22.5687 25.7775 22.5687C27.4269 22.5687 28.7639 23.9058 28.7639 25.5552Z" stroke="black" stroke-width="1.6"/>
</svg>
