<svg width="101" height="100" viewBox="0 0 101 100" fill="none" xmlns="http://www.w3.org/2000/svg">
<path d="M21.9081 37.0408C19.225 41.7094 15.6619 53.7188 22.874 64.4081M22.874 64.4081L14.342 60.2225M22.874 64.4081L24.645 55.232M37.2017 78.7356C45.8412 82.7065 66.1466 85.4003 78.2525 64.4081M78.2525 64.4081L69.2375 66.9838M78.2525 64.4081L79.2184 73.4231M78.2525 34.7871C74.9255 28.5087 63.3776 16.4993 43.802 18.6887M43.802 18.6887L50.8853 14.3422M43.802 18.6887L50.8853 23.1963M24.645 23.1963L27.2207 26.2549L34.143 18.6887M73.584 51.3684L75.8378 53.7831L82.9211 46.8609M17.7227 78.7356L19.9765 81.4723L27.2207 74.55M21.9081 15.1471V29.4746H37.2017V15.1471H21.9081ZM70.0424 42.3533V57.6468H86.3017V42.3533H70.0424ZM30.1184 69.7205V85.6579L14.986 85.4969V69.7205H30.1184ZM45.8948 38.1677L46.6997 34.7871H54.266L55.3929 38.1677L58.1296 37.0408L63.442 42.3533L62.3152 44.7681L65.2129 46.8609V53.7831L62.3152 55.232L63.442 57.6468L58.1296 63.1202L55.3929 61.9933L54.266 64.4081H46.6997L45.8948 61.9933L42.1922 63.1202L37.2017 57.6468L38.1676 55.232L35.1089 53.7831L34.787 46.2169L38.1676 44.7681L37.2017 42.3533L42.1922 37.0408L45.8948 38.1677ZM59.8989 49.9196C59.8989 55.2541 55.5744 59.5786 50.2399 59.5786C44.9054 59.5786 40.5809 55.2541 40.5809 49.9196C40.5809 44.5851 44.9054 40.2606 50.2399 40.2606C55.5744 40.2606 59.8989 44.5851 59.8989 49.9196ZM54.7503 50.0803C54.7503 52.4809 52.8043 54.4269 50.4038 54.4269C48.0032 54.4269 46.0572 52.4809 46.0572 50.0803C46.0572 47.6798 48.0032 45.7338 50.4038 45.7338C52.8043 45.7338 54.7503 47.6798 54.7503 50.0803Z" stroke="black"/>
</svg>
