<svg width="100" height="100" viewBox="0 0 100 100" fill="none" xmlns="http://www.w3.org/2000/svg">
<path d="M35.6606 41.3157C31.8425 41.559 24.852 39.8277 24.5375 31.4727C24.2286 23.2633 29.2069 22.2963 31.8662 22.851C31.9378 22.866 32.0043 22.8116 32.0059 22.7385C32.0333 21.4255 32.6828 18.7853 35.1497 17.6601C37.5979 16.5433 39.5567 17.1173 40.3291 17.5952C40.384 17.6291 40.4549 17.6162 40.4895 17.5617C42.3258 14.6721 47.5696 9.28055 54.4088 10.0799C63.0297 11.0876 67.9112 16.2811 68.2744 24.8257C68.2764 24.872 68.3048 24.9126 68.3484 24.9281C70.5985 25.7273 74.9944 28.4106 75.1278 32.9887C75.2625 37.6154 70.7792 40.0256 67.691 40.662M52.9489 14.628C54.8767 14.3098 59.4285 14.7291 62.2135 18.9515M63.3365 20.3552C64.0103 21.291 65.1557 23.6343 64.3472 25.5209M79.2857 35.7143V75.602C79.2857 75.664 79.2354 75.7143 79.1734 75.7143H20.8266C20.7646 75.7143 20.7143 75.664 20.7143 75.602V35.7143M21.6667 31.773C19.7619 31.3636 15.9524 32.0856 15.9524 38.2486C15.9524 44.4116 15.9524 68.4921 15.9524 79.7619M15.9524 79.7619H84.5238M15.9524 79.7619H10.1123C10.0503 79.7619 10 79.8122 10 79.8742V84.9585C10 84.9853 10.0096 85.0112 10.027 85.0315L14.2521 89.9608C14.2734 89.9857 14.3046 90 14.3374 90H84.4803C84.5083 90 84.5353 89.9895 84.556 89.9706L89.9634 85.0334C89.9867 85.0121 90 84.982 90 84.9505V79.8742C90 79.8122 89.9497 79.7619 89.8877 79.7619H84.5238M84.5238 79.7619V38.2567C84.5238 38.2513 84.5235 38.2462 84.5227 38.2408C84.2069 36.0797 82.72 31.773 79.2857 31.773M44.4027 85H55.9524M34.2857 56.6667V70M34.2857 70L28.3333 64.2857M34.2857 70L40.2381 64.2857M65.9524 70V56.1905M65.9524 56.1905L60.4762 62.381M65.9524 56.1905L72.381 62.381M52.1734 33.7157C49.5832 33.7157 44.4027 35.2698 44.4027 41.4864C44.4027 47.703 49.5832 49.2571 52.1734 49.2571C54.7637 49.1492 59.9441 47.444 59.9441 41.4864C59.9441 35.5289 54.7637 33.8236 52.1734 33.7157ZM51.8496 57.3516H54.3276C54.3896 57.3516 54.4399 57.3013 54.4399 57.2393V53.2234C54.4399 53.1751 54.4706 53.1323 54.5163 53.1165C55.9893 52.6057 57.561 51.4974 58.2465 50.9408C58.2916 50.9042 58.3567 50.9075 58.3978 50.9485L61.4761 54.0269C61.5228 54.0736 61.5995 54.0701 61.6418 54.0194L64.739 50.3027C64.7745 50.26 64.7735 50.1977 64.7366 50.1562L62.3006 47.4157C62.2538 47.3631 62.2665 47.281 62.3246 47.2413C63.4964 46.439 64.0131 44.5084 64.1412 43.5287C64.1486 43.472 64.1966 43.4291 64.2538 43.4291H67.6025C67.6646 43.4291 67.7148 43.3788 67.7148 43.3168V39.0085C67.7148 38.9464 67.6646 38.8962 67.6025 38.8962H64.2453C64.1918 38.8962 64.146 38.859 64.1343 38.8067C63.85 37.5318 62.7928 35.4214 62.2512 34.4368C62.2271 34.3928 62.235 34.3388 62.2705 34.3033L64.7251 31.8487C64.7675 31.8063 64.7691 31.7381 64.7288 31.6938L61.6382 28.2941C61.5966 28.2484 61.5259 28.2448 61.48 28.2862L58.4137 31.0458C58.3657 31.089 58.2915 31.0831 58.25 31.0336C57.2205 29.8041 55.3724 28.6867 54.5012 28.2424C54.4633 28.2231 54.4399 28.1846 54.4399 28.142V25.0859C54.4399 25.0239 54.3896 24.9736 54.3276 24.9736H49.6955C49.6335 24.9736 49.5832 25.0239 49.5832 25.0859V28.1213C49.5832 28.174 49.5464 28.2195 49.4951 28.2314C47.2875 28.7408 45.4994 29.8603 44.8005 30.4176C44.7573 30.4521 44.6959 30.4511 44.6543 30.4147L42.2192 28.284C42.1731 28.2437 42.1033 28.2477 42.0621 28.293L38.9658 31.6989C38.9274 31.7411 38.9268 31.8054 38.9644 31.8484L41.0957 34.2842C41.1347 34.3287 41.1322 34.3956 41.0928 34.4397C40.3716 35.2472 39.7909 37.1864 39.5659 38.161C39.554 38.2123 39.5086 38.2486 39.4559 38.2486H35.7729C35.7109 38.2486 35.6606 38.2989 35.6606 38.3609V43.3168C35.6606 43.3788 35.7109 43.4291 35.7729 43.4291H39.7575C39.8195 43.4291 39.8697 43.4792 39.8713 43.5412C39.9096 45.0266 40.6934 46.7894 41.1252 47.5676C41.1487 47.61 41.143 47.6625 41.1106 47.6986L38.3279 50.7905C38.2857 50.8374 38.2903 50.9098 38.3382 50.9509L42.6855 54.6771C42.7374 54.7216 42.8166 54.7098 42.8533 54.6521L44.9751 51.3179C45.0137 51.2573 45.0981 51.2475 45.1523 51.2946C45.9928 52.0241 48.1061 52.7895 49.1734 53.1164C49.2239 53.1319 49.2565 53.18 49.2525 53.2327L48.9449 57.2307C48.9399 57.2959 48.9915 57.3516 49.0569 57.3516H51.8496ZM54.9003 41.8516V39.2998C54.9003 39.2338 54.8436 39.1823 54.7776 39.1836C53.8683 39.2014 52.9352 38.525 52.4889 38.0966C52.4378 38.0475 52.3543 38.0539 52.309 38.1083C51.9816 38.5014 51.2081 39.1211 50.1109 39.1735C50.0495 39.1765 50 39.2263 50 39.2878V41.8635C50 41.873 50.001 41.882 50.0036 41.8912C50.1045 42.2447 50.7048 43.1302 52.3468 43.9767C52.3754 43.9914 52.4097 43.9932 52.4395 43.9812C53.8381 43.4147 54.6451 42.3762 54.8888 41.9007C54.8967 41.8854 54.9003 41.8689 54.9003 41.8516Z" stroke="black"/>
</svg>
