<svg width="52" height="51" viewBox="0 0 52 51" fill="none" xmlns="http://www.w3.org/2000/svg">
<path d="M36.6521 37.1675V36.8548L36.4299 36.6347L25.1875 25.4963C25.1717 25.3976 25.1629 25.2953 25.1642 25.1981C25.1665 25.0302 25.1982 24.9343 25.2207 24.8948C25.2217 24.8931 25.2224 24.8915 25.2231 24.8901C25.2269 24.882 25.2286 24.8785 25.2626 24.8715C25.3267 24.8584 25.4859 24.8513 25.7836 24.9426L36.9553 36.1143L37.1749 36.334H37.4856H44.2074C45.1547 37.0353 46.5268 38.136 47.7783 39.3175C48.4484 39.9501 49.0744 40.597 49.5796 41.2109C50.0923 41.834 50.4466 42.3828 50.615 42.8207C50.8093 43.3258 50.7718 43.7345 50.6198 44.0816C50.4586 44.4496 50.1442 44.8 49.71 45.1045C49.2787 45.4069 48.766 45.6377 48.2724 45.7796C47.7685 45.9244 47.3441 45.9596 47.0859 45.9252L46.2031 45.8075L46.2373 46.6975C46.2686 47.512 46.0712 48.6119 45.4766 49.3575C45.1914 49.7152 44.8128 49.9961 44.2988 50.1412C43.8141 50.2781 43.166 50.3059 42.3051 50.1082L36.6521 44.356V37.1675ZM45.3083 48.2771L45.3897 45.8351H45.6254V45.624H45.8365V45.4128H46.0477V45.2017H46.2588V45.1399C46.7148 45.1483 47.3261 45.1396 48.0865 45.0948C48.5396 45.0682 48.9492 44.953 49.2742 44.7096C49.6128 44.456 49.7917 44.114 49.8582 43.771C49.979 43.1473 49.7344 42.5282 49.5407 42.1838L49.4862 42.0869L49.4059 42.01L44.3386 37.1538L44.1211 36.9453H43.8197H38.5413H38.3302H37.5802V37.1565H37.369V37.3676H37.1579V38.1176V38.2158L37.0525 43.5925L37.0467 43.8881L37.2441 44.1081C37.864 44.7988 38.8515 45.8766 39.8025 46.8684C40.7312 47.8369 41.6872 48.7899 42.2173 49.1754C42.8698 49.6499 43.5395 49.7181 44.1131 49.5167C44.6365 49.3328 45.0013 48.9536 45.1914 48.6548L45.3014 48.4819L45.3083 48.2771Z" stroke="black" stroke-width="1.5" stroke-linecap="round"/>
<path d="M34.998 46.5974C30.038 48.8504 24.4462 49.2978 19.1912 47.8619C13.9361 46.4261 9.34867 43.1976 6.22342 38.7355C3.09817 34.2734 1.63193 28.8588 2.07865 23.4295C2.52536 18.0002 4.85689 12.898 8.66943 9.00676C12.482 5.1155 17.5354 2.6802 22.9545 2.12263C28.3736 1.56506 33.817 2.92035 38.342 5.95376C42.867 8.98717 46.1886 13.5077 47.7315 18.7323C49.2744 23.9569 48.9414 29.5566 46.7902 34.5616" stroke="black" stroke-width="2.60754" stroke-linecap="round"/>
<path d="M40.3167 33.4623C42.2504 29.8743 42.8214 25.708 41.9244 21.732C41.0275 17.756 38.7231 14.2384 35.4362 11.8281C32.1494 9.41774 28.1018 8.27721 24.0401 8.61685C19.9783 8.9565 16.1764 10.7534 13.3355 13.6762C10.4946 16.5989 8.80636 20.4503 8.5822 24.5201C8.35804 28.5899 9.61306 32.6034 12.1158 35.8205C14.6185 39.0376 18.2001 41.2411 22.2 42.0248C26.1998 42.8085 30.3482 42.1194 33.8799 40.0846" stroke="black" stroke-width="2.60754" stroke-linecap="round"/>
<path d="M33.2085 28.7838C33.9868 26.9731 34.1072 24.9472 33.549 23.057C32.9908 21.1667 31.7891 19.5313 30.152 18.4338C28.5149 17.3364 26.5455 16.846 24.585 17.0478C22.6244 17.2495 20.7962 18.1306 19.4168 19.5384C18.0375 20.9462 17.194 22.7921 17.0323 24.7564C16.8707 26.7206 17.4012 28.6796 18.5319 30.2939C19.6626 31.9082 21.3222 33.0763 23.2235 33.5957C25.1247 34.1152 27.1477 33.9534 28.9422 33.1382" stroke="black" stroke-width="2.60754" stroke-linecap="round"/>
</svg>
