<svg width="99" height="100" viewBox="0 0 99 100" fill="none" xmlns="http://www.w3.org/2000/svg">
<path d="M80.51 40.9881V78.3004H19.7121V40.5548H24.4552M24.4552 40.5548V49.3861L43.4275 49.0239V40.0567M24.4552 40.5548V35.8222M43.4275 40.0567H56.0757M43.4275 40.0567V35.5731M43.4275 35.5731V31.0895H24.4552V35.8222M43.4275 35.5731H56.9675M24.4552 35.8222H15.6014V81.7787M15.6014 81.7787L84.9281 81.1462M15.6014 81.7787H10.8583C10.5421 84.5191 10.7319 90 14.0204 90C17.3089 90 62.6624 90 84.9281 90C86.2724 89.7892 88.9608 88.6087 88.9608 85.5731C88.9608 82.5375 88.9608 81.357 88.9608 81.1462H84.9281M84.9281 81.1462V39.0909M29.8304 40.9881L32.9925 45.274L39.6328 35.4129M28.5656 59.3465L39.6328 69.4466M39.6328 58.6457L29.8304 69.4466M73.0729 18.3668C70.5938 18.3668 65.6357 19.8542 65.6357 25.8039C65.6357 31.7537 70.5938 33.2411 73.0729 33.2411C75.5519 33.1378 80.51 31.5058 80.51 25.8039C80.51 20.1021 75.5519 18.4701 73.0729 18.3668ZM72.763 40.9881H74.8396C75.0619 40.9881 75.242 40.808 75.242 40.5857V37.2497C75.242 37.0765 75.3532 36.9237 75.5151 36.862C76.7289 36.399 77.9794 35.5543 78.6736 35.0196C78.8385 34.8926 79.0733 34.9032 79.2205 35.0504L81.7478 37.5777C81.9152 37.7451 82.1901 37.7326 82.3416 37.5508L84.9365 34.4369C85.064 34.2839 85.0604 34.0607 84.9281 33.9118L83.0016 31.7446C82.8341 31.5561 82.8805 31.2608 83.0655 31.0895C83.9054 30.3117 84.331 28.9123 84.4869 28.0191C84.5222 27.817 84.6936 27.6632 84.8987 27.6632H87.5447C87.767 27.6632 87.9472 27.4831 87.9472 27.2608V23.7273C87.9472 23.5051 87.767 23.3249 87.5447 23.3249H84.8684C84.6766 23.3249 84.5124 23.1898 84.4618 23.0047C84.1484 21.8586 83.3284 20.1906 82.8243 19.2525C82.7393 19.0942 82.7668 18.899 82.8938 18.7719L84.8869 16.7788C85.0388 16.6269 85.0446 16.3825 84.9001 16.2236L82.3288 13.3951C82.1798 13.2312 81.9264 13.2185 81.7618 13.3667L79.2777 15.6024C79.1056 15.7572 78.8392 15.735 78.6813 15.5658C77.7369 14.5535 76.2833 13.6503 75.4622 13.2127C75.3277 13.1411 75.242 13.0025 75.242 12.8501V10.4024C75.242 10.1802 75.0619 10 74.8396 10H70.9963C70.774 10 70.5938 10.1802 70.5938 10.4024V12.776C70.5938 12.9646 70.4624 13.1272 70.2796 13.1736C68.4563 13.6365 66.9586 14.5155 66.2168 15.0578C66.057 15.1746 65.8359 15.172 65.687 15.0417L63.7637 13.3588C63.5987 13.2144 63.3484 13.2287 63.2009 13.391L60.6092 16.2419C60.4716 16.3933 60.4694 16.6237 60.6041 16.7776L62.289 18.7032C62.4285 18.8627 62.4197 19.1028 62.2973 19.2757C61.7379 20.0652 61.2855 21.4995 61.0619 22.3915C61.0161 22.5745 60.8533 22.7051 60.6647 22.7051H57.6714C57.4491 22.7051 57.2689 22.8853 57.2689 23.1076V27.2608C57.2689 27.4831 57.4491 27.6632 57.6714 27.6632H60.8949C61.1172 27.6632 61.2962 27.8436 61.3159 28.065C61.4264 29.3067 62.006 30.6822 62.3983 31.4366C62.4784 31.5906 62.4584 31.7789 62.3423 31.908L60.0238 34.4841C59.8725 34.6521 59.8894 34.9117 60.061 35.0588L63.734 38.2071C63.9199 38.3665 64.2039 38.3242 64.3354 38.1176L65.9861 35.5237C66.1244 35.3064 66.4328 35.2688 66.6462 35.4129C67.5015 35.9907 69.0261 36.5591 69.9747 36.8635C70.1549 36.9213 70.2736 37.0942 70.2591 37.2829L70.0074 40.5548C69.9894 40.7886 70.1742 40.9881 70.4086 40.9881H72.763ZM66.966 48.8111C65.3976 48.8111 62.2608 49.7521 62.2608 53.5162C62.2608 57.2803 65.3976 58.2213 66.966 58.2213C68.5343 58.156 71.6711 57.1235 71.6711 53.5162C71.6711 49.9089 68.5343 48.8764 66.966 48.8111ZM66.7699 63.1225H68.0837C68.2243 63.1225 68.3383 63.0085 68.3383 62.8679V60.7574C68.3383 60.6478 68.4086 60.5511 68.511 60.5121C69.2789 60.2192 70.0701 59.6848 70.5093 59.3465C70.6136 59.2662 70.7622 59.2729 70.8553 59.366L72.4542 60.9649C72.5601 61.0708 72.734 61.0629 72.8298 60.9479L74.4715 58.9778C74.5522 58.8811 74.5499 58.7398 74.4662 58.6457L73.2474 57.2746C73.1415 57.1553 73.1708 56.9685 73.2878 56.8601C73.8192 56.3681 74.0885 55.4827 74.1871 54.9176C74.2094 54.7898 74.3179 54.6925 74.4476 54.6925H76.1216C76.2622 54.6925 76.3762 54.5785 76.3762 54.4379V52.2024C76.3762 52.0618 76.2622 51.9478 76.1216 51.9478H74.4284C74.3071 51.9478 74.2032 51.8623 74.1712 51.7453C73.9729 51.0202 73.4541 49.9649 73.1352 49.3714C73.0814 49.2712 73.0988 49.1477 73.1792 49.0674L74.4401 47.8064C74.5362 47.7103 74.5399 47.5557 74.4485 47.4551L72.8217 45.6657C72.7275 45.562 72.5672 45.554 72.463 45.6477L70.8914 47.0622C70.7826 47.1601 70.614 47.146 70.5142 47.039C69.9167 46.3986 68.997 45.8271 68.4776 45.5503C68.3925 45.505 68.3383 45.4173 68.3383 45.3209V43.7724C68.3383 43.6318 68.2243 43.5178 68.0837 43.5178H65.6522C65.5116 43.5178 65.3976 43.6318 65.3976 43.7724V45.274C65.3976 45.3934 65.3144 45.4962 65.1988 45.5256C64.0453 45.8184 63.0978 46.3745 62.6284 46.7176C62.5273 46.7915 62.3875 46.7899 62.2932 46.7074L61.0765 45.6428C60.9721 45.5514 60.8138 45.5605 60.7204 45.6631L59.0808 47.4668C58.9937 47.5625 58.9923 47.7083 59.0775 47.8057L60.1435 49.0239C60.2318 49.1248 60.2262 49.2767 60.1487 49.3861C59.7949 49.8856 59.5087 50.793 59.3672 51.3573C59.3382 51.4731 59.2352 51.5557 59.1159 51.5557H57.2221C57.0815 51.5557 56.9675 51.6697 56.9675 51.8103V54.4379C56.9675 54.5785 57.0815 54.6925 57.2221 54.6925H59.2615C59.4022 54.6925 59.5154 54.8066 59.5279 54.9467C59.5978 55.7322 59.9645 56.6024 60.2126 57.0797C60.2633 57.1772 60.2507 57.2963 60.1772 57.3779L58.7104 59.0077C58.6147 59.114 58.6254 59.2783 58.734 59.3713L61.0577 61.3631C61.1753 61.4639 61.355 61.4372 61.4382 61.3065L62.4825 59.6654C62.57 59.528 62.7651 59.5042 62.9001 59.5954C63.4412 59.9608 64.4058 60.3205 65.0059 60.5131C65.1199 60.5496 65.195 60.659 65.1858 60.7784L65.0266 62.8484C65.0152 62.9963 65.1321 63.1225 65.2804 63.1225H66.7699ZM24.4552 54.4379V74.1897H43.4275V54.4379H24.4552Z" stroke="black"/>
</svg>
