<svg width="103" height="101" viewBox="0 0 103 101" fill="none" xmlns="http://www.w3.org/2000/svg">
<path d="M21.3272 79.4372C22.0631 79.3758 23.5349 79.6579 23.5349 81.2769C23.5349 82.8959 22.0631 83.178 21.3272 83.1166C20.714 83.1166 19.4875 82.7487 19.4875 81.2769C19.4875 79.8051 20.714 79.4372 21.3272 79.4372Z" fill="black"/>
<path d="M90.5012 17.9901C89.7653 17.9901 88.2935 18.4316 88.2935 20.1977C88.2935 21.9639 89.7653 22.4054 90.5012 22.4054C91.2371 22.4667 92.7089 22.1111 92.7089 20.1977C92.7089 18.2844 91.2371 17.9287 90.5012 17.9901Z" fill="black"/>
<path d="M30.3419 11.735C18.5676 19.4618 -0.492028 43.1944 17.4638 76.3096M30.3419 11.735V28.2926M30.3419 11.735H12.3125M25.3746 85.5083C29.4834 89.8623 41.7115 98.276 57.754 97.0986M80.9346 90.1076C92.8315 82.1968 112.284 58.2802 94.9166 25.9009M80.9346 90.1076V73.1821M80.9346 90.1076H98.964M86.0859 15.7824C82.1611 11.2444 70.3009 2.72027 54.2585 4.92795M21.3272 79.4372C22.0631 79.3758 23.5349 79.6579 23.5349 81.2769C23.5349 82.8959 22.0631 83.178 21.3272 83.1166C20.714 83.1166 19.4875 82.7487 19.4875 81.2769C19.4875 79.8051 20.714 79.4372 21.3272 79.4372ZM90.5012 17.9901C89.7653 17.9901 88.2935 18.4316 88.2935 20.1977C88.2935 21.9639 89.7653 22.4054 90.5012 22.4054C91.2371 22.4667 92.7089 22.1111 92.7089 20.1977C92.7089 18.2844 91.2371 17.9287 90.5012 17.9901ZM56.3838 37.9732C51.8801 37.9732 42.8728 40.6754 42.8728 51.4842C42.8728 62.2931 51.8801 64.9953 56.3838 64.9953C60.8874 64.8076 69.8948 61.8427 69.8948 51.4842C69.8948 41.1258 60.8874 38.1609 56.3838 37.9732ZM55.8208 79.0692H59.9565C60.1597 79.0692 60.3245 78.9045 60.3245 78.7013V72.016C60.3245 71.8576 60.426 71.7175 60.5751 71.6641C63.0171 70.789 65.5908 69.0008 66.8201 68.0215C66.9689 67.9029 67.183 67.9131 67.3176 68.0476L72.4247 73.1547C72.5776 73.3077 72.829 73.2963 72.9675 73.1301L78.1364 66.9274C78.253 66.7876 78.2497 66.5835 78.1287 66.4474L74.1303 61.9492C73.9771 61.7769 74.0189 61.508 74.2024 61.3684C76.0634 59.9522 76.9235 56.8822 77.171 55.1882C77.1981 55.0027 77.3551 54.862 77.5426 54.862H83.0378C83.241 54.862 83.4058 54.6973 83.4058 54.4941V47.3485C83.4058 47.1453 83.241 46.9806 83.0378 46.9806H77.5149C77.3395 46.9806 77.1894 46.8578 77.1483 46.6872C76.623 44.5083 74.9066 41.0604 73.9685 39.3409C73.8898 39.1967 73.9156 39.0191 74.0317 38.9029L78.0911 34.8436C78.2299 34.7047 78.2353 34.4812 78.1031 34.3359L72.9558 28.6738C72.8196 28.524 72.5879 28.5124 72.4374 28.6479L67.3698 33.2087C67.2125 33.3503 66.9693 33.3304 66.8304 33.1707C65.0579 31.1317 62.0419 29.2908 60.5258 28.5055C60.4021 28.4414 60.3245 28.3149 60.3245 28.1755V23.1413C60.3245 22.9381 60.1597 22.7734 59.9565 22.7734H52.248C52.0448 22.7734 51.8801 22.9381 51.8801 23.1413V28.1078C51.8801 28.2802 51.7599 28.4293 51.5922 28.4692C47.9324 29.3411 44.9541 31.1642 43.6807 32.1476C43.5375 32.2582 43.3354 32.2559 43.1992 32.1367L39.2037 28.6407C39.0529 28.5087 38.824 28.5217 38.6892 28.6701L33.5232 34.3527C33.3974 34.491 33.3954 34.7017 33.5186 34.8425L37.0165 38.8401C37.144 38.9859 37.1361 39.2046 37.0132 39.3544C35.8397 40.7845 34.8945 43.8853 34.4944 45.5682C34.4545 45.736 34.3057 45.8547 34.1332 45.8547H28.0408C27.8376 45.8547 27.6729 46.0194 27.6729 46.2226V54.4941C27.6729 54.6973 27.8376 54.862 28.0408 54.862H34.6234C34.8266 54.862 34.9906 55.0264 35.0002 55.2294C35.1176 57.7072 36.3708 60.5778 37.1144 61.9489C37.1901 62.0885 37.1714 62.2602 37.0652 62.3782L32.4287 67.5299C32.2904 67.6835 32.3058 67.9209 32.4627 68.0554L39.7358 74.2895C39.9059 74.4352 40.1655 74.3965 40.2857 74.2076L43.7524 68.76C43.8788 68.5614 44.1572 68.5291 44.3421 68.6748C45.8617 69.8714 49.2119 71.0969 51.0352 71.6645C51.2004 71.716 51.3077 71.8737 51.2944 72.0462L50.7846 78.673C50.7682 78.8867 50.9372 79.0692 51.1515 79.0692H55.8208Z" stroke="black"/>
</svg>
