<svg width="121" height="95" viewBox="0 0 121 95" fill="none" xmlns="http://www.w3.org/2000/svg">
<path d="M23.9965 34.2604H46.6472C46.7577 34.2604 46.8574 34.2068 46.9154 34.1127C50.5103 28.2827 61.3854 16.9106 76.959 16.9106M76.959 16.9106C96.5917 16.9106 111.202 32.4341 110.745 52.0667C110.289 71.6994 94.3088 84.94 76.959 84.4834C63.1779 84.1208 51.2572 72.3255 46.9172 66.348C46.8575 66.2657 46.7648 66.2205 46.6631 66.2205H39.9766M76.959 16.9106V10.5186M34.4977 66.2205H20.3439M44.9989 56.1759H31.7582M26.7359 56.1759H10.7559M44.9989 45.6747H31.7582M28.1057 45.6747H22.6268M20.3439 34.2604H17.1479M76.959 10.5186H73.3064M76.959 10.5186H81.0682M87.4602 70.3297C79.2419 76.7217 54.4892 74.4388 54.1303 52.0667C53.8436 34.1906 69.1929 28.1872 76.9311 27.4145C76.9502 27.4126 76.968 27.4125 76.9871 27.4142C87.7974 28.3406 106.718 37.3901 96.1351 66.2205M96.1351 66.2205L92.4825 56.1759M96.1351 66.2205L104.81 58.9153M76.959 34.2604V51.9312C76.959 52.0177 76.9945 52.1005 77.0573 52.1601L86.0905 60.7416" stroke="black" stroke-width="0.913147" stroke-linecap="round" stroke-linejoin="round"/>
</svg>
