<svg width="128" height="101" viewBox="0 0 128 101" fill="none" xmlns="http://www.w3.org/2000/svg">
<path d="M83.0962 36.3848L81.7017 37.5332C81.6992 37.5352 81.6978 37.5382 81.6978 37.5414V42.0543C81.6978 42.0582 81.6956 42.0618 81.6922 42.0637L80.8003 42.5502C80.7959 42.5525 80.7908 42.5518 80.7875 42.5482C79.1454 40.7314 78.0839 34.8172 83.0962 30.6267C87.1042 27.2757 92.1565 29.605 94.1917 31.1952C94.1968 31.1991 94.1969 31.2065 94.1923 31.211L92.2302 33.0913C92.2281 33.0933 92.2269 33.0961 92.2269 33.099V35.7224C92.2269 35.7251 92.2258 35.7278 92.2239 35.7298L88.3607 39.6751M88.0317 35.7267L84.0864 39.672C84.0844 39.674 84.0833 39.6767 84.0833 39.6795V42.5496C84.0833 42.5526 84.0821 42.5553 84.08 42.5573L82.2 44.3556C82.1954 44.36 82.1954 44.3672 82.2004 44.3713C84.2906 46.0708 89.6013 48.438 94.2011 44.3639C98.8006 40.2901 97.0581 34.7838 95.6062 32.5289C95.6026 32.5234 95.5951 32.5227 95.5902 32.5272L94.5336 33.5026C94.5314 33.5046 94.5302 33.5074 94.5302 33.5104V37.9428C94.5302 37.9459 94.5288 37.9489 94.5264 37.9509L93.3785 38.9348M31.6032 61.2178L30.2087 62.3663C30.2062 62.3683 30.2048 62.3713 30.2048 62.3745V66.8874C30.2048 66.8913 30.2026 66.8949 30.1992 66.8967L29.3073 67.3832C29.3029 67.3856 29.2978 67.3849 29.2945 67.3812C27.6524 65.5645 26.5909 59.6503 31.6032 55.4597C35.6112 52.1087 40.6635 54.438 42.6987 56.0282C42.7038 56.0322 42.7039 56.0396 42.6992 56.044L40.7372 57.9243C40.7351 57.9263 40.7339 57.9291 40.7339 57.932V60.5554C40.7339 60.5582 40.7328 60.5609 40.7309 60.5629L36.8677 64.5082M36.5387 60.5598L32.5934 64.5051C32.5914 64.5071 32.5903 64.5098 32.5903 64.5126V67.3827C32.5903 67.3856 32.5891 67.3884 32.587 67.3904L30.707 69.1886C30.7024 69.193 30.7024 69.2003 30.7074 69.2043C32.7976 70.9038 38.1083 73.2711 42.7081 69.1969C47.3076 65.1231 45.5651 59.6169 44.1132 57.362C44.1096 57.3564 44.1021 57.3558 44.0972 57.3602L43.0406 58.3356C43.0384 58.3376 43.0372 58.3405 43.0372 58.3434V62.7759C43.0372 62.779 43.0358 62.7819 43.0334 62.7839L41.8855 63.7679M77.2079 64.9195C77.8611 66.1586 81.1379 68.7471 89.0188 69.1886C98.8699 69.7405 116.973 60.8048 117.292 38.6058C117.61 16.4067 94.9415 9.40252 89.0188 10.0393C83.0962 10.676 60.6212 13.1146 60.9396 38.6058C63.5927 47.9185 65.6707 66.7088 64.1233 72.8351C62.2126 80.3996 56.7313 88.6773 36.8677 89.9508C17.0042 91.2243 10 72.8351 10 62.3745C10 58.3356 14.03 26.667 53.9099 39.2638M53.9099 39.2638L47.3769 40.7813M53.9099 39.2638L50.8153 33.1767M86.1478 24.6207V21.1823H91.3054V24.6207C92.2223 25.0792 94.3312 26.3399 95.4315 27.7153L98.8699 24.6207L102.308 28.403L99.5576 31.1537C100.131 32.1853 101.346 34.5921 101.621 35.9675H105.403V40.7813H101.621C101.506 41.8128 100.933 44.0822 99.5576 44.9074L102.308 48.002L98.8699 52.1281L95.4315 48.6897C94.7438 49.2628 92.9558 50.5464 91.3054 51.0966V55.5665H88.5547H85.4601L85.8039 51.0966C84.6578 50.7527 82.1592 49.8587 81.334 49.0335L78.9271 52.8158L74.1133 48.6897L77.2079 45.2513C76.7494 44.449 75.8325 42.4318 75.8325 40.7813H71.3626V35.2798H75.4887C75.7179 34.2483 76.3826 31.979 77.2079 31.1537L74.801 28.403L78.2394 24.6207L80.9901 27.0276C81.6778 26.4545 83.6721 25.1709 86.1478 24.6207ZM85.3994 35.3154C85.3994 36.1332 84.7365 36.7961 83.9188 36.7961C83.101 36.7961 82.4381 36.1332 82.4381 35.3154C82.4381 34.4977 83.101 33.8348 83.9188 33.8348C84.7365 33.8348 85.3994 34.4977 85.3994 35.3154ZM90.4995 34.6573C90.4995 35.4751 89.8366 36.138 89.0188 36.138C88.2011 36.138 87.5382 35.4751 87.5382 34.6573C87.5382 33.8396 88.2011 33.1767 89.0188 33.1767C89.8366 33.1767 90.4995 33.8396 90.4995 34.6573ZM88.8543 40.7445C88.8543 41.5622 88.1914 42.2252 87.3736 42.2252C86.5559 42.2252 85.893 41.5622 85.893 40.7445C85.893 39.9268 86.5559 39.2638 87.3736 39.2638C88.1914 39.2638 88.8543 39.9268 88.8543 40.7445ZM93.7898 40.0864C93.7898 40.9042 93.1269 41.5671 92.3092 41.5671C91.4914 41.5671 90.8285 40.9042 90.8285 40.0864C90.8285 39.2687 91.4914 38.6058 92.3092 38.6058C93.1269 38.6058 93.7898 39.2687 93.7898 40.0864ZM34.6548 49.4538V46.0154H39.8124V49.4538C40.7293 49.9122 42.8382 51.173 43.9385 52.5484L47.3769 49.4538L50.8153 53.236L48.0646 55.9868C48.6377 57.0183 49.8526 59.4252 50.1277 60.8006H53.9099V65.6144H50.1277C50.013 66.6459 49.44 68.9152 48.0646 69.7405L50.8153 72.8351L47.3769 76.9612L43.9385 73.5227C43.2508 74.0958 41.4628 75.3795 39.8124 75.9296V80.3996H37.0617H33.9671L34.3109 75.9296C33.1648 75.5858 30.6662 74.6918 29.841 73.8666L27.4341 77.6488L22.6203 73.5227L25.7149 70.0843C25.2564 69.282 24.3395 67.2648 24.3395 65.6144H19.8695V60.1129H23.9957C24.2249 59.0814 24.8896 56.812 25.7149 55.9868L23.308 53.236L26.7464 49.4538L29.4971 51.8607C30.1848 51.2876 32.1791 50.0039 34.6548 49.4538ZM33.9064 60.1485C33.9064 60.9662 33.2435 61.6291 32.4258 61.6291C31.608 61.6291 30.9451 60.9662 30.9451 60.1485C30.9451 59.3307 31.608 58.6678 32.4258 58.6678C33.2435 58.6678 33.9064 59.3307 33.9064 60.1485ZM39.0065 59.4904C39.0065 60.3081 38.3436 60.9711 37.5258 60.9711C36.7081 60.9711 36.0452 60.3081 36.0452 59.4904C36.0452 58.6726 36.7081 58.0097 37.5258 58.0097C38.3436 58.0097 39.0065 58.6726 39.0065 59.4904ZM37.3613 65.5776C37.3613 66.3953 36.6984 67.0582 35.8806 67.0582C35.0629 67.0582 34.4 66.3953 34.4 65.5776C34.4 64.7598 35.0629 64.0969 35.8806 64.0969C36.6984 64.0969 37.3613 64.7598 37.3613 65.5776ZM42.2968 64.9195C42.2968 65.7372 41.6339 66.4001 40.8162 66.4001C39.9984 66.4001 39.3355 65.7372 39.3355 64.9195C39.3355 64.1017 39.9984 63.4388 40.8162 63.4388C41.6339 63.4388 42.2968 64.1017 42.2968 64.9195Z" stroke="black"/>
</svg>
