<svg width="98" height="101" viewBox="0 0 98 101" fill="none" xmlns="http://www.w3.org/2000/svg">
<path d="M30.4933 58.0344H28.3978C22.5458 58.4073 10.7214 55.9518 10.2394 43.1463C9.7659 30.5638 17.3961 29.0817 21.4719 29.9319C21.5816 29.9548 21.6837 29.8715 21.686 29.7594C21.728 27.7471 22.7236 23.7004 26.5045 21.9758C30.2569 20.2642 33.2592 21.1439 34.4429 21.8763C34.527 21.9284 34.6357 21.9085 34.6888 21.8251C37.5032 17.3961 45.5404 9.13265 56.0227 10.3579C69.2358 11.9022 76.7177 19.8622 77.2743 32.9585C77.2773 33.0294 77.3209 33.0916 77.3877 33.1154C80.8364 34.3404 87.574 38.453 87.7783 45.4698C87.9849 52.5611 78.5701 56.2846 73.8368 57.2599L68.9315 58.0344M53.7851 17.3286C56.7398 16.841 63.7163 17.4835 67.9848 23.9552M69.706 26.1066C70.7387 27.5409 72.4943 31.1325 71.2551 34.024M49.9413 74.2439C47.2027 74.2439 44.5941 73.687 42.2227 72.6802M49.9413 74.2439V84.3095M49.9413 74.2439C52.9731 74.2439 55.8454 73.5614 58.413 72.3416M64.0609 54.4765C64.0609 52.1723 63.5089 49.9971 62.53 48.0757M64.0609 54.4765H60.6722M64.0609 54.4765C64.0609 57.2451 63.2641 59.8275 61.8873 62.007M49.9413 68.5961C52.4744 68.5961 54.8516 67.9291 56.907 66.7611M49.9413 68.5961V65.7722M49.9413 68.5961C47.4083 68.5961 45.0311 67.9291 42.9757 66.7611M35.8218 54.4765C35.8218 57.1755 36.579 59.6975 37.8927 61.8419M35.8218 54.4765H38.834M35.8218 54.4765C35.8218 51.9435 36.4888 49.5663 37.6568 47.5109M49.9413 40.357V43.934M49.9413 40.357C52.7667 40.357 55.3982 41.1869 57.6055 42.6161M49.9413 40.357C47.4083 40.357 45.0311 41.024 42.9757 42.192M57.6055 42.6161L55.0244 45.44M57.6055 42.6161C59.6902 43.966 61.3964 45.8506 62.53 48.0757M62.53 48.0757L59.3544 49.3935M61.8873 62.007L59.3544 59.9361M61.8873 62.007C60.6458 63.9723 58.9327 65.61 56.907 66.7611M56.907 66.7611L55.5891 64.4543M42.9757 66.7611L44.67 64.4543M42.9757 66.7611C40.8935 65.5779 39.1416 63.8806 37.8927 61.8419M37.8927 61.8419L40.5283 59.9361M37.6568 47.5109L40.5283 49.3935M37.6568 47.5109C38.9165 45.2941 40.7589 43.4517 42.9757 42.192M42.9757 42.192L44.67 44.8753M42.9757 54.4765H49.7692C49.8643 54.4765 49.9413 54.3995 49.9413 54.3044V47.5109M42.2227 72.6802C35.1408 69.6736 30.174 62.6551 30.174 54.4765C30.174 43.5593 39.0241 34.7092 49.9413 34.7092C60.8585 34.7092 69.7087 43.5593 69.7087 54.4765C69.7087 62.362 65.0914 69.1691 58.413 72.3416M42.2227 72.6802V77.373C42.2227 77.4187 42.2045 77.4624 42.1722 77.4947L36.9514 82.7156M36.9514 82.7156C36.2611 82.2136 34.504 81.5107 32.9979 82.7156C31.4991 83.9147 32.1133 85.9589 32.6141 86.8445C32.619 86.8533 32.6244 86.861 32.6309 86.8687C33.2656 87.6216 34.9264 88.7324 36.5748 87.2339C38.2315 85.7278 37.5161 83.5942 36.9514 82.7156ZM63.4961 82.7156C64.9838 81.5254 66.7165 82.1967 67.4239 82.6972C67.4413 82.7095 67.4551 82.7242 67.4665 82.7422C68.0284 83.6366 68.7132 85.7428 67.073 87.2339C65.4246 88.7324 63.7638 87.6216 63.1291 86.8687C63.1226 86.861 63.1172 86.8533 63.1123 86.8445C62.6115 85.9589 61.9973 83.9147 63.4961 82.7156ZM63.4961 82.7156L58.4613 77.4943C58.4303 77.4622 58.413 77.4194 58.413 77.3748V72.3416M49.9413 84.3095C50.8046 84.3108 51.5714 84.6627 51.9861 84.9561C52.0036 84.9684 52.0178 84.9833 52.0291 85.0014C52.591 85.8958 53.2759 88.0019 51.6357 89.493C49.9873 90.9915 48.3264 89.8807 47.6917 89.1278C47.6852 89.1201 47.6799 89.1124 47.6749 89.1036C47.1742 88.218 46.5599 86.1738 48.0587 84.9747C48.6743 84.4823 49.3319 84.3085 49.9413 84.3095Z" stroke="black"/>
</svg>
