<svg width="71" height="51" viewBox="0 0 71 51" fill="none" xmlns="http://www.w3.org/2000/svg">
<path d="M32.5969 39.7582H11.6396C8.43135 39.6029 1.98374 37.3985 1.85955 29.8229C1.73536 22.2472 7.08594 20.6637 9.77675 20.819C9.36288 18.7491 9.74601 14.0505 14.5895 11.8151C19.4329 9.57962 22.1962 10.0557 22.9724 10.5731C24.5248 7.20963 29.2459 1.25879 35.8573 1.25879C43.3088 1.25879 46.724 3.2769 48.5869 10.5731C50.8637 10.4179 56.1005 10.7594 58.8327 13.3675C61.5649 15.9755 61.1095 18.9043 60.5403 20.0428C63.4381 19.991 69.2648 21.8746 69.389 29.8229C69.5132 37.7711 64.2661 39.7582 61.627 39.7582M32.5969 39.7582C32.5969 29.6677 46.8793 31.22 46.724 36.4981C46.5688 41.7763 47.0345 45.1915 53.3993 46.7439C58.4912 47.9858 61.006 42.6042 61.627 39.7582M32.5969 39.7582C32.3901 42.3972 34.1186 47.4891 42.6878 46.7439M61.627 39.7582C61.5752 37.3778 59.702 32.6171 52.6231 32.6171M52.6231 32.6171L55.5727 30.1333M52.6231 32.6171L55.2622 35.5667M42.6878 46.7439L38.6516 50.0039M42.6878 46.7439L38.1859 42.8629M30.2686 14.7646C30.6309 12.9535 32.5351 9.39333 37.2544 9.64171" stroke="black" stroke-width="1.75"/>
</svg>
