<svg width="120" height="74" viewBox="0 0 120 74" fill="none" xmlns="http://www.w3.org/2000/svg">
<path d="M71.5384 27.064C73.2478 24.7135 78.141 20.1409 84.0384 20.6537C91.4102 21.2947 99.1025 26.4229 99.1025 37.9614C99.1025 49.4998 87.5641 52.3844 84.0384 52.3844C80.5128 52.3844 73.782 51.4229 70.2564 44.6921M47.8205 29.3075C45.5769 26.4229 39.7435 20.6537 34.3589 20.6537C27.6282 20.6537 18.6538 25.1409 19.2948 37.9614C19.8076 48.2178 29.5512 51.8503 34.3589 52.3844C37.2436 52.4913 43.7179 51.487 46.5385 46.6152M51.6667 25.1409L48.9801 22.4543C48.8538 22.328 48.786 22.1548 48.7928 21.9764L49.0852 14.3748C49.0956 14.1038 48.9344 13.8557 48.6827 13.755L43.0848 11.5158C42.8467 11.4205 42.5747 11.4764 42.3934 11.6577L38.3929 15.6582C38.2727 15.7784 38.1096 15.846 37.9396 15.846H34.6026C34.4456 15.846 34.2941 15.7884 34.1768 15.6841L28.8768 10.973C28.7001 10.8159 28.4512 10.7688 28.2293 10.8506L22.9422 12.7985C22.6791 12.8954 22.5095 13.152 22.5235 13.432L22.8063 19.0875C22.8154 19.2684 22.7474 19.4447 22.6194 19.5728L20.1236 22.0685C20.0034 22.1887 19.8404 22.2562 19.6704 22.2562H13.0131C12.7435 22.2562 12.5028 22.4249 12.4107 22.6782L10.1395 28.9239C10.0544 29.1579 10.1126 29.4201 10.2887 29.5962L14.6199 33.9275C14.7402 34.0477 14.8077 34.2107 14.8077 34.3807V38.3238C14.8077 38.5015 14.7339 38.6712 14.6041 38.7925L10.2867 42.822C10.1107 42.9862 10.0416 43.2352 10.1077 43.4667L11.7778 49.312C11.8622 49.6072 12.1439 49.8011 12.4497 49.7745L18.9576 49.2086C19.1686 49.1903 19.3751 49.2774 19.5092 49.4413L22.0346 52.5279C22.1283 52.6424 22.1795 52.7858 22.1795 52.9338V59.3269C22.1795 59.5867 22.3362 59.8208 22.5764 59.9197L27.233 61.8371C27.4723 61.9356 27.7474 61.8806 27.9304 61.6976L32.2481 57.3799C32.3684 57.2597 32.5314 57.1921 32.7014 57.1921H36.9355C37.1302 57.1921 37.3144 57.2807 37.4361 57.4327L40.8066 61.6459C40.9763 61.858 41.2612 61.9402 41.5178 61.8509L48.0311 59.5854C48.2888 59.4958 48.4615 59.2528 48.4615 58.98V53.291C48.4615 53.121 48.5291 52.9579 48.6493 52.8377L51.4201 50.0669C51.5738 49.9132 51.795 49.8478 52.0077 49.8934L55.7643 50.6984C56.0028 50.7495 56.2497 50.6608 56.4012 50.4695L62.0901 43.2834C62.1889 43.1587 62.2377 43.0016 62.2271 42.8429L61.6176 33.6995C61.6079 33.5537 61.6482 33.4089 61.732 33.2892L65.8313 27.4331C65.9864 27.2116 65.9858 26.9167 65.8299 26.6958L62.5369 22.0307C62.3651 21.7873 62.3836 21.4577 62.5814 21.2351L67.0454 16.2132C67.238 15.9965 67.552 15.9361 67.8112 16.0657L73.4719 18.896C73.6654 18.9928 73.8947 18.9854 74.0816 18.8764L77.4145 16.9322C77.552 16.852 77.6548 16.7234 77.7027 16.5715L79.4098 11.1658C79.494 10.8991 79.7414 10.7178 80.0211 10.7178H86.4289C86.7201 10.7178 86.9747 10.9141 87.0488 11.1957L88.4617 16.5647C88.5028 16.7208 88.6013 16.8557 88.7375 16.9423L91.7513 18.8602C91.9379 18.979 92.1725 18.9931 92.372 18.8977L99.0139 15.7211C99.2591 15.6039 99.5516 15.654 99.7438 15.8462L104.194 20.2968C104.404 20.5062 104.443 20.8317 104.288 21.0844L101.218 26.1088C101.099 26.3033 101.092 26.5463 101.2 26.747L103.149 30.3657C103.226 30.5095 103.355 30.6183 103.51 30.67L109.562 32.6871C109.823 32.7743 110 33.0193 110 33.2952V39.1019C110 39.3778 109.823 39.6228 109.562 39.71L103.597 41.6983C103.392 41.7665 103.236 41.9329 103.18 42.1413L102.048 46.3881C102.009 46.5347 102.023 46.6905 102.088 46.8277L104.672 52.2834C104.791 52.5347 104.735 52.8341 104.532 53.0246L99.7996 57.4788C99.5798 57.6856 99.2457 57.7112 98.9971 57.5403L94.6065 54.5217C94.4142 54.3896 94.1653 54.3723 93.9566 54.4766L90.0599 56.425C89.8992 56.5054 89.7796 56.6495 89.7302 56.8222L88.0175 62.817C87.9388 63.0921 87.6873 63.2819 87.4011 63.2819H80.6758C80.3896 63.2819 80.1381 63.0921 80.0595 62.817L78.3671 56.8935C78.3062 56.6806 78.1398 56.5141 77.9268 56.4533L74.0218 55.3376C73.8676 55.2935 73.7025 55.3088 73.559 55.3806L67.785 58.2676C67.5383 58.391 67.2402 58.3426 67.0451 58.1475L61.6026 52.705M28.5483 42.1449H25.7663C25.4123 42.1449 25.1253 41.8579 25.1253 41.5039V31.6937C25.1253 31.3396 25.4123 31.0526 25.7663 31.0526H28.6999C29.7759 31.0526 30.6967 31.2747 31.4622 31.7188C32.2276 32.1594 32.8144 32.793 33.2224 33.6199C33.6304 34.4432 33.8344 35.4289 33.8344 36.5771C33.8344 37.7326 33.6286 38.7273 33.217 39.5614C32.8054 40.3919 32.206 41.031 31.4188 41.4787C30.6317 41.9229 29.6748 42.1449 28.5483 42.1449ZM28.4616 40.9534H27.1095C26.7555 40.9534 26.4685 40.6664 26.4685 40.3124V32.8852C26.4685 32.5312 26.7555 32.2442 27.1095 32.2442H28.6133C29.4798 32.2442 30.2038 32.4193 30.7851 32.7696C31.3665 33.1162 31.8034 33.6145 32.0958 34.2644C32.3883 34.9108 32.5346 35.6817 32.5346 36.5771C32.5346 37.4798 32.3865 38.2579 32.0904 38.9115C31.7944 39.565 31.3448 40.0687 30.7418 40.4226C30.1388 40.7765 29.3787 40.9534 28.4616 40.9534ZM39.4022 42.3182C38.6006 42.3182 37.9092 42.1413 37.3279 41.7875C36.7501 41.43 36.3042 40.9317 35.9901 40.2926C35.6795 39.6499 35.5243 38.9025 35.5243 38.0503C35.5243 37.1982 35.6795 36.4471 35.9901 35.7972C36.3042 35.1437 36.7411 34.6345 37.3008 34.2698C37.8641 33.9015 38.5212 33.7174 39.2723 33.7174C39.7055 33.7174 40.1334 33.7896 40.5559 33.934C40.9783 34.0785 41.3629 34.3132 41.7095 34.6381C42.0562 34.9595 42.3324 35.3856 42.5382 35.9164C42.744 36.4471 42.8469 37.1007 42.8469 37.877V37.877C42.8469 38.1761 42.6044 38.4186 42.3053 38.4186H36.9866C36.6815 38.4186 36.4342 38.1713 36.4342 37.8662V37.8662C36.4342 37.5611 36.6815 37.3137 36.9866 37.3137H40.906C41.26 37.3137 41.5566 37.0234 41.4831 36.6771C41.4362 36.4566 41.3637 36.25 41.2654 36.0572C41.0812 35.6889 40.8177 35.3982 40.4746 35.1852C40.1352 34.9721 39.7344 34.8656 39.2723 34.8656C38.7631 34.8656 38.3226 34.992 37.9507 35.2448C37.5824 35.4939 37.299 35.8189 37.1004 36.2197C36.9018 36.6205 36.8025 37.0501 36.8025 37.5087V38.2453C36.8025 38.8736 36.9108 39.4062 37.1275 39.8431C37.3477 40.2764 37.6528 40.6067 38.0428 40.8342C38.4328 41.0581 38.8859 41.17 39.4022 41.17C39.738 41.17 40.0413 41.1231 40.3122 41.0292C40.5866 40.9317 40.8231 40.7873 41.0217 40.5959C41.0874 40.5314 41.1482 40.4617 41.2041 40.3868C41.4032 40.12 41.7283 39.9393 42.0488 40.0292L42.0827 40.0388C42.4301 40.1363 42.6351 40.5076 42.4496 40.8171C42.3416 40.9975 42.2122 41.1657 42.0616 41.3217C41.7547 41.6358 41.3755 41.8813 40.9242 42.0583C40.4728 42.2316 39.9655 42.3182 39.4022 42.3182ZM79.3562 36.5819C79.3562 37.7518 79.1449 38.7628 78.7225 39.6149C78.3 40.4671 77.7205 41.1242 76.9839 41.5864C76.2473 42.0486 75.406 42.2797 74.46 42.2797C73.5139 42.2797 72.6726 42.0486 71.936 41.5864C71.1994 41.1242 70.6199 40.4671 70.1975 39.6149C69.775 38.7628 69.5638 37.7518 69.5638 36.5819C69.5638 35.412 69.775 34.401 70.1975 33.5488C70.6199 32.6967 71.1994 32.0395 71.936 31.5774C72.6726 31.1152 73.5139 30.8841 74.46 30.8841C75.406 30.8841 76.2473 31.1152 76.9839 31.5774C77.7205 32.0395 78.3 32.6967 78.7225 33.5488C79.1449 34.401 79.3562 35.412 79.3562 36.5819ZM78.0563 36.5819C78.0563 35.6214 77.8956 34.8108 77.5743 34.15C77.2565 33.4893 76.825 32.9892 76.2798 32.6498C75.7382 32.3103 75.1316 32.1406 74.46 32.1406C73.7884 32.1406 73.1799 32.3103 72.6347 32.6498C72.0931 32.9892 71.6616 33.4893 71.3403 34.15C71.0225 34.8108 70.8636 35.6214 70.8636 36.5819C70.8636 37.5424 71.0225 38.353 71.3403 39.0137C71.6616 39.6745 72.0931 40.1746 72.6347 40.514C73.1799 40.8534 73.7884 41.0231 74.46 41.0231C75.1316 41.0231 75.7382 40.8534 76.2798 40.514C76.825 40.1746 77.2565 39.6745 77.5743 39.0137C77.8956 38.353 78.0563 37.5424 78.0563 36.5819ZM83.2179 34.5779C83.0684 34.7794 82.9482 34.9487 82.8572 35.0858C82.8388 35.1135 82.8078 35.1304 82.7746 35.1304V35.1304C82.7203 35.1304 82.6763 35.0863 82.6763 35.0321V34.4263C82.6763 34.0853 82.3998 33.8088 82.0588 33.8088V33.8088C81.7178 33.8088 81.4414 34.0853 81.4414 34.4263V44.6086C81.4414 44.9616 81.7275 45.2477 82.0805 45.2477V45.2477C82.4335 45.2477 82.7196 44.9616 82.7196 44.6086V40.9194C82.7196 40.881 82.7507 40.8498 82.7892 40.8498V40.8498C82.8133 40.8498 82.8356 40.8623 82.8485 40.8826C82.9409 41.0288 83.0677 41.2092 83.2287 41.4239C83.402 41.6514 83.6494 41.8554 83.9707 42.036C84.2921 42.2129 84.72 42.3013 85.2544 42.3013C85.9476 42.3013 86.5597 42.1262 87.0904 41.776C87.6212 41.4221 88.0365 40.9238 88.3362 40.2811C88.6358 39.6348 88.7857 38.8711 88.7857 37.9901C88.7857 37.1163 88.6358 36.358 88.3362 35.7153C88.0365 35.0726 87.6194 34.5761 87.085 34.2259C86.5506 33.8756 85.9332 33.7005 85.2327 33.7005C84.6911 33.7005 84.2614 33.7908 83.9437 33.9713C83.6295 34.1482 83.3876 34.3504 83.2179 34.5779ZM82.6979 37.9684C82.6979 38.5967 82.79 39.151 82.9742 39.6312C83.1583 40.1078 83.4273 40.4815 83.7812 40.7523C84.135 41.0195 84.5683 41.1531 85.081 41.1531C85.6154 41.1531 86.0614 41.0123 86.4188 40.7307C86.7799 40.4454 87.0507 40.0627 87.2313 39.5824C87.4154 39.0986 87.5075 38.5606 87.5075 37.9684C87.5075 37.3835 87.4172 36.8563 87.2367 36.3869C87.0597 35.9139 86.7907 35.5402 86.4297 35.2658C86.0722 34.9877 85.6227 34.8487 85.081 34.8487C84.5611 34.8487 84.1242 34.9805 83.7703 35.2441C83.4165 35.5041 83.1493 35.8688 82.9687 36.3382C82.7882 36.804 82.6979 37.3474 82.6979 37.9684ZM95.1605 35.4391C95.1788 35.4625 95.1965 35.486 95.2136 35.5096C95.3985 35.7647 95.713 35.931 96.0161 35.8452V35.8452C96.3494 35.7509 96.542 35.3921 96.369 35.0921C96.1775 34.76 95.9282 34.4767 95.6209 34.2421C95.1515 33.881 94.5052 33.7005 93.6819 33.7005C93.097 33.7005 92.5734 33.8034 92.1112 34.0092C91.6526 34.215 91.2898 34.4985 91.0226 34.8596C90.759 35.2206 90.6272 35.6359 90.6272 36.1053C90.6272 36.6794 90.8041 37.1578 91.158 37.5405C91.5154 37.9197 92.0751 38.1995 92.837 38.3801L94.2235 38.705C94.6424 38.8025 94.9529 38.9506 95.1551 39.1491C95.3573 39.3441 95.4584 39.5861 95.4584 39.8749C95.4584 40.2324 95.2815 40.5393 94.9276 40.7957C94.5774 41.0484 94.1044 41.1748 93.5086 41.1748C92.985 41.1748 92.5608 41.0629 92.2358 40.839C92.0734 40.7258 91.9372 40.5841 91.8274 40.4137C91.6369 40.1183 91.3054 39.9003 90.9644 39.9856V39.9856C90.6309 40.069 90.4137 40.4063 90.5531 40.7205C90.7424 41.1472 91.0324 41.49 91.4234 41.7489C91.9794 42.1172 92.6817 42.3013 93.5302 42.3013C94.1766 42.3013 94.7435 42.193 95.2309 41.9764C95.7184 41.7597 96.0975 41.4636 96.3683 41.0881C96.6427 40.7126 96.7799 40.2865 96.7799 39.8099C96.7799 39.2286 96.5976 38.7538 96.2329 38.3855C95.8682 38.0136 95.314 37.7373 94.5701 37.5568L93.3353 37.2535C92.8442 37.1307 92.4831 36.9773 92.252 36.7931C92.0209 36.609 91.9054 36.358 91.9054 36.0403C91.9054 35.6828 92.0733 35.3885 92.4091 35.1574C92.7485 34.9227 93.1728 34.8054 93.6819 34.8054C94.0538 34.8054 94.3589 34.865 94.5972 34.9841C94.8355 35.1033 95.0233 35.2549 95.1605 35.4391ZM49.8049 34.2569L47.672 40.4142C47.6635 40.4387 47.6404 40.4551 47.6145 40.4551V40.4551C47.5885 40.4551 47.5655 40.4387 47.557 40.4142L45.4241 34.2569C45.3347 33.9988 45.0883 33.8257 44.8151 33.8257V33.8257C44.3688 33.8257 44.0526 34.2705 44.2074 34.6891L46.8097 41.7262C46.9028 41.9779 47.1427 42.1449 47.4109 42.1449H47.818C48.0863 42.1449 48.3262 41.9779 48.4193 41.7262L51.0215 34.6891C51.1763 34.2705 50.8601 33.8257 50.4138 33.8257V33.8257C50.1407 33.8257 49.8943 33.9988 49.8049 34.2569Z" stroke="black" stroke-width="0.641026" stroke-linecap="round" stroke-linejoin="round"/>
</svg>
