<svg width="131" height="90" viewBox="0 0 131 90" fill="none" xmlns="http://www.w3.org/2000/svg">
<path d="M71.7171 22.2768C75.7079 21.6181 85.1306 22.486 90.8958 31.2268M93.2205 34.1327C94.6153 36.07 96.9865 40.9208 95.3127 44.8263M58.9795 52.3383L61.3266 54.685C61.8225 55.1807 62.6263 55.1806 63.1221 54.6848L68.7136 49.0934M37.4279 77.2557C29.524 77.7594 13.5534 74.4429 12.9025 57.1472C12.2629 40.1527 22.5686 38.151 28.0735 39.2993C28.2217 39.3302 28.3595 39.2177 28.3627 39.0663C28.4195 36.3484 29.7641 30.8828 34.8708 28.5535C39.9389 26.2417 43.9939 27.4299 45.5927 28.4191C45.7063 28.4894 45.8531 28.4626 45.9248 28.3498C49.726 22.3679 60.5814 11.2069 74.7392 12.8617C92.5854 14.9477 102.691 25.6988 103.443 43.3872C103.447 43.4829 103.505 43.5669 103.596 43.599C108.254 45.2536 117.354 50.8082 117.63 60.2855C117.908 69.8529 105.22 74.8815 98.8204 76.2054C98.8063 76.2083 98.7925 76.2097 98.7781 76.21L37.4279 77.2557ZM65.2738 67.9448L64.3762 68.3327C64.0396 68.4781 63.6566 68.4709 63.3256 68.313L62.419 67.8802C59.426 66.5958 56.8415 64.517 54.9455 61.8688C53.0494 59.2207 51.9141 56.1042 51.6625 52.857L50.9647 43.9016C50.9535 43.5309 51.0699 43.1675 51.2944 42.8723C51.519 42.577 51.838 42.3678 52.1982 42.2795L63.5343 39.4375C63.7392 39.3862 63.9536 39.3867 64.1582 39.4392L75.4947 42.3441C75.8551 42.4324 76.1742 42.6418 76.3987 42.9372C76.6233 43.2326 76.7396 43.5961 76.7282 43.967L76.0305 52.9224C75.7787 56.1695 74.6433 59.2858 72.7473 61.9338C70.8512 64.5818 68.2668 66.6605 65.2738 67.9448Z" stroke="black" stroke-width="1.26967"/>
</svg>
