<svg width="88" height="100" viewBox="0 0 88 100" fill="none" xmlns="http://www.w3.org/2000/svg">
<path d="M48.0411 14.756C50.7164 14.3144 57.0331 14.8962 60.898 20.7558M62.4564 22.7038C63.3914 24.0025 64.981 27.2544 63.8589 29.8725M44.2638 51.6122H40.8725H37.9115H28.7169H25.0547C19.7561 51.9499 9.0499 49.7265 8.61354 38.132C8.18479 26.7395 15.0934 25.3975 18.7838 26.1674C18.8831 26.1881 18.9755 26.1126 18.9776 26.0112C19.0157 24.1892 19.9171 20.5252 23.3405 18.9637C26.738 17.4139 29.4563 18.2105 30.5281 18.8736C30.6043 18.9207 30.7027 18.9027 30.7507 18.8272C33.2989 14.8171 40.5761 7.33508 50.0671 8.44442C62.0306 9.84275 68.8049 17.05 69.3089 28.9077C69.3117 28.9719 69.3511 29.0282 69.4116 29.0498C72.5342 30.1589 78.6345 33.8826 78.8196 40.2359C79.0066 46.6565 70.4821 50.0278 66.1965 50.9109L61.7672 51.6103C61.7591 51.6116 61.751 51.6122 61.7428 51.6122H53.8072H49.5995H45.236H44.2638ZM44.2638 51.6122V58.6877M44.2638 58.6877C43.1334 58.8002 40.8725 59.7168 40.8725 62.4833M44.2638 58.6877C45.529 58.6877 48.0931 59.4469 48.228 62.4833M40.8725 62.4833C40.8725 65.2498 43.1334 66.2226 44.2638 66.3632M40.8725 62.4833H31.5276M44.2638 66.3632C45.6414 66.3351 48.363 65.5197 48.228 62.4833M44.2638 66.3632V73.7012M48.228 62.4833H57.253M39.3284 74.9963L43.295 77.8886C43.3216 77.908 43.3538 77.9185 43.3868 77.9185H55.2415C55.3276 77.9185 55.3974 77.9883 55.3974 78.0744V91.511C55.3974 91.5971 55.3276 91.6668 55.2415 91.6668H31.6835C31.5974 91.6668 31.5276 91.5971 31.5276 91.511V75.1223C31.5276 75.0362 31.5974 74.9664 31.6835 74.9664H39.2366C39.2696 74.9664 39.3018 74.9769 39.3284 74.9963ZM20.6879 59.9162L18.0759 57.7123C18.0478 57.6886 18.0122 57.6756 17.9754 57.6756H12.3683C12.2823 57.6756 12.2125 57.7454 12.2125 57.8314V69.7499C12.2125 69.8359 12.2823 69.9057 12.3683 69.9057H28.5654C28.6498 69.9057 28.7188 69.8386 28.7212 69.7542L28.9927 60.1132C28.9952 60.0254 28.9247 59.9529 28.837 59.9529H20.7884C20.7516 59.9529 20.716 59.9399 20.6879 59.9162ZM65.0554 57.7094L68.2597 60.2565C68.2872 60.2784 68.3214 60.2903 68.3566 60.2903H76.2436C76.3296 60.2903 76.3994 60.3601 76.3994 60.4462V69.7499C76.3994 69.8359 76.3296 69.9057 76.2436 69.9057H59.7705C59.6844 69.9057 59.6147 69.8359 59.6147 69.7499V57.8314C59.6147 57.7454 59.6844 57.6756 59.7705 57.6756H64.9584C64.9936 57.6756 65.0278 57.6875 65.0554 57.7094Z" stroke="black" stroke-width="0.851146"/>
</svg>
