<svg width="105" height="101" viewBox="0 0 105 101" fill="none" xmlns="http://www.w3.org/2000/svg">
<path d="M33.8031 57.8024C27.9621 58.1746 16.1599 55.7237 15.6789 42.9423C15.2062 30.3835 22.8221 28.9042 26.8902 29.7528C26.9997 29.7757 27.1016 29.6925 27.1039 29.5807C27.1458 27.5722 28.1395 23.5331 31.9133 21.8117C35.6586 20.1033 38.6552 20.9814 39.8367 21.7124C39.9207 21.7644 40.0292 21.7446 40.0821 21.6613C42.8912 17.2407 50.9133 8.99276 61.3758 10.2157C74.5641 11.7571 82.0318 19.7021 82.5874 32.7737C82.5905 32.8445 82.6339 32.9066 82.7007 32.9303C86.1429 34.153 92.8677 38.2579 93.0717 45.2615C93.2778 52.3394 83.8807 56.0558 79.1564 57.0293L74.2603 57.8024M33.8031 57.8024V74.1227C33.8031 74.2176 33.7261 74.2945 33.6313 74.2945H28.9069M33.8031 57.8024H37.8402H47.976H51.2401H60.8605H65.4989H74.2603M74.2603 57.8024V74.1227C74.2603 74.2176 74.3372 74.2945 74.4321 74.2945H79.1564M59.1425 17.1733C62.0916 16.6866 69.055 17.3279 73.3155 23.7873M75.0334 25.9348C76.0642 27.3664 77.8164 30.9511 76.5795 33.8372M10.0786 74.439V69.9984C10.0786 69.8599 10.1909 69.7476 10.3294 69.7476H29.0624C29.201 69.7476 29.3132 69.8599 29.3132 69.9984V74.439M10.0786 74.439H29.3132M10.0786 74.439V79.5995M29.3132 74.439V79.5995M10.0786 79.5995H29.3132M10.0786 79.5995V83.8217M29.3132 79.5995V83.8217M10.0786 83.8217H29.3132M10.0786 83.8217V87.5748M29.3132 83.8217V87.5748M10.0786 87.5748V91.0771C10.0786 91.2156 10.1909 91.3279 10.3294 91.3279H29.0624C29.201 91.3279 29.3132 91.2156 29.3132 91.0771V87.5748M10.0786 87.5748H29.3132M88.6517 77.2963C89.5017 77.6389 90.3494 77.7767 90.9771 77.7887C91.6264 77.7887 92.5058 77.656 93.3707 77.2963M88.6517 77.2963C87.0205 76.639 85.3804 75.2277 85.2693 72.5038C85.1001 68.3603 89.004 67.3245 90.9771 67.3245C92.8092 67.2892 96.4734 68.2758 96.4734 72.5038C96.4734 75.2333 94.9462 76.6412 93.3707 77.2963M88.6517 77.2963C86.6021 77.848 82.2934 79.7125 81.455 82.7566M81.455 82.7566C84.2683 86.328 88.4742 87.3476 90.9771 87.3017C93.6748 87.1262 98.0274 85.924 100.868 82.7566M81.455 82.7566C79.9515 80.848 78.8458 78.2107 78.6102 74.6177C77.9337 64.3014 86.5729 62.0746 90.9771 62.2508C95.0993 62.427 103.407 65.147 103.661 74.6177C103.757 78.1927 102.59 80.836 100.868 82.7566M93.3707 77.2963C95.6434 77.8833 100.325 79.797 100.868 82.7566M26.9676 71.155C26.8112 71.155 26.4984 71.2488 26.4984 71.6241C26.4984 71.9994 26.8112 72.0933 26.9676 72.0933C27.1239 72.0933 27.4367 71.9994 27.4367 71.6241C27.4367 71.2488 27.1239 71.155 26.9676 71.155ZM26.9676 76.7846C26.8112 76.7846 26.4984 76.8785 26.4984 77.2538C26.4984 77.6291 26.8112 77.7229 26.9676 77.7229C27.1239 77.7229 27.4367 77.6291 27.4367 77.2538C27.4367 76.8785 27.1239 76.7846 26.9676 76.7846ZM26.9676 81.476C26.8112 81.476 26.4984 81.5698 26.4984 81.9451C26.4984 82.3205 26.8112 82.4143 26.9676 82.4143C27.1239 82.4143 27.4367 82.3205 27.4367 81.9451C27.4367 81.5698 27.1239 81.476 26.9676 81.476ZM26.9676 85.2291C26.8112 85.2291 26.4984 85.3229 26.4984 85.6982C26.4984 86.0736 26.8112 86.1674 26.9676 86.1674C27.1239 86.1674 27.4367 86.0736 27.4367 85.6982C27.4367 85.3229 27.1239 85.2291 26.9676 85.2291ZM26.9676 88.9822C26.8112 88.9822 26.4984 89.076 26.4984 89.4513C26.4984 89.8267 26.8112 89.9205 26.9676 89.9205C27.1239 89.9205 27.4367 89.8267 27.4367 89.4513C27.4367 89.076 27.1239 88.9822 26.9676 88.9822Z" stroke="black" stroke-width="0.938275"/>
</svg>
