<svg width="106" height="101" viewBox="0 0 106 101" fill="none" xmlns="http://www.w3.org/2000/svg">
<path d="M37.1045 65.3841C36.6709 65.3408 35.8037 65.5402 35.8037 66.685C35.8037 67.8297 36.6709 68.0291 37.1045 67.9858C37.4514 67.9858 38.1452 67.7256 38.1452 66.685C38.1452 65.6443 37.4514 65.3841 37.1045 65.3841Z" fill="black"/>
<path d="M41.2672 65.3841C40.8335 65.3408 39.9663 65.5402 39.9663 66.685C39.9663 67.8297 40.8335 68.0291 41.2672 67.9858C41.614 67.9858 42.3078 67.7256 42.3078 66.685C42.3078 65.6443 41.614 65.3841 41.2672 65.3841Z" fill="black"/>
<path d="M45.9501 65.3841C45.5165 65.3408 44.6493 65.5402 44.6493 66.685C44.6493 67.8297 45.5165 68.0291 45.9501 67.9858C46.297 67.9858 46.9907 67.7256 46.9907 66.685C46.9907 65.6443 46.297 65.3841 45.9501 65.3841Z" fill="black"/>
<path d="M46.8534 26.3316C43.7224 25.8149 36.3296 26.4958 31.8063 33.3536M29.9825 35.6334C28.8881 37.1533 27.0278 40.9592 28.341 44.0233M71.5352 69.4665H73.7557C79.9569 69.8617 92.487 67.2596 92.9977 53.6899C93.4995 40.3566 85.4139 38.786 81.0949 39.687C80.9923 39.7084 80.896 39.6421 80.8731 39.5447C80.8669 39.5183 80.8638 39.4913 80.854 39.4661C80.7306 39.1506 80.3404 38.5874 79.6411 38.5874M71.5352 69.4665V67.3354C71.5352 67.1917 71.4187 67.0752 71.275 67.0752H59.2361C59.1445 67.0752 59.0595 67.027 59.0126 66.9482L55.5217 61.0884C55.4748 61.0096 55.3899 60.9614 55.2982 60.9614H31.0634C30.9197 60.9614 30.8032 61.0779 30.8032 61.2215V69.4665M71.5352 69.4665V72.0183M30.8032 69.4665L25.6051 68.6458C20.5894 67.6122 10.6128 63.6666 10.8317 56.1521C11.0482 48.7166 18.1878 44.3586 21.8423 43.0604C21.9132 43.0353 21.9593 42.9694 21.9625 42.8942C22.5524 29.0164 30.4807 20.5814 44.4823 18.9449C55.5902 17.6465 64.107 26.4031 67.0893 31.0964C67.1383 31.1734 67.2319 31.1993 67.3141 31.1683C67.3389 31.159 67.3621 31.1476 67.3878 31.1411C68.4896 30.8646 70.8165 30.4577 71.6115 30.9745M30.8032 69.4665V72.0183M71.6115 30.9745L70.0184 32.7446C69.8825 32.8956 69.8976 33.1288 70.0518 33.261L73.3514 36.0891C73.5184 36.2323 73.7735 36.1943 73.8916 36.0087L75.3745 33.6785C75.4987 33.4834 75.7758 33.4496 75.9674 33.5791C76.7358 34.098 78.1054 34.6087 78.9575 34.8821C79.1194 34.9341 79.226 35.0894 79.213 35.2589L78.9869 38.1981C78.9708 38.4081 79.1368 38.5874 79.3474 38.5874H79.6411M71.6115 30.9745L72.1011 30.4305C72.2055 30.3145 72.2234 30.1454 72.1514 30.007C71.7991 29.3293 71.2784 28.0937 71.1792 26.9782C71.1615 26.7794 71.0006 26.6173 70.801 26.6173H67.9052C67.7055 26.6173 67.5436 26.4555 67.5436 26.2558V22.5249C67.5436 22.3252 67.7055 22.1633 67.9052 22.1633H70.5941C70.7636 22.1633 70.9098 22.046 70.951 21.8816C71.1519 21.0803 71.5582 19.7918 72.0607 19.0826C72.1707 18.9273 72.1786 18.7115 72.0533 18.5683L70.5397 16.8385C70.4187 16.7002 70.4207 16.4932 70.5443 16.3573L72.8725 13.7962C73.005 13.6505 73.2298 13.6376 73.3781 13.7673L75.1058 15.2791C75.2396 15.3961 75.4381 15.3984 75.5817 15.2935C76.2481 14.8064 77.5935 14.0168 79.2314 13.6009C79.3956 13.5593 79.5137 13.4132 79.5137 13.2437V11.1115C79.5137 10.9119 79.6756 10.75 79.8752 10.75H83.3278C83.5275 10.75 83.6893 10.9119 83.6893 11.1115V13.3103C83.6893 13.4472 83.7663 13.5717 83.8871 13.6361C84.6247 14.0291 85.9305 14.8406 86.7789 15.7499C86.9207 15.9019 87.1601 15.9219 87.3146 15.7828L89.5462 13.7744C89.6941 13.6413 89.9217 13.6527 90.0555 13.7999L92.3654 16.3408C92.4952 16.4836 92.49 16.7031 92.3535 16.8396L90.5631 18.63C90.449 18.7442 90.4243 18.9195 90.5007 19.0617C90.9535 19.9044 91.6902 21.4029 91.9717 22.4325C92.0171 22.5987 92.1646 22.7201 92.3369 22.7201H94.7411C94.9408 22.7201 95.1027 22.8819 95.1027 23.0816V26.2558C95.1027 26.4555 94.9408 26.6173 94.7411 26.6173H92.3641C92.1799 26.6173 92.0259 26.7555 91.9942 26.937C91.8542 27.7394 91.4718 28.9965 90.7173 29.6952C90.5511 29.8491 90.5095 30.1144 90.66 30.2837L92.3905 32.2306C92.5094 32.3643 92.5126 32.5648 92.3981 32.7022L90.067 35.4995C89.9309 35.6628 89.6839 35.6741 89.5336 35.5237L87.2633 33.2534C87.131 33.1212 86.9202 33.1116 86.772 33.2257C86.1483 33.706 85.025 34.4648 83.9346 34.8808C83.7892 34.9362 83.6893 35.0735 83.6893 35.2291V38.2259C83.6893 38.4255 83.5275 38.5874 83.3278 38.5874H81.4623H79.6411M30.8032 72.0183V90.4898C30.8032 90.6335 30.9197 90.75 31.0634 90.75H71.275C71.4187 90.75 71.5352 90.6335 71.5352 90.4898V72.0183M30.8032 72.0183H71.5352M53 53.5V40.5M53 40.5L49.5 44M53 40.5L56 44M81.7407 18.2661C79.5137 18.2661 75.0597 19.6023 75.0597 24.9471C75.0597 30.2919 79.5137 31.628 81.7407 31.628C83.9677 31.5353 88.4217 30.0692 88.4217 24.9471C88.4217 19.825 83.9677 18.3589 81.7407 18.2661ZM37.1045 65.3841C36.6709 65.3408 35.8037 65.5402 35.8037 66.685C35.8037 67.8297 36.6709 68.0291 37.1045 67.9858C37.4514 67.9858 38.1452 67.7256 38.1452 66.685C38.1452 65.6443 37.4514 65.3841 37.1045 65.3841ZM41.2672 65.3841C40.8335 65.3408 39.9663 65.5402 39.9663 66.685C39.9663 67.8297 40.8335 68.0291 41.2672 67.9858C41.614 67.9858 42.3078 67.7256 42.3078 66.685C42.3078 65.6443 41.614 65.3841 41.2672 65.3841ZM45.9501 65.3841C45.5165 65.3408 44.6493 65.5402 44.6493 66.685C44.6493 67.8297 45.5165 68.0291 45.9501 67.9858C46.297 67.9858 46.9907 67.7256 46.9907 66.685C46.9907 65.6443 46.297 65.3841 45.9501 65.3841Z" stroke="black"/>
</svg>
