<svg width="116" height="101" viewBox="0 0 116 101" fill="none" xmlns="http://www.w3.org/2000/svg">
<path d="M72.9961 20.1129C72.298 16.7621 65.1217 10.0605 42.0013 10.0605C18.8809 10.0605 11.7046 16.7621 11.0065 20.1129M72.9961 20.1129C73.8337 22.9052 68.8076 28.4899 42.0013 28.4899C15.195 28.4899 10.1688 22.9052 11.0065 20.1129M72.9961 20.1129V36.448M11.0065 20.1129V36.448M60.0114 86.7098C26.1684 91.4009 13.2403 85.3136 11.0065 81.6836V66.605M60.0114 86.7098V90.0605H62.9433H83.048H103.572H105.666V82.9401V65.7673V58.6469H98.7548M60.0114 86.7098V71.2124M72.158 58.6469C72.4372 52.9227 74.8386 41.3904 82.2103 41.0553C91.425 40.6365 92.6815 52.7831 91.8438 58.6469M72.158 58.6469H91.8438M72.158 58.6469H66.0847M91.8438 58.6469H98.7548M66.0847 58.6469H60.0114V71.2124M66.0847 58.6469C66.1249 58.1197 66.1793 57.5591 66.249 56.9715M98.7548 58.6469C99.3831 51.9454 96.4511 34.7726 82.2103 34.3537C78.3526 34.2403 75.3305 36.0446 72.9961 38.8008M11.0065 36.448C19.3836 41.4742 43.5095 48.5108 72.9961 36.448M11.0065 36.448V51.5265M72.9961 36.448V38.8008M72.9961 38.8008C68.8777 43.6632 66.8995 51.4881 66.249 56.9715M11.0065 51.5265C15.1648 55.715 32.035 62.6679 66.249 56.9715M11.0065 51.5265V66.605M11.0065 66.605C15.3345 70.5143 31.1946 76.9087 60.0114 71.2124M80.9538 80.427V74.5632C80.2557 74.2839 78.8595 73.1391 78.8595 70.7935C78.8595 67.8616 81.3726 67.4427 83.048 67.4427C84.7234 67.4427 85.5611 68.6993 85.5611 70.7935C85.5611 72.8878 85.1422 73.7255 83.8857 74.5632V80.427C83.3272 81.1251 81.959 82.1024 80.9538 80.427Z" stroke="black"/>
</svg>
