<svg width="86" height="101" viewBox="0 0 86 101" fill="none" xmlns="http://www.w3.org/2000/svg">
<path d="M42.7195 48.0581C42.0151 47.9574 40.6063 48.2996 40.6063 50.4732C40.6063 52.6468 42.0151 52.9889 42.7195 52.8883C43.5245 52.9889 45.1346 52.6468 45.1346 50.4732C45.1346 48.2996 43.5245 47.9574 42.7195 48.0581Z" fill="black"/>
<path d="M42.7195 36.8883H45.1346V32.9637C46.5836 32.4807 48.1534 31.3537 48.7572 30.8505L51.7761 33.8694L54.7949 30.2468L52.3798 27.5298C53.5874 26.8052 54.0905 24.8128 54.1912 23.9071H57.5119V19.6807H54.1912C53.9497 18.4732 52.883 16.36 52.3798 15.4543L54.7949 13.0392L51.7761 9.71845L48.7572 12.4354C47.7912 11.2279 45.9396 10.121 45.1346 9.71845V6.69958H40.6063V9.71845C38.4327 10.2015 36.6817 11.3285 36.078 11.8317L33.6629 9.71845L30.644 13.0392L32.7572 15.4543C32.0327 16.1788 31.449 18.1713 31.2478 19.0769H27.6251V23.9071H31.5497C31.5497 25.3562 32.3547 27.1273 32.7572 27.8317L30.0402 30.8505L34.2666 34.4732L36.3798 31.1524C37.1044 31.8769 39.2981 32.6618 40.3044 32.9637L40.0025 36.8883H42.7195ZM42.7195 36.8883V46.8505V48.0581M42.7195 48.0581C42.0151 47.9574 40.6063 48.2996 40.6063 50.4732M42.7195 48.0581C43.5245 47.9574 45.1346 48.2996 45.1346 50.4732M40.6063 50.4732C40.6063 52.6468 42.0151 52.9889 42.7195 52.8883M40.6063 50.4732H17.361C15.5497 50.3725 11.927 51.3185 11.927 55.9071C11.927 60.4958 11.927 63.8568 11.927 64.9637M42.7195 52.8883C43.5245 52.9889 45.1346 52.6468 45.1346 50.4732M42.7195 52.8883V53.7939V64.9637M45.1346 50.4732H67.4742C69.4868 50.3725 73.5119 51.1977 73.5119 55.3034C73.5119 59.409 73.5119 63.8568 73.5119 65.5675M42.7195 64.9637H47.8515V69.7939M42.7195 64.9637H37.5874V69.7939M73.5119 65.5675H68.3798V69.492M73.5119 65.5675H79.2478V69.492M68.3798 69.492V74.6241H79.2478V69.492M68.3798 69.492H79.2478M37.5874 69.7939V74.6241H47.8515V69.7939M37.5874 69.7939H47.8515M11.927 64.9637H6.49305L6.34211 69.7939M11.927 64.9637H17.361V69.7939M6.34211 69.7939L6.19116 74.6241H17.361V69.7939M6.34211 69.7939H17.361M43.0214 14.8505C40.6063 14.8505 35.7761 16.2996 35.7761 22.0958C35.7761 27.892 40.6063 29.3411 43.0214 29.3411C45.4364 29.2405 50.2666 27.6505 50.2666 22.0958C50.2666 16.5411 45.4364 14.9512 43.0214 14.8505Z" stroke="black"/>
</svg>
