<svg width="98" height="101" viewBox="0 0 98 101" fill="none" xmlns="http://www.w3.org/2000/svg">
<path d="M70.5323 11.3441C54.8988 11.3441 22.5283 11.3441 18.1142 11.3441C13.7 11.3441 11.8608 17.2297 11.4929 20.1724H21.4248M70.5323 11.3441C72.5554 11.528 76.6017 13.4408 76.6017 19.6207C76.6017 25.0146 76.6017 58.2641 76.6017 80.3311M70.5323 11.3441C65.6767 13.5512 66.6699 18.1493 67.7734 20.1724H21.4248M76.6017 89.1436H26.8212C25.0224 89.1436 21.4248 88.2608 21.4248 84.7295C21.4248 81.1982 21.4248 40.2201 21.4248 20.1724M76.6017 89.1436C80.4641 89.7059 87.7475 88.7306 85.9818 80.3311M76.6017 89.1436C76.6017 86.524 76.6017 83.5462 76.6017 80.3311M29.7013 30.1043H59.4969M29.7013 40.5879H67.2217M29.7013 51.0715H59.4969M29.7013 61.5552H45.1509M29.7013 75.9012C30.2531 74.9816 31.798 73.1423 33.5637 73.1423C35.7708 73.1423 40.1849 78.66 42.392 78.1083C44.1577 77.6668 46.8062 74.9816 47.9097 73.6941M85.9818 80.3153L76.6017 80.3311M70.5512 82.0365L68.5769 81.6823L67.5865 83.4598C67.5799 83.4729 67.5734 83.486 67.5602 83.4926C67.147 84.0042 66.7666 83.9911 66.4386 83.7222C66.0844 83.4336 65.8483 82.817 65.6974 82.4103L65.6384 82.2595L63.546 78.3109C63.4804 78.1862 63.5263 78.0354 63.651 77.9763C63.6641 77.9698 63.6772 77.9632 63.6838 77.9632C63.9002 77.8911 64.1429 77.7402 64.4053 77.5434C64.6808 77.3401 64.9694 77.0843 65.2645 76.8219C65.317 76.776 65.3826 76.7498 65.4547 76.7563C66.0188 76.7694 66.5698 76.7235 67.0617 76.5596C67.5471 76.3956 67.9931 76.107 68.3736 75.6216C68.4588 75.5101 68.6163 75.4904 68.7212 75.5757C68.7475 75.6019 68.7737 75.6281 68.7868 75.6609L71.2072 80.3311L71.417 80.7837C71.4236 80.7968 71.4302 80.8099 71.4302 80.823C71.5286 81.1707 71.5482 81.4724 71.4302 81.7019C71.299 81.9578 71.0432 82.0889 70.6103 82.0561C70.5971 82.0496 70.5709 82.043 70.5512 82.0365ZM63.7428 60.6142C63.9265 60.7322 64.1167 60.8897 64.32 61.0668L64.3331 61.0799C64.5889 61.2963 64.871 61.539 65.1858 61.7161C65.4416 61.8604 65.8221 61.8735 66.2222 61.8932C66.9765 61.9195 67.7964 61.9522 68.3408 62.759C68.8065 63.4609 68.8458 63.9922 68.8786 64.5234L68.8852 64.5825C68.8983 64.8383 68.9311 65.081 69.0229 65.3433C69.1148 65.6123 69.2722 65.9009 69.5346 66.2551C70.0265 66.9044 70.3217 67.4554 70.4332 67.9605C70.5512 68.4918 70.4725 68.9706 70.2036 69.456L70.197 69.4691C69.9937 69.8167 69.6985 70.0725 69.4427 70.289L69.4229 70.306C69.2408 70.463 69.0801 70.6014 69.0295 70.7153C68.8918 71.0367 68.8852 71.3319 68.8852 71.6402C68.8786 72.0597 68.8719 72.4933 68.5966 73.0438L68.59 73.0569C68.4129 73.398 68.1899 73.6866 67.921 73.9162C67.6455 74.1523 67.3241 74.3294 66.9568 74.4475C66.6288 74.5524 66.3271 74.5328 66.032 74.5131C65.7893 74.4934 65.5662 74.4803 65.3957 74.5524L65.376 74.559C65.0218 74.7099 64.7004 74.9722 64.3922 75.2149C64.0511 75.4904 63.7297 75.7462 63.3624 75.8643C63.0934 75.9495 62.8245 75.9889 62.5556 75.9889C62.2867 75.9889 62.0177 75.9495 61.7488 75.8643L61.7357 75.8577C61.3803 75.7479 61.0632 75.4917 60.7278 75.2207L60.7125 75.2084C60.4042 74.9591 60.0762 74.6967 59.7155 74.5459C59.5449 74.4737 59.3219 74.4934 59.0792 74.5065C58.7906 74.5262 58.4823 74.5459 58.1478 74.4409L58.1281 74.4344C57.7674 74.3163 57.4525 74.1392 57.1771 73.9096C56.9081 73.6735 56.6786 73.3849 56.508 73.0373C56.2327 72.4867 56.226 72.0541 56.2194 71.6346C56.2129 71.3263 56.2129 71.0302 56.0751 70.7088L56.0686 70.7022C56.0095 70.5776 55.839 70.4333 55.6488 70.2693L55.6417 70.2633C55.3811 70.0418 55.0895 69.7939 54.8945 69.4494L54.8813 69.4297C54.6124 68.9509 54.5403 68.4786 54.6583 67.9473C54.7698 67.4423 55.0716 66.8913 55.5635 66.242C55.8324 65.8943 55.9833 65.5992 56.0751 65.3302C56.1669 65.0679 56.1997 64.8186 56.2129 64.5628L56.2194 64.5103C56.2522 63.979 56.2916 63.4346 56.7573 62.7459L56.7704 62.7328C57.3066 61.9415 58.1168 61.9131 58.8627 61.8869L58.8693 61.8867C59.2694 61.8735 59.6564 61.8539 59.9122 61.7096L59.9188 61.703C60.2271 61.5259 60.5091 61.2898 60.7649 61.0668C60.9683 60.8897 61.1585 60.7257 61.3553 60.6076C61.7272 60.2961 62.7254 59.8614 63.7428 60.6142ZM65.6056 65.0613C64.8251 64.2808 63.7494 63.7954 62.5556 63.7954C61.3618 63.7954 60.2861 64.2808 59.5056 65.0613C58.725 65.8418 58.2396 66.9175 58.2396 68.1113C58.2396 69.3051 58.725 70.3808 59.5056 71.1613C60.2861 71.9419 61.3618 72.4273 62.5556 72.4273C63.7494 72.4273 64.8251 71.9419 65.6056 71.1613C66.3861 70.3808 66.8715 69.3051 66.8715 68.1113C66.865 66.9241 66.3861 65.8418 65.6056 65.0613ZM56.5343 81.6823L54.5599 82.0365C54.5403 82.043 54.5206 82.043 54.4943 82.043C54.0614 82.0758 53.8056 81.9446 53.6744 81.6888C53.5564 81.4658 53.5761 81.1641 53.6744 80.8099L53.6876 80.7705L53.8975 80.318L56.3178 75.6478C56.3309 75.615 56.3572 75.5888 56.3834 75.5626C56.4949 75.4773 56.6458 75.497 56.731 75.6085C57.1049 76.0873 57.5509 76.3759 58.0429 76.5464C58.5414 76.717 59.0858 76.7563 59.6499 76.7432C59.7155 76.7367 59.7811 76.7563 59.8401 76.8088C60.1352 77.0712 60.4239 77.327 60.6993 77.5303C60.9617 77.7271 61.2044 77.8779 61.4208 77.9501L61.4536 77.9632C61.5783 78.0288 61.6242 78.1797 61.5586 78.2977L59.4662 82.2464L59.4072 82.3972C59.2563 82.8039 59.0202 83.4205 58.666 83.7091C58.338 83.9714 57.9642 83.9911 57.5444 83.4795C57.5378 83.4664 57.5247 83.4598 57.5181 83.4467L56.5343 81.6823Z" stroke="black"/>
</svg>
