<svg width="102" height="74" viewBox="0 0 102 74" fill="none" xmlns="http://www.w3.org/2000/svg">
<path d="M24.5386 29.8721L25.2742 27.5953L11.0469 23.567L1.22095 51.8527L16.1647 55.7934L17.5509 51.5024M24.5386 29.8721L17.5509 51.5024M24.5386 29.8721C27.4597 29.1684 33.105 28.1654 37.659 28.3045M42.0602 28.9964C37.3178 31.8279 29.0203 38.6468 33.7696 43.2706C38.5188 47.8944 44.8238 41.1689 47.3827 37.2282C49.0203 36.1773 52.8279 34.7061 54.9569 37.2282C57.0858 39.7502 67.8535 48.9044 72.9712 53.1662C73.4328 54.0674 73.8106 55.237 73.7688 56.3188M42.0602 28.9964C43.0657 28.5908 44.0923 28.2778 45.1309 28.0461M42.0602 28.9964C40.8691 28.5623 39.3382 28.3558 37.659 28.3045M17.5509 51.5024L20.6682 54.4798M20.6682 54.4798C19.3581 57.6324 22.3059 59.7633 23.9436 60.4347M20.6682 54.4798L25.2742 50.5391C27.526 50.0429 31.7225 50.1363 30.4942 54.4798M77.6081 29.8721L76.8607 27.5953L91.4973 24.0924L101.221 52.1154L86.1749 55.9685L85.255 53.1662M77.6081 29.8721L69.1841 33.2874C67.8003 32.3953 65.816 31.3313 63.4523 30.361M77.6081 29.8721L85.255 53.1662M66.83 59.1211L56.4922 50.5391M66.83 59.1211C68.7747 62.2445 70.3305 67.9309 60.9958 65.689M66.83 59.1211C72.1244 60.082 73.6903 58.3558 73.7688 56.3188M60.9958 65.689L49.7368 55.9685M60.9958 65.689C63.4523 68.141 58.6428 73.4752 53.4216 70.6806L47.9968 66.3896C50.0491 69.4646 47.9968 75.4804 40.6741 71.4699L38.9896 70.6806M38.9896 70.6806L43.5956 66.3896C44.1756 64.609 44.0664 61.3279 38.9896 62.4489M38.9896 70.6806C33.831 72.7123 32.746 69.8341 32.8484 68.141M38.9896 62.4489L32.8484 68.141M38.9896 62.4489C40.3816 57.8951 36.8402 57.8076 34.8955 58.333M32.8484 68.141C30.3919 69.2503 25.9088 70.1377 27.6283 64.8133M27.6283 64.8133L34.8955 58.333M27.6283 64.8133C25.9565 64.6673 22.8791 63.5873 23.9436 60.4347M34.8955 58.333C35.7962 54.4798 32.3366 54.1587 30.4942 54.4798M23.9436 60.4347L30.4942 54.4798M45.1309 28.0461C42.572 25.8525 37.9866 19.346 40.1155 10.8691L51.0674 7.0159L62.4287 10.8691C62.8723 14.6433 62.4901 23.3626 57.4134 28.0461M45.1309 28.0461C51.5244 26.6195 58.3664 28.2733 63.4523 30.361M45.1309 18.4878L48.8156 21.5528L56.7992 14.9849M37.659 28.3045C35.8508 25.3242 32.5413 16.894 33.7696 7.0159L51.0674 1.32373L68.1606 7.0159C68.8088 12.5086 68.7747 24.8673 63.4523 30.361M85.255 53.1662C83.7392 54.4798 79.32 56.9493 73.7688 56.3188M15.7552 29.6094C16.9152 29.4635 19.1943 29.7495 19.0306 32.0614C18.8668 34.3733 16.3011 34.4259 15.0388 34.1632C13.7764 33.1999 12.1524 30.9405 15.7552 29.6094ZM85.7655 29.8721C87.1302 29.8138 89.573 30.31 88.4267 32.762C87.2803 35.214 84.9466 34.4843 83.9231 33.8129C83.3431 32.4993 82.8996 29.8721 85.7655 29.8721Z" stroke="black"/>
</svg>
