<svg width="99" height="100" viewBox="0 0 99 100" fill="none" xmlns="http://www.w3.org/2000/svg">
<path d="M35.2837 14.3617C25.3546 15.2483 5.67377 23.6525 6.38299 50.1773C7.21042 56.2057 11.2766 69.5745 20.922 74.8227M3.54614 81.0284L42.7305 80.3192C52.5414 78.9007 72.1632 69.8937 72.1632 45.2128C72.1632 20.532 50.7684 14.3617 40.071 14.3617M40.071 14.3617L60.461 3.54614M40.071 14.3617L52.6596 33.688M59.7518 80.3192H95.0355M95.0355 80.3192L77.1277 64.7164M95.0355 80.3192L77.1277 96.4539M30.6738 47.3405L36.5249 53.1588L46.4539 42.9078M33.0071 33.5039L33.9342 29.61H42.6491L43.9471 33.5039L47.0993 32.2059L53.2183 38.3249L51.9203 41.1063L55.258 43.5168V51.49L51.9203 53.1588L53.2183 55.9402L47.0993 62.2446L43.9471 60.9467L42.6491 63.728H33.9342L33.0071 60.9467L28.7423 62.2446L22.9942 55.9402L24.1067 53.1588L20.5837 51.49L20.2128 42.7751L24.1067 41.1063L22.9942 38.3249L28.7423 32.2059L33.0071 33.5039ZM49.1372 47.0399C49.1372 53.1843 44.1562 58.1654 38.0118 58.1654C31.8674 58.1654 26.8863 53.1843 26.8863 47.0399C26.8863 40.8955 31.8674 35.9145 38.0118 35.9145C44.1562 35.9145 49.1372 40.8955 49.1372 47.0399Z" stroke="black"/>
</svg>
