<svg width="89" height="53" viewBox="0 0 89 53" fill="none" xmlns="http://www.w3.org/2000/svg">
<path d="M21.9501 8.30517L22.5794 6.0283L10.4069 2L2 30.2857L14.7855 34.2264L15.9715 29.9354M21.9501 8.30517L15.9715 29.9354M21.9501 8.30517C24.4493 7.60139 29.2792 6.59844 33.1756 6.73753C34.6123 6.78881 35.922 6.99537 36.9412 7.42945M36.9412 7.42945C32.8837 10.2609 25.7845 17.0799 29.8478 21.7037C33.9112 26.3274 39.3056 19.6019 41.4949 15.6612C42.896 14.6103 46.1537 13.1391 47.9752 15.6612C49.7967 18.1833 59.0092 27.3374 63.3878 31.5993C63.7827 32.5005 64.106 33.67 64.0703 34.7519M36.9412 7.42945C37.8014 7.02383 38.6798 6.71082 39.5683 6.4791C45.0384 5.0525 50.8923 6.7063 55.2437 8.79405C57.266 9.76435 58.9638 10.8284 60.1477 11.7205L67.3551 8.30517M15.9715 29.9354L18.6386 32.9129M18.6386 32.9129C17.5177 36.0654 20.0398 38.1964 21.4409 38.8677M18.6386 32.9129L22.5794 28.9721C24.506 28.4759 28.0964 28.5693 27.0455 32.9129M67.3551 8.30517L66.7156 6.0283L79.2383 2.52543L87.5577 30.5484L74.6846 34.4016L73.8975 31.5993M67.3551 8.30517L73.8975 31.5993M58.1335 37.5542L49.2888 28.9721M58.1335 37.5542C59.7974 40.6776 61.1285 46.3639 53.1419 44.122M58.1335 37.5542C62.6634 38.515 64.0031 36.7888 64.0703 34.7519M53.1419 44.122L43.509 34.4016M53.1419 44.122C55.2437 46.5741 51.1288 51.9082 46.6616 49.1136L42.0203 44.8226C43.7762 47.8977 42.0203 53.9134 35.7552 49.9029L34.314 49.1136M34.314 49.1136L38.2547 44.8226C38.751 43.042 38.6576 39.761 34.314 40.8819M34.314 49.1136C29.9004 51.1453 28.9721 48.2671 29.0597 46.5741M34.314 40.8819L29.0597 46.5741M34.314 40.8819C35.505 36.3282 32.475 36.2406 30.8111 36.766M29.0597 46.5741C26.958 47.6833 23.1223 48.5707 24.5935 43.2463M24.5935 43.2463L30.8111 36.766M24.5935 43.2463C23.1632 43.1004 20.5302 42.0203 21.4409 38.8677M30.8111 36.766C31.5818 32.9129 28.6218 32.5918 27.0455 32.9129M21.4409 38.8677L27.0455 32.9129M73.8975 31.5993C72.6007 32.9129 68.8197 35.3824 64.0703 34.7519M14.4352 8.04246C15.4277 7.8965 17.3776 8.18257 17.2375 10.4945C17.0974 12.8064 14.9022 12.8589 13.8222 12.5962C12.7421 11.6329 11.3527 9.37355 14.4352 8.04246ZM74.3343 8.30517C75.5019 8.24679 77.592 8.74303 76.6112 11.195C75.6304 13.6471 73.6337 12.9173 72.758 12.2459C72.2618 10.9323 71.8823 8.30517 74.3343 8.30517Z" stroke="black" stroke-width="2"/>
</svg>
