<svg width="109" height="100" viewBox="0 0 109 100" fill="none" xmlns="http://www.w3.org/2000/svg">
<path d="M60.8534 90H12.6406C11.5361 90 10.6406 89.1046 10.6406 88V12C10.6406 10.8954 11.5361 10 12.6406 10H24.7896H64.5768H76.6193C77.7239 10 78.6193 10.8954 78.6193 12V46.5958M64.464 58.8954L66.8562 61.6295C66.9435 61.7292 66.938 61.8788 66.854 61.9812C66.0515 62.9592 65.405 65.0799 65.1313 66.2309C65.104 66.3456 65.0023 66.4268 64.8843 66.4268H60.7177C60.5787 66.4268 60.466 66.5395 60.466 66.6784V72.3354C60.466 72.4744 60.5787 72.587 60.7177 72.587H65.2196C65.3585 72.587 65.4707 72.6995 65.4773 72.8383C65.5575 74.5329 66.4146 76.4962 66.9232 77.4339C66.975 77.5293 66.9622 77.6468 66.8896 77.7275L63.7186 81.2508C63.624 81.3558 63.6345 81.5182 63.7419 81.6102L68.716 85.8737C68.8323 85.9734 69.0099 85.9469 69.0921 85.8178L71.463 82.092C71.5494 81.9562 71.7398 81.9342 71.8663 82.0338C72.9056 82.8521 75.1968 83.6903 76.4438 84.0785C76.5568 84.1137 76.6302 84.2216 76.6211 84.3395L76.2725 88.8717C76.2612 89.0179 76.3768 89.1426 76.5234 89.1426H79.7167H82.5452C82.6842 89.1426 82.7969 89.03 82.7969 88.891V84.3188C82.7969 84.2105 82.8663 84.1147 82.9683 84.0782C84.6384 83.4797 86.3986 82.2567 87.2393 81.587C87.3411 81.5059 87.4875 81.5128 87.5795 81.6049L91.0723 85.0977C91.177 85.2023 91.3489 85.1945 91.4436 85.0808L94.9787 80.8387C95.0584 80.7431 95.0562 80.6035 94.9734 80.5105L92.2388 77.434C92.1341 77.3162 92.1627 77.1323 92.2881 77.0368C93.5609 76.0683 94.1492 73.9687 94.3184 72.8101C94.337 72.6833 94.4443 72.587 94.5725 72.587H98.3308C98.4698 72.587 98.5824 72.4744 98.5824 72.3354V67.4485C98.5824 67.3095 98.4698 67.1968 98.3308 67.1968H94.5536C94.4336 67.1968 94.331 67.1128 94.3029 66.9962C93.9437 65.506 92.7698 63.148 92.1282 61.9719C92.0744 61.8733 92.092 61.7519 92.1714 61.6724L94.9477 58.8962C95.0426 58.8012 95.0463 58.6484 94.9559 58.549L91.4356 54.6766C91.3425 54.5742 91.184 54.5662 91.0811 54.6589L87.6153 57.7781C87.5077 57.8749 87.3413 57.8613 87.2464 57.7521C86.0341 56.3576 83.9715 55.0986 82.9345 54.5615C82.8499 54.5177 82.7969 54.4312 82.7969 54.3358V50.8929C82.7969 50.7539 82.6842 50.6412 82.5452 50.6412H77.2733C77.1343 50.6412 77.0216 50.7539 77.0216 50.8929V54.2895C77.0216 54.4074 76.9395 54.5094 76.8247 54.5367C74.3217 55.133 72.2849 56.3798 71.414 57.0524C71.316 57.128 71.1778 57.1265 71.0847 57.0449L68.3521 54.654C68.2489 54.5637 68.0924 54.5726 68.0002 54.6741L65.2376 57.7129M64.464 58.8954C64.3797 58.7992 64.3811 58.6551 64.4671 58.5604L65.2376 57.7129M64.464 58.8954L55.0688 58.5604M34.1258 26.2217H25.8359C24.7313 26.2217 23.8359 27.1172 23.8359 28.2217V41.0487C23.8359 42.1533 24.7313 43.0487 25.8359 43.0487H35.5785M35.5785 43.0487L31.7047 39.417M35.5785 43.0487L31.7047 46.3173M55.0688 43.0487H63.2376C64.3422 43.0487 65.2376 43.9442 65.2376 45.0487V57.7129M55.0688 58.5604L58.4584 55.2756M55.0688 58.5604L58.4584 61.6295M34.1258 59.1494H25.8359C24.7313 59.1494 23.8359 60.0448 23.8359 61.1494V73.8554C23.8359 74.9599 24.7313 75.8554 25.8359 75.8554H35.5785M35.5785 75.8554L31.7047 72.587M35.5785 75.8554L31.7047 78.6397M80.1018 61.0366C77.0216 61.0366 70.8614 62.8847 70.8614 70.277C70.8614 77.6692 77.0216 79.5173 80.1018 79.5173C83.1819 79.389 89.3421 77.3612 89.3421 70.277C89.3421 63.1927 83.1819 61.1649 80.1018 61.0366ZM50.4686 73.013V78.3345C50.4686 79.4391 49.5732 80.3345 48.4686 80.3345H41.0892C39.9846 80.3345 39.0892 79.4391 39.0892 78.3345V73.013C39.0892 71.9085 39.9846 71.013 41.0892 71.013H48.4686C49.5732 71.013 50.4686 71.9085 50.4686 73.013ZM41.0892 62.9022H48.4686C49.5732 62.9022 50.4686 62.0068 50.4686 60.9022V57.2756C50.4686 56.171 49.5732 55.2756 48.4686 55.2756H41.0892C39.9846 55.2756 39.0892 56.171 39.0892 57.2756V60.9022C39.0892 62.0068 39.9846 62.9022 41.0892 62.9022ZM50.4686 40.8117V44.3173C50.4686 45.4219 49.5732 46.3173 48.4686 46.3173H41.0892C39.9846 46.3173 39.0892 45.4219 39.0892 44.3173V40.8117C39.0892 39.7071 39.9846 38.8117 41.0892 38.8117H48.4686C49.5732 38.8117 50.4686 39.7071 50.4686 40.8117ZM39.0892 27.2482V23.2584C39.0892 22.1538 39.9846 21.2584 41.0892 21.2584H48.4686C49.5732 21.2584 50.4686 22.1538 50.4686 23.2584V27.2482C50.4686 28.3527 49.5732 29.2482 48.4686 29.2482H41.0892C39.9846 29.2482 39.0892 28.3527 39.0892 27.2482Z" stroke="black"/>
</svg>
