<svg width="95" height="101" viewBox="0 0 95 101" fill="none" xmlns="http://www.w3.org/2000/svg">
<path d="M37.4445 71.6296C36.8469 68.7475 36.0633 67.3686 35.5594 66.9833C15.8207 50.8334 27.7085 32.056 36.8412 26.929C44.0506 20.8409 63.4692 21.5777 69.3652 37.9839C75.2611 54.3901 64.0246 66.1821 57.6693 70.0273V71.6296M37.4445 71.6296C37.9236 73.9403 38.2831 77.2173 38.2831 81.7231H40.6861M37.4445 71.6296H57.6693M57.6693 71.6296V81.7231H54.4647M12.8083 45.8347H21.1396M19.0568 36.3819L23.0622 37.9839M23.0622 22.443L28.83 28.5313M36.8412 17.957L38.2831 22.443M47.7356 12.3494V20.0398M59.111 17.957L57.6693 22.443M72.409 22.443L66.481 28.5313M75.9338 36.3819L72.409 37.9839M82.3424 45.8347H74.1714M40.6861 81.7231C41.1133 83.9128 43.0893 88.164 47.5754 87.6513C49.6582 87.9182 53.952 87.1063 54.4647 81.7231M40.6861 81.7231H54.4647M38.2831 42.4701L35.5594 39.5862L38.2831 36.3819L41.8076 39.5862L44.8517 37.9839V33.6582H49.9786V37.9839L54.4647 39.5862L57.6693 36.3819L60.2325 39.5862L57.6693 43.5916L59.111 45.8347L63.2766 47.2766V50.6412L59.111 51.7627L57.6693 54.8068L60.2325 57.8509L57.6693 61.6961L54.4647 59.4531L51.1002 60.5746L49.9786 64.2596H45.813L44.8517 60.5746L41.8076 59.4531L38.2831 61.6961L35.5594 57.8509L37.4445 54.8068L36.8412 51.7627H32.6752V47.2766H36.2L38.2831 42.4701ZM47.5754 42.4701C49.8718 42.7906 54.4647 44.8734 54.4647 50.6412C54.0909 52.2968 52.1896 55.672 47.5754 55.9283C42.9612 56.1847 41.3803 51.5491 41.1667 49.1992C41.2201 46.9562 42.5766 42.4701 47.5754 42.4701Z" stroke="black"/>
</svg>
