<svg width="101" height="100" viewBox="0 0 101 100" fill="none" xmlns="http://www.w3.org/2000/svg">
<path d="M15.8638 69.3449C13.6013 66.7591 9.46406 58.0969 11.0155 44.1338C12.9548 26.68 30.4086 10.1957 49.9957 10.0018C65.6654 9.84661 77.5986 20.0215 81.6065 25.1284L80.249 16.4016M85.4852 30.5586C88.2778 34.5924 90.1395 36.3766 90.5274 44.1338C90.5274 79.2354 67.2556 88.3502 49.9957 89.9016C36.1878 91.1428 23.6857 80.3343 19.1607 74.775L20.7121 83.5019M37.5224 46.7209H42.4527V54.6279H37.5224V46.7209ZM48.2201 40.3953V54.6279H54.0806V40.3953H48.2201ZM58.8248 36.3023V54.6279H65.0573V36.3023H58.8248ZM46.729 19.809V13.6212C46.729 13.368 46.9342 13.1628 47.1874 13.1628H56.7915C57.0446 13.1628 57.2499 13.368 57.2499 13.6212V19.8934C57.2499 20.0671 57.3466 20.2246 57.5007 20.3045C59.3897 21.283 63.8194 22.9596 66.0278 25.5C66.2007 25.699 67.2381 24.8357 66.5 25.5L72.3415 20.4819C72.5291 20.3131 72.8177 20.3276 72.9874 20.5143L79.4005 27.5687C79.5651 27.7497 79.5585 28.0282 79.3855 28.2012L74.3279 33.2588C74.1832 33.4035 74.1511 33.6247 74.2491 33.8044C75.4179 35.9469 77.5564 40.2425 78.2109 42.9573C78.2621 43.1698 78.4491 43.3228 78.6676 43.3228H85.5487C85.8019 43.3228 86.0071 43.528 86.0071 43.7812V52.6839C86.0071 52.9371 85.8019 53.1423 85.5487 53.1423H78.7021C78.4685 53.1423 78.273 53.3176 78.2392 53.5488C77.9308 55.6593 76.8593 59.4842 74.5405 61.2487C74.312 61.4226 74.2599 61.7576 74.4507 61.9723L79.4324 67.5767C79.5831 67.7463 79.5872 68.0005 79.442 68.1748L73.002 75.9027C72.8294 76.1098 72.5162 76.124 72.3256 75.9334L65.9627 69.5704C65.795 69.4028 65.5283 69.3902 65.3429 69.5379C63.8113 70.758 60.6047 72.9859 57.5621 74.0762C57.3764 74.1427 57.2499 74.3173 57.2499 74.5146V82.8439C57.2499 83.0971 57.0446 83.3023 56.7915 83.3023H51.6387H45.8212C45.5542 83.3023 45.3437 83.075 45.3641 82.8088L45.9992 74.5523C46.0158 74.3374 45.8821 74.1408 45.6763 74.0768C43.4046 73.3695 39.2305 71.8426 37.3373 70.3518C37.1069 70.1704 36.7601 70.2105 36.6026 70.458L32.2834 77.2452C32.1337 77.4806 31.8101 77.5287 31.5983 77.3472L22.5367 69.5801C22.3412 69.4125 22.322 69.1168 22.4943 68.9254L28.271 62.5068C28.4033 62.3598 28.4266 62.1459 28.3323 61.972C27.4058 60.2637 25.8444 56.6872 25.6982 53.6001C25.6862 53.3472 25.4818 53.1423 25.2287 53.1423H17.0274C16.7742 53.1423 16.5689 52.9371 16.5689 52.6839V42.3784C16.5689 42.1253 16.7742 41.92 17.0274 41.92H24.618C24.8328 41.92 25.0182 41.7721 25.0679 41.5631C25.5665 39.4663 26.7442 35.603 28.2061 33.8212C28.3592 33.6347 28.3692 33.3621 28.2103 33.1805L23.8521 28.1998C23.6987 28.0245 23.7012 27.762 23.8579 27.5896L30.2943 20.5096C30.4623 20.3247 30.7474 20.3085 30.9354 20.473L35.9134 24.8287C36.0831 24.9772 36.3348 24.9801 36.5133 24.8423C38.0998 23.617 41.8105 21.3457 46.3703 20.2593C46.5793 20.2095 46.729 20.0239 46.729 19.809ZM73.6155 46.907C73.6155 59.2884 63.5783 69.3256 51.1969 69.3256C38.8154 69.3256 28.7783 59.2884 28.7783 46.907C28.7783 34.5255 38.8154 24.4884 51.1969 24.4884C63.5783 24.4884 73.6155 34.5255 73.6155 46.907Z" stroke="black"/>
</svg>
