<svg width="51" height="51" viewBox="0 0 51 51" fill="none" xmlns="http://www.w3.org/2000/svg">
<path d="M17.7385 6.7042C12.5019 7.17176 2.12212 11.6042 2.49616 25.5935C2.93256 28.7729 5.0771 35.8237 10.1641 38.5916M1 41.8645L21.666 41.4905C26.8403 40.7424 37.1889 35.992 37.1889 22.9752C37.1889 9.9584 25.9052 6.7042 20.2634 6.7042M20.2634 6.7042L31.0172 1M20.2634 6.7042L26.9027 16.8969M30.6431 41.4905H49.2519M49.2519 41.4905L39.8073 33.2614M49.2519 41.4905L39.8073 50M14.072 23.5933L13.7158 23.6822C13.3979 23.7616 13.1158 23.945 12.9141 24.2032C12.7125 24.4614 12.603 24.7796 12.6029 25.1072V26.486C12.603 26.8136 12.7125 27.1318 12.9141 27.39C13.1158 27.6482 13.3979 27.8316 13.7158 27.9111L14.9939 28.2306C15.0588 28.2468 15.1266 28.2479 15.1921 28.234C15.2576 28.2201 15.319 28.1914 15.3717 28.1502C15.4245 28.109 15.4671 28.0564 15.4965 27.9962C15.5259 27.9361 15.5411 27.87 15.5411 27.8031V23.7902C15.5412 23.7232 15.5259 23.657 15.4965 23.5968C15.4671 23.5366 15.4243 23.4839 15.3715 23.4427C15.3187 23.4014 15.2571 23.3728 15.1916 23.3589C15.126 23.3451 15.0582 23.3464 14.9932 23.3627L14.072 23.5933ZM14.072 23.5933V23.226C14.072 21.6675 14.6911 20.1728 15.7932 19.0707C16.8953 17.9687 18.39 17.3495 19.9485 17.3495C21.507 17.3495 23.0018 17.9687 24.1038 19.0707C25.2059 20.1728 25.825 21.6675 25.825 23.226V23.5933M25.825 23.5933L26.1813 23.6822C26.4991 23.7616 26.7812 23.945 26.9829 24.2032C27.1845 24.4614 27.2941 24.7796 27.2941 25.1072V26.486C27.2941 26.8136 27.1845 27.1318 26.9829 27.39C26.7812 27.6482 26.4991 27.8316 26.1813 27.9111L25.825 28.0007M25.825 23.5933L24.9031 23.3627C24.8382 23.3465 24.7704 23.3453 24.7049 23.3592C24.6395 23.3732 24.578 23.4018 24.5253 23.443C24.4725 23.4842 24.4299 23.5369 24.4005 23.597C24.3712 23.6572 24.3559 23.7232 24.3559 23.7902V27.8031C24.3559 27.87 24.3712 27.9361 24.4005 27.9962C24.4299 28.0564 24.4725 28.109 24.5253 28.1502C24.578 28.1914 24.6395 28.2201 24.7049 28.234C24.7704 28.2479 24.8382 28.2468 24.9031 28.2306L25.825 28.0007M25.825 28.0007V28.7352C25.825 29.1249 25.6702 29.4985 25.3947 29.7741C25.1192 30.0496 24.7455 30.2044 24.3559 30.2044H22.1522M22.1522 30.2044C22.1522 29.9121 22.0361 29.6319 21.8295 29.4252C21.6228 29.2186 21.3426 29.1025 21.0504 29.1025H18.8467C18.5544 29.1025 18.2742 29.2186 18.0675 29.4252C17.8609 29.6319 17.7448 29.9121 17.7448 30.2044C17.7448 30.4966 17.8609 30.7768 18.0675 30.9835C18.2742 31.1901 18.5544 31.3062 18.8467 31.3062H21.0504C21.3426 31.3062 21.6228 31.1901 21.8295 30.9835C22.0361 30.7768 22.1522 30.4966 22.1522 30.2044Z" stroke="black" stroke-width="1.5"/>
</svg>
