<svg width="114" height="100" viewBox="0 0 114 100" fill="none" xmlns="http://www.w3.org/2000/svg">
<path d="M73.7699 24.5584H17.1964C16.9143 24.5584 16.6856 24.7871 16.6856 25.0692V67.3397M16.6856 67.3397H87.9452M16.6856 67.3397L10.0449 83.0475M87.9452 67.3397V43.4588M87.9452 67.3397L94.969 83.0475M10.0449 83.0475H38.2678M10.0449 83.0475C9.78946 85.3036 10.3003 89.8414 14.3869 89.9436C18.4698 90.0457 66.915 89.9863 90.6913 89.9437C90.7348 89.9436 90.7751 89.9385 90.8171 89.9267C92.4505 89.4675 95.4732 87.4858 94.969 83.0475M94.969 83.0475H65.469M38.2678 83.0475L41.6919 77.9113C41.7866 77.7692 41.9461 77.6839 42.1169 77.6839H61.8641C62.041 77.6839 62.2054 77.7754 62.2985 77.9258L65.469 83.0475M38.2678 83.0475H65.469M44.3979 30.6883C45.8026 29.9646 49.3273 28.5173 52.1879 28.5173C55.7637 28.5173 69.6835 31.9653 69.8113 47.1623C69.9134 59.3198 58.1049 63.2957 52.1879 63.764C46.2709 63.7214 34.4113 60.3415 34.3091 47.1623C34.6071 43.9271 36.2247 36.5627 40.3113 32.987M40.3113 32.987L34.3091 34.7748M40.3113 32.987V39.1168M47.5905 41.2878H44.9087C44.6266 41.2878 44.3979 41.5165 44.3979 41.7986V55.3354C44.3979 55.6175 44.6266 55.8462 44.9087 55.8462H59.3394C59.6215 55.8462 59.8502 55.6175 59.8502 55.3354V41.7986C59.8502 41.5165 59.6215 41.2878 59.3394 41.2878H56.0191M47.5905 41.2878C47.7608 39.1168 48.9186 34.7748 52.1879 34.7748C55.4572 34.7748 56.1042 39.1168 56.0191 41.2878M47.5905 41.2878H56.0191M48.6122 47.1623L50.209 49.6107C50.3778 49.8695 50.7358 49.9204 50.97 49.7189L56.0191 45.3744M79.2615 25.1969C79.0912 24.3456 79.2359 22.2597 81.177 20.7272C82.0057 20.073 83.0656 19.38 84.1143 18.7475M79.2615 25.1969C79.3454 26.7077 79.8631 27.9972 80.5385 29.0425M79.2615 25.1969C77.9065 25.8023 75.8916 27.1926 75.4303 29.0425M83.6034 31.9653C82.8008 31.5389 81.5074 30.542 80.5385 29.0425M83.6034 31.9653C84.4395 32.8186 85.6155 33.0829 86.9238 32.9804M83.6034 31.9653C82.5206 32.9018 80.4278 34.0958 78.4952 33.6884M96.7571 19.7056L80.5385 29.0425M96.7571 19.7056C98.8257 23.3032 97.2851 26.8348 95.8994 28.645M96.7571 19.7056C94.8855 16.4506 91.5393 16.0583 89.2225 16.3991M86.9238 32.9804L89.2008 35.6048C89.3615 35.7901 89.3679 36.0635 89.2159 36.2561L85.6467 40.777M86.9238 32.9804C88.513 32.856 90.2972 32.1905 91.9043 31.3822M91.9043 31.3822C93.2337 30.7136 94.4418 29.9472 95.3179 29.3087C95.341 29.2919 95.3624 29.2733 95.3822 29.2526C95.5467 29.0807 95.7218 28.877 95.8994 28.645M91.9043 31.3822V33.5351C91.9043 33.744 92.0315 33.9318 92.2254 34.0094L95.7355 35.4134M95.8994 28.645L97.5737 31.4893C97.6938 31.6934 97.9386 31.7881 98.1649 31.7181L103.142 30.1775M84.1143 18.7475C85.5219 17.8985 86.9094 17.1587 87.69 16.7684C88.1058 16.6211 88.6306 16.4862 89.2225 16.3991M84.1143 18.7475L82.7466 17.9588C82.5692 17.8564 82.4701 17.6581 82.4947 17.4548L82.9649 13.5758M89.2225 16.3991L87.3199 13.9248C87.1656 13.7242 87.1815 13.441 87.3571 13.2588L90.4995 10M80.5385 21.1104L79.4311 18.5634C79.3328 18.3373 79.0871 18.2137 78.847 18.2695L73.7699 19.4502M75.4303 29.0425C75.2104 29.9241 75.3434 30.9101 76.0688 31.9653C76.7712 32.987 77.6167 33.5032 78.4952 33.6884M75.4303 29.0425L73.2123 28.2122C73.0794 28.1624 72.9318 28.1702 72.8048 28.2337L68.9173 30.1775M78.4952 33.6884L78.0311 35.7197C78.0012 35.8507 77.9208 35.9647 77.8074 36.0368L73.7699 38.606" stroke="black" stroke-linecap="round" stroke-linejoin="round"/>
</svg>
