<svg width="95" height="100" viewBox="0 0 95 100" fill="none" xmlns="http://www.w3.org/2000/svg">
<path d="M36.7866 72.6616C36.1598 69.6389 35.338 68.1927 34.8095 67.7886C14.1074 50.8505 26.5754 31.1566 36.1538 25.7793C43.7152 19.394 64.0815 20.1668 70.2653 37.3738C76.449 54.5808 64.6641 66.9483 57.9986 70.9812V72.6616M36.7866 72.6616C37.2891 75.0852 37.6661 78.5221 37.6661 83.2478H40.1864M36.7866 72.6616H57.9986M57.9986 72.6616V83.2478H54.6376M10.948 45.6077H19.6859M17.5014 35.6936L21.7024 37.3738M21.7024 21.0744L27.7517 27.4598M36.1538 16.3693L37.6661 21.0744M47.58 10.488V18.5538M59.5106 16.3693L57.9986 21.0744M73.4577 21.0744L67.2403 27.4598M77.1545 35.6936L73.4577 37.3738M83.876 45.6077H75.3061M40.1864 83.2478C40.6345 85.5444 42.7069 90.003 47.412 89.4653C49.5965 89.7453 54.0998 88.8938 54.6376 83.2478M40.1864 83.2478H54.6376M43.8026 46.6044C43.2632 45.8519 42.896 44.8282 42.8567 43.4521C42.7306 39.0379 46.3775 37.4089 48.2168 37.1461C49.6356 37.1461 53.4192 38.7226 53.4192 43.4521C53.4192 44.8227 52.964 45.8485 52.3011 46.6044M43.8026 46.6044C44.9933 48.2658 47.0232 48.6053 48.2168 48.4968C49.3227 48.4298 51.134 47.9353 52.3011 46.6044M43.8026 46.6044C42.0159 46.9199 38.4425 48.2446 38.4425 51.0192V60.6358V61.3736M52.3011 46.6044C54.0926 47.025 57.6757 48.4968 57.6757 51.0192V60.6358V61.2338M38.4425 61.3736C34.2028 58.7207 30.8754 53.8548 30.8754 45.1862C30.8754 33.2049 40.839 28.3178 48.2168 28.3178C53.5768 28.3178 64.6122 32.8896 65.2428 45.1862C65.6188 52.5185 62.1272 58.0572 57.6757 61.2338M38.4425 61.3736C41.5277 63.304 45.096 64.0625 48.2168 64.2617C51.2081 64.4527 54.6618 63.3846 57.6757 61.2338" stroke="black"/>
</svg>
