<svg width="51" height="52" viewBox="0 0 51 52" fill="none" xmlns="http://www.w3.org/2000/svg">
<path d="M18.0289 6.85882C21.8895 5.28912 31.4689 3.82973 38.9016 10.5497M38.9016 10.5497C38.6046 11.0164 38.1889 12.1024 38.9016 12.7133C39.6143 13.3242 40.641 12.883 41.0652 12.586M38.9016 10.5497C39.1561 10.0236 40.8107 9.91332 41.3198 10.8042C41.727 11.517 41.3198 12.2891 41.0652 12.586M41.0652 12.586C43.2713 14.3679 47.2761 20.5788 45.647 31.1679M45.647 31.1679L43.1016 27.8588M45.647 31.1679L48.7016 28.6224M32.6652 45.5497C27.9561 46.8224 17.2907 47.917 12.3016 42.1133M12.3016 42.1133C12.5562 41.5618 12.9125 40.2552 12.3016 39.4406C11.6907 38.626 10.3501 38.8466 9.75616 39.0588M12.3016 42.1133C11.4106 42.7497 10.0107 42.7497 9.24706 41.4769C8.63616 40.4588 9.33191 39.4406 9.75616 39.0588M9.75616 39.0588C7.76226 37.3194 4.07993 31.3206 5.30175 21.2406M5.30175 21.2406L2.62915 23.5315M5.30175 21.2406L7.46551 23.9133M6.19279 14.877H5.30175V17.4224H6.70188V19.7133H9.88369V17.4224H11.411V14.877H10.6473M6.19279 14.877C6.27764 14.283 6.19279 12.7642 5.17461 11.4406C3.90188 9.78605 4.2837 5.20423 8.4837 5.3315C12.6837 5.45878 12.811 9.53149 11.9201 11.4406C11.0291 13.3497 10.7746 12.8406 10.6473 14.877M6.19279 14.877H8.42006M10.6473 14.877H8.42006M8.42006 14.877V10.2951M8.42006 10.2951L6.82915 8.51333M8.42006 10.2951L10.2655 8.51333M0.974609 5.96788L2.62915 7.11333M4.02915 2.40424L5.17461 4.44061M8.42006 1.25879L8.35642 3.5497M13.0655 2.40424L11.7928 4.31333M16.1201 5.58606L13.9564 6.85882M14.5928 17.3113L25.712 12.0992L36.4837 16.9639M14.5928 17.3113L25.712 22.8709M14.5928 17.3113V33.6426L25.712 38.5073M36.4837 16.9639L25.712 22.8709M36.4837 16.9639V32.9477L25.712 38.5073M25.712 22.8709V38.5073M41.1927 37.4043C42.8049 37.5315 46.0291 38.6515 46.0291 42.1133C46.0291 45.5752 42.8049 46.5255 41.1927 46.5679C39.7927 46.3982 37.0182 45.2697 37.12 42.1133C37.2218 38.957 39.8776 37.6588 41.1927 37.4043ZM38.5198 36.5133L40.047 35.2406V33.5861H42.7198V34.8588L44.5016 36.5133L46.2834 35.2406L47.938 37.4043L47.1743 38.4224L48.1925 40.3315H49.7198V43.1315H48.1925L46.9198 45.0406L48.1925 46.8224L46.2834 48.477L44.8834 47.7133L43.2289 47.9679L42.7198 50.2588H40.047V48.477L38.5198 47.7133L36.6107 48.9861L34.9561 46.8224L35.8471 45.5497L35.5925 43.3861L33.3016 43.1315V40.9679L34.9561 40.7133L35.8471 39.4406L34.9561 37.0224L36.6107 35.2406L38.5198 36.5133Z" stroke="black" stroke-width="1.75" stroke-linecap="round"/>
</svg>
