<svg width="110" height="113" viewBox="0 0 110 113" fill="none" xmlns="http://www.w3.org/2000/svg">
<path d="M15.2641 79.8612C7.08294 60.1903 3.71421 18.6827 55.6889 10.0202C62.3061 9.71945 78.7166 12.6551 91.4215 26.8037M91.4215 26.8037H82.0372M91.4215 26.8037L89.7973 19.0435M94.8504 34.0223C103.332 55.0769 107.375 98.3049 55.6889 102.78C49.6733 102.841 33.9606 99.5682 19.2344 85.997M19.2344 85.997L20.8586 95.0204M19.2344 85.997L29.3406 87.0798M48.2897 55.498L54.0647 61.0925L63.0881 51.8886M28.2578 35.8271C34.1531 34.624 47.8927 30.2326 55.6889 22.292C59.599 26.142 70.6316 34.239 83.4809 35.8271V62.7168C84.3833 68.5519 80.0881 82.6043 55.6889 92.133C33.4553 81.7381 28.1375 68.191 28.2578 62.7168V35.8271ZM55.6889 40.6996C60.8022 41.4215 70.9565 45.6805 70.6677 56.9417C70.379 68.2029 60.5615 71.4994 55.6889 71.74C50.7561 71.319 40.7462 67.7698 40.1687 56.9417C39.5912 46.1136 50.2749 41.6019 55.6889 40.6996Z" stroke="black"/>
</svg>
