<svg width="50" height="51" viewBox="0 0 50 51" fill="none" xmlns="http://www.w3.org/2000/svg">
<path d="M10.444 33.3554L8.0203 29.3068C7.95455 29.1969 7.81169 29.1621 7.70274 29.2292L1.20775 33.2345C1.09958 33.3012 1.06615 33.4431 1.13317 33.5511L11.2257 49.8113C11.292 49.9181 11.4319 49.9517 11.5395 49.8868L17.8088 46.1036C17.9171 46.0382 17.9522 45.8975 17.8872 45.789L15.7365 42.1963M10.444 33.3554C11.7778 31.48 15.1573 27.6834 18.0047 27.4997C21.5641 27.27 26.9605 30.4849 30.5199 29.796C34.0792 29.1071 37.6386 28.9921 37.7534 31.1737M10.444 33.3554L15.7365 42.1963M37.7534 31.1737C37.8682 33.3554 31.4384 37.259 24.3197 35.3072M37.7534 31.1737C40.4325 27.423 46.2499 20.84 48.087 24.5143C49.9201 28.1805 40.3978 37.791 35.3752 42.1676C35.3528 42.1871 35.3295 42.2006 35.3013 42.2101C32.4155 43.1829 24.535 44.5223 15.7365 42.1963M23.2086 17.2413L20.396 22.9544C20.3231 23.1025 20.463 23.2659 20.6206 23.2167L23.0733 22.4502C23.1534 22.4252 23.2403 22.4562 23.2864 22.5263L25.1767 25.4029C25.259 25.5282 25.4477 25.5113 25.5065 25.3734L27.8115 19.9655M31.7569 19.9655L33.6771 24.9115C33.7387 25.0701 33.9626 25.0717 34.0264 24.914L35.3469 21.6504C35.387 21.5513 35.5017 21.5056 35.599 21.55L38.3938 22.8247C38.5499 22.8959 38.712 22.7376 38.6444 22.5798L36.3599 17.2413M27.5298 11.4178L28.9944 12.7101C29.0687 12.7758 29.1813 12.7722 29.2515 12.7021L32.7903 9.16332M11.2305 42.4258C11.2305 41.9183 11.6199 41.8911 11.8609 41.9498C11.8997 41.9592 11.9399 41.9615 11.9797 41.9579C12.1812 41.9396 12.4935 42.0109 12.4935 42.4258C12.4935 42.8704 12.1349 42.9922 11.9384 42.9995C11.9258 43 11.9132 43.001 11.9007 43.0027C11.6658 43.0346 11.2305 42.9623 11.2305 42.4258ZM21.0471 12.5759V15.3463C21.0471 15.7021 21.2482 16.0274 21.5664 16.1865L24.2283 17.5175C24.3602 17.5834 24.4747 17.6795 24.5626 17.7979L26.1937 19.9964C26.4309 20.3161 26.8439 20.4516 27.2244 20.3345L29.93 19.502C30.1388 19.4378 30.3635 19.4483 30.5654 19.5319L32.3193 20.2576C32.7084 20.4186 33.157 20.3011 33.4172 19.97L34.8852 18.1016C34.9891 17.9694 35.1266 17.8674 35.2833 17.8065L37.8267 16.8174C38.1878 16.677 38.4256 16.3293 38.4256 15.9419V12.9487C38.4256 12.8068 38.4578 12.6667 38.5198 12.5389L39.6642 10.1786C39.8252 9.84647 39.7768 9.45087 39.5406 9.16735L37.7154 6.97714C37.6264 6.87033 37.5622 6.74511 37.5274 6.61049L36.9642 4.42806C36.8804 4.10307 36.6295 3.84752 36.3061 3.75768L33.5656 2.99645C33.4868 2.97456 33.4112 2.94248 33.3408 2.90102L30.7695 1.38849C30.4545 1.20321 30.0607 1.2174 29.7598 1.42486L27.7697 2.79741C27.6128 2.90556 27.4268 2.96348 27.2363 2.96348H24.4475C23.9997 2.96348 23.6142 3.27954 23.5264 3.71863L23.1665 5.51788C23.132 5.69024 23.0499 5.84947 22.9294 5.97747L20.4675 8.59329C20.2439 8.83082 20.1596 9.16731 20.2447 9.4822L21.0146 12.3308C21.0362 12.4107 21.0471 12.4931 21.0471 12.5759ZM34.8555 11.0418C34.8555 13.6358 32.7526 15.7387 30.1586 15.7387C27.5646 15.7387 25.4617 13.6358 25.4617 11.0418C25.4617 8.44776 27.5646 6.34489 30.1586 6.34489C32.7526 6.34489 34.8555 8.44776 34.8555 11.0418Z" stroke="black" stroke-width="1.75"/>
</svg>
