<svg width="50" height="51" viewBox="0 0 50 51" fill="none" xmlns="http://www.w3.org/2000/svg">
<path d="M10.4816 33.2644L8.04522 29.1946C7.97913 29.0842 7.83552 29.0491 7.726 29.1167L1.19705 33.1429C1.08832 33.2099 1.05472 33.3525 1.12209 33.4611L11.2674 49.8063C11.334 49.9137 11.4746 49.9475 11.5828 49.8822L17.8849 46.0792C17.9938 46.0135 18.029 45.8721 17.9637 45.763L15.8017 42.1515M10.4816 33.2644C11.8223 31.3792 15.2195 27.5627 18.0819 27.3781C21.6598 27.1472 27.0845 30.3789 30.6624 29.6864C34.2404 28.9939 37.8184 28.8783 37.9338 31.0713M10.4816 33.2644L15.8017 42.1515M37.9338 31.0713C38.0492 33.2644 31.5858 37.1884 24.4299 35.2264M37.9338 31.0713C40.6269 27.301 46.4747 20.6836 48.3214 24.3771C50.164 28.0625 40.592 37.7232 35.5431 42.1226C35.5206 42.1423 35.4972 42.1559 35.4689 42.1654C32.5679 43.1433 24.6463 44.4897 15.8017 42.1515M23.3129 17.0661L20.4856 22.809C20.4123 22.9579 20.553 23.1222 20.7114 23.0727L23.1769 22.3022C23.2574 22.277 23.3448 22.3083 23.3911 22.3787L25.2913 25.2703C25.3741 25.3963 25.5638 25.3793 25.6229 25.2407L27.9399 19.8045M31.9059 19.8045L33.8362 24.7763C33.8981 24.9358 34.1232 24.9374 34.1873 24.7788L35.5147 21.4983C35.555 21.3986 35.6703 21.3526 35.7681 21.3973L38.5775 22.6786C38.7345 22.7502 38.8974 22.5911 38.8295 22.4325L36.5329 17.0661M27.6567 11.2122L29.1289 12.5112C29.2037 12.5772 29.3169 12.5737 29.3874 12.5031L32.9447 8.94586M11.2722 42.3823C11.2722 41.8721 11.6637 41.8448 11.9059 41.9037C11.9449 41.9132 11.9853 41.9155 12.0253 41.9119C12.2278 41.8935 12.5418 41.9652 12.5418 42.3823C12.5418 42.8291 12.1814 42.9516 11.9838 42.959C11.9711 42.9595 11.9585 42.9605 11.9459 42.9622C11.7097 42.9942 11.2722 42.9216 11.2722 42.3823ZM21.1402 12.3763V15.1612C21.1402 15.5189 21.3422 15.8458 21.6622 16.0058L24.3379 17.3437C24.4705 17.41 24.5856 17.5066 24.674 17.6256L26.3136 19.8356C26.5521 20.157 26.9672 20.2931 27.3497 20.1755L30.0694 19.3386C30.2794 19.274 30.5052 19.2846 30.7082 19.3686L32.4713 20.0982C32.8624 20.26 33.3134 20.1418 33.5749 19.809L35.0505 17.9309C35.155 17.7979 35.2932 17.6955 35.4508 17.6342L38.0075 16.6399C38.3705 16.4988 38.6095 16.1493 38.6095 15.7598V12.7511C38.6095 12.6084 38.6419 12.4675 38.7041 12.3391L39.8545 9.9664C40.0164 9.63258 39.9678 9.23491 39.7303 8.94991L37.8955 6.74824C37.8061 6.64088 37.7416 6.515 37.7066 6.37968L37.1405 4.18584C37.0562 3.85915 36.804 3.60226 36.4789 3.51196L33.7241 2.74674C33.6449 2.72474 33.5689 2.6925 33.4981 2.65082L30.9133 1.13038C30.5967 0.944134 30.2008 0.958396 29.8984 1.16694L27.8978 2.54666C27.7402 2.65538 27.5532 2.7136 27.3617 2.7136H24.5583C24.1082 2.7136 23.7206 3.03132 23.6324 3.4727L23.2706 5.28136C23.236 5.45462 23.1534 5.61468 23.0323 5.74335L20.5575 8.37284C20.3328 8.61161 20.248 8.94987 20.3335 9.2664L21.1075 12.1299C21.1292 12.2102 21.1402 12.2931 21.1402 12.3763ZM35.0207 10.8341C35.0207 13.4417 32.9068 15.5556 30.2993 15.5556C27.6917 15.5556 25.5778 13.4417 25.5778 10.8341C25.5778 8.22656 27.6917 6.11269 30.2993 6.11269C32.9068 6.11269 35.0207 8.22656 35.0207 10.8341Z" stroke="black" stroke-width="1.5"/>
</svg>
