<svg width="116" height="101" viewBox="0 0 116 101" fill="none" xmlns="http://www.w3.org/2000/svg">
<g filter="url(#filter0_d_309_19)">
<path d="M35.171 42.8721L35.8003 40.5953L23.6278 36.567L15.2209 64.8527L28.0064 68.7934L29.1925 64.5024M35.171 42.8721L29.1925 64.5024M35.171 42.8721C37.6702 42.1684 42.5002 41.1654 46.3965 41.3045M50.1621 41.9964C46.1046 44.8279 39.0055 51.6468 43.0688 56.2706C47.1321 60.8944 52.5265 54.1689 54.7158 50.2282C56.117 49.1773 59.3747 47.7061 61.1961 50.2282C63.0176 52.7502 72.2302 61.9044 76.6088 66.1662C77.0037 67.0674 77.3269 68.237 77.2912 69.3188M50.1621 41.9964C51.0223 41.5908 51.9007 41.2778 52.7893 41.0461M50.1621 41.9964C49.1429 41.5623 47.8332 41.3558 46.3965 41.3045M29.1925 64.5024L31.8596 67.4798M31.8596 67.4798C30.7387 70.6324 33.2607 72.7633 34.6619 73.4347M31.8596 67.4798L35.8003 63.5391C37.7269 63.0429 41.3173 63.1363 40.2665 67.4798M80.576 42.8721L79.9365 40.5953L92.4593 37.0924L100.779 65.1154L87.9056 68.9685L87.1185 66.1662M80.576 42.8721L73.3686 46.2874C72.1847 45.3953 70.4869 44.3313 68.4646 43.361M80.576 42.8721L87.1185 66.1662M71.3545 72.1211L62.5097 63.5391M71.3545 72.1211C73.0183 75.2445 74.3494 80.9309 66.3629 78.689M71.3545 72.1211C75.8843 73.082 77.224 71.3558 77.2912 69.3188M66.3629 78.689L56.73 68.9685M66.3629 78.689C68.4646 81.141 64.3498 86.4752 59.8826 83.6806L55.2413 79.3896C56.9971 82.4646 55.2413 88.4804 48.9761 84.4699L47.5349 83.6806M47.5349 83.6806L51.4757 79.3896C51.9719 77.609 51.8785 74.3279 47.5349 75.4489M47.5349 83.6806C43.1213 85.7123 42.1931 82.8341 42.2806 81.141M47.5349 75.4489L42.2806 81.141M47.5349 75.4489C48.7259 70.8951 45.6959 70.8076 44.0321 71.333M42.2806 81.141C40.1789 82.2503 36.3433 83.1377 37.8145 77.8133M37.8145 77.8133L44.0321 71.333M37.8145 77.8133C36.3841 77.6673 33.7511 76.5873 34.6619 73.4347M44.0321 71.333C44.8027 67.4798 41.8428 67.1587 40.2665 67.4798M34.6619 73.4347L40.2665 67.4798M52.7893 41.0461C50.6 38.8525 46.6767 32.346 48.4982 23.8691L57.8684 20.0159L67.5889 23.8691C67.9684 27.6433 67.6414 36.3626 63.2979 41.0461M52.7893 41.0461C58.2594 39.6195 64.1132 41.2733 68.4646 43.361M52.7893 31.4878L55.9418 34.5528L62.7724 27.9849M46.3965 41.3045C44.8494 38.3242 42.0179 29.894 43.0688 20.0159L57.8684 14.3237L72.4929 20.0159C73.0475 25.5086 73.0183 37.8673 68.4646 43.361M87.1185 66.1662C85.8217 67.4798 82.0406 69.9493 77.2912 69.3188M27.6561 42.6094C28.6486 42.4635 30.5986 42.7495 30.4584 45.0614C30.3183 47.3733 28.1232 47.4259 27.0431 47.1632C25.9631 46.1999 24.5736 43.9405 27.6561 42.6094ZM87.5553 42.8721C88.7229 42.8138 90.8129 43.31 89.8321 45.762C88.8513 48.214 86.8547 47.4843 85.979 46.8129C85.4827 45.4993 85.1033 42.8721 87.5553 42.8721Z" stroke="black"/>
</g>
<defs>
<filter id="filter0_d_309_19" x="-3.03857" y="0.0640869" width="122.077" height="108" filterUnits="userSpaceOnUse" color-interpolation-filters="sRGB">
<feFlood flood-opacity="0" result="BackgroundImageFix"/>
<feColorMatrix in="SourceAlpha" type="matrix" values="0 0 0 0 0 0 0 0 0 0 0 0 0 0 0 0 0 0 127 0" result="hardAlpha"/>
<feOffset dy="4"/>
<feGaussianBlur stdDeviation="2"/>
<feComposite in2="hardAlpha" operator="out"/>
<feColorMatrix type="matrix" values="0 0 0 0 0 0 0 0 0 0 0 0 0 0 0 0 0 0 0.25 0"/>
<feBlend mode="normal" in2="BackgroundImageFix" result="effect1_dropShadow_309_19"/>
<feBlend mode="normal" in="SourceGraphic" in2="effect1_dropShadow_309_19" result="shape"/>
</filter>
</defs>
</svg>
