<svg width="90" height="101" viewBox="0 0 90 101" fill="none" xmlns="http://www.w3.org/2000/svg">
<path d="M27.8847 41.1211L44.7438 31.1714M27.8847 41.1211L44.7438 50.3798M27.8847 41.1211V60.3295M27.8847 41.1211L12.9602 32.8297M44.7438 31.1714L61.1884 41.1211M44.7438 31.1714V14.5887M61.1884 41.1211L44.7438 50.3798M61.1884 41.1211L75.4219 32.6915M61.1884 41.1211V60.8822M44.7438 50.3798V70.4173M44.7438 14.5887L38.8017 20.9454M44.7438 14.5887L50.8242 20.9454M75.4219 32.6915L66.716 30.4805M75.4219 32.6915L73.3491 41.1211M61.1884 60.8822L44.7438 70.4173M61.1884 60.8822L75.8365 69.0354M44.7438 70.4173L27.8847 60.3295M44.7438 70.4173V87.1383M75.8365 69.0354L73.3491 60.8822M75.8365 69.0354L67.5451 71.1083M27.8847 60.3295L12.822 69.45M44.7438 87.1383L50.686 80.9197M44.7438 87.1383L38.9398 80.9197M12.822 69.45L15.5858 60.8822M12.822 69.45L21.9425 70.8319M12.9602 32.8297L15.5858 40.8447M12.9602 32.8297L21.2516 31.1714M44.7438 8.09375L8.12354 29.2368V71.7992L44.7438 92.9422L81.5023 71.7992V29.2368L44.7438 8.09375Z" stroke="black"/>
</svg>
