<svg width="99" height="100" viewBox="0 0 99 100" fill="none" xmlns="http://www.w3.org/2000/svg">
<path d="M36.9657 18.4358C28.1717 19.221 10.7408 26.6645 11.369 50.1569C12.1018 55.4961 15.7032 67.3366 24.2459 71.9848M8.85645 77.4811L43.5612 76.8529C52.2505 75.5966 69.6291 67.6192 69.6291 45.76C69.6291 23.9007 50.6801 18.4358 41.2057 18.4358M41.2057 18.4358L59.2647 8.85669M41.2057 18.4358L52.3552 35.5527M58.6366 76.8529H89.8866M89.8866 76.8529L74.026 63.0338M89.8866 76.8529L74.026 91.1431M33.8665 49.4415L37.4633 53.0383L44.5914 45.2562M27 40.2208C27.0872 46.8257 29.6943 60.7549 39.4251 63.6323C49.3652 61.592 51.6759 47.1745 51.5887 40.2208C45.9215 41.8914 41.1183 37.4364 39.4251 35C38.506 39.1766 30.7588 40.2208 27 40.2208Z" stroke="black" stroke-width="0.885678"/>
</svg>
