<svg width="81" height="101" viewBox="0 0 81 101" fill="none" xmlns="http://www.w3.org/2000/svg">
<path d="M67.6982 44.3745V31.8993C67.6982 31.7835 67.6043 31.6896 67.4885 31.6896H59.1018M42.1187 67.8574H27.2322C27.1164 67.8574 27.0226 67.7635 27.0226 67.6477V58.8417M34.8851 31.6896H27.2322C27.1164 31.6896 27.0226 31.7835 27.0226 31.8993V39.9716M34.8851 31.6896C33.6271 25.155 34.298 11.834 47.0459 10.8276C59.7937 9.82123 60.3947 24.3163 59.1018 31.6896M34.8851 31.6896H59.1018M27.0226 39.9716H18.9503C18.8345 39.9716 18.7407 39.8777 18.7407 39.7619V33.6815M27.0226 39.9716V49.826M18.7407 33.6815C17.3429 33.6815 14.5263 33.0525 14.4425 30.5365C14.3376 27.3915 17.0633 25.819 18.7407 26.2383C20.418 26.6576 22.7243 27.3915 22.7243 30.5365C22.7243 33.0525 20.0685 33.6815 18.7407 33.6815ZM27.0226 49.826H18.7407M27.0226 49.826V58.8417M18.7407 49.826C18.8805 48.4981 18.2165 45.8632 14.4425 45.9471C10.6684 46.031 10.3539 48.568 10.6684 49.826C10.9829 50.9791 12.178 53.2226 14.4425 52.971C16.7069 52.7194 18.2515 50.7695 18.7407 49.826ZM27.0226 58.8417H18.9503C18.8345 58.8417 18.7407 58.9355 18.7407 59.0513V64.8172M18.7407 64.8172C17.5176 64.957 15.1135 65.9494 15.2812 68.8009C15.4475 71.6282 17.62 72.4904 18.7128 72.573C18.7317 72.5744 18.7492 72.578 18.7672 72.5841C20.2784 73.0987 23.2486 73.0531 23.2486 68.8009C23.2486 64.5237 20.2433 64.363 18.7407 64.8172ZM47.0459 59.89C44.2346 59.89 44.2493 53.7761 44.6186 50.5899C44.6283 50.5067 44.5883 50.4287 44.5186 50.3822C43.6381 49.7952 41.9461 47.9026 41.3848 44.3745C40.7993 40.6942 44.8924 39.3496 47.0289 39.1345C47.0405 39.1334 47.0512 39.1332 47.0629 39.134C49.0956 39.279 53.1898 40.4214 53.4407 43.8504C53.6852 47.1919 51.1116 49.55 49.6833 50.3859C49.6101 50.4288 49.5678 50.5078 49.5767 50.5922C49.9103 53.7791 49.8564 59.89 47.0459 59.89ZM51.6586 73.4136C51.2742 72.2605 50.0861 69.9541 48.4088 69.9541C46.7402 69.9541 45.9015 72.2365 45.6864 73.3955C45.6841 73.4079 45.6831 73.42 45.6831 73.4325V85.1229C45.6831 85.1442 45.686 85.1645 45.6925 85.1848C46.268 86.9767 48.6033 90.523 53.4407 90.6064C59.5212 90.7113 70.0046 92.4934 70.2143 81.6955C70.3817 73.0706 70.2845 58.3633 70.2146 52.0569C70.2144 52.0366 70.2171 52.0181 70.2223 51.9985C70.4852 51.0105 70.0289 49.0703 66.1257 48.9873C62.184 48.9034 62.7361 60.9733 63.5049 67.0188C63.2602 65.5511 62.0371 62.8254 59.1018 63.6641C56.812 64.3183 56.9251 66.9289 57.5003 68.9578C57.5674 69.1942 57.6411 69.1713 57.5262 68.9542C56.872 67.7186 55.6023 66.5514 53.4407 67.0188C50.3376 67.6896 50.9597 71.5615 51.6586 73.4136Z" stroke="black" stroke-linecap="round" stroke-linejoin="round"/>
</svg>
