<svg width="100" height="100" viewBox="0 0 100 100" fill="none" xmlns="http://www.w3.org/2000/svg">
<path d="M18.8711 15.3793C18.1814 15.3793 16.8021 15.7931 16.8021 17.4483C16.8021 19.1034 18.1814 19.4253 18.8711 19.3793C19.5607 19.4253 20.9401 19.1034 20.9401 17.4483C20.9401 15.7931 19.5607 15.3793 18.8711 15.3793Z" fill="black"/>
<path d="M25.7676 15.3793C25.078 15.3793 23.6987 15.7931 23.6987 17.4483C23.6987 19.1034 25.078 19.4253 25.7676 19.3793C26.4573 19.4253 27.8366 19.1034 27.8366 17.4483C27.8366 15.7931 26.4573 15.3793 25.7676 15.3793Z" fill="black"/>
<path d="M32.6642 15.3793C31.9745 15.3793 30.5952 15.7931 30.5952 17.4483C30.5952 19.1034 31.9745 19.4253 32.6642 19.3793C33.3539 19.4253 34.7332 19.1034 34.7332 17.4483C34.7332 15.7931 33.3539 15.3793 32.6642 15.3793Z" fill="black"/>
<path d="M54.8711 76.6207H12.8711C11.7665 76.6207 10.8711 75.7253 10.8711 74.6207V24.3448M77.6297 76.6207H87.6297C88.7343 76.6207 89.6297 75.7253 89.6297 74.6207V24.3448M10.8711 24.3448V12C10.8711 10.8954 11.7665 10 12.8711 10H41.078M10.8711 24.3448H41.078M89.6297 24.3448V12C89.6297 10.8954 88.7343 10 87.6297 10H41.078M89.6297 24.3448H41.078M41.078 10V24.3448M49.9056 17.1724H81.6297M31.8366 33.3103H47.009M31.8366 39.7931H44.9401M31.8366 47.931H43.5607M31.8366 54.4138H43.9745M31.8366 62.8276H43.5607M31.8366 69.3103H43.9745M61.3539 66.7298C63.2342 67.1785 65.0078 67.369 66.4573 67.3793C67.7818 67.3901 69.4166 67.2051 71.1436 66.7298M61.3539 66.7298C54.8247 65.1717 47.009 60.5 47.009 49.4483C47.009 35.2138 59.9745 31.6552 66.4573 31.6552C72.1125 31.5632 83.4228 34.9931 83.4228 49.4483C83.4228 60.5178 76.7902 65.1758 71.1436 66.7298M61.3539 66.7298V84.7586C61.5837 86.5057 62.9263 90 66.4573 90C69.8099 90 71.5212 86.85 72.0397 85.0362C72.0923 84.8524 72.1073 84.6617 72.097 84.4708L71.1436 66.7298M56.5263 49.4483L61.4503 54.0511C62.2413 54.7906 63.4772 54.7662 64.2384 53.9961L74.7332 43.3793M18.8711 15.3793C18.1814 15.3793 16.8021 15.7931 16.8021 17.4483C16.8021 19.1034 18.1814 19.4253 18.8711 19.3793C19.5607 19.4253 20.9401 19.1034 20.9401 17.4483C20.9401 15.7931 19.5607 15.3793 18.8711 15.3793ZM25.7676 15.3793C25.078 15.3793 23.6987 15.7931 23.6987 17.4483C23.6987 19.1034 25.078 19.4253 25.7676 19.3793C26.4573 19.4253 27.8366 19.1034 27.8366 17.4483C27.8366 15.7931 26.4573 15.3793 25.7676 15.3793ZM32.6642 15.3793C31.9745 15.3793 30.5952 15.7931 30.5952 17.4483C30.5952 19.1034 31.9745 19.4253 32.6642 19.3793C33.3539 19.4253 34.7332 19.1034 34.7332 17.4483C34.7332 15.7931 33.3539 15.3793 32.6642 15.3793ZM19.2159 69.3103H23.7676C24.8722 69.3103 25.7676 68.4149 25.7676 67.3103V63.1724C25.7676 62.0678 24.8722 61.1724 23.7676 61.1724H19.2159C18.1114 61.1724 17.2159 62.0678 17.2159 63.1724V67.3103C17.2159 68.4149 18.1114 69.3103 19.2159 69.3103ZM19.2159 54.4138H23.7676C24.8722 54.4138 25.7676 53.5184 25.7676 52.4138V48.2759C25.7676 47.1713 24.8722 46.2759 23.7676 46.2759H19.2159C18.1114 46.2759 17.2159 47.1713 17.2159 48.2759V52.4138C17.2159 53.5184 18.1114 54.4138 19.2159 54.4138ZM19.2159 39.7931H23.7676C24.8722 39.7931 25.7676 38.8977 25.7676 37.7931V33.6552C25.7676 32.5506 24.8722 31.6552 23.7676 31.6552H19.2159C18.1114 31.6552 17.2159 32.5506 17.2159 33.6552V37.7931C17.2159 38.8977 18.1114 39.7931 19.2159 39.7931Z" stroke="black" stroke-linecap="round" stroke-linejoin="round"/>
</svg>
