<svg width="41" height="51" viewBox="0 0 41 51" fill="none" xmlns="http://www.w3.org/2000/svg">
<path d="M15.3732 24.4347L19.4038 28.3393L25.7016 21.9156M1.39201 10.7055C5.50659 9.86581 15.0961 6.80087 20.5374 1.25879C23.2664 3.94586 30.9666 9.59711 39.9347 10.7055V29.473C40.5645 33.5456 37.5667 43.3534 20.5374 50.0039C5.01955 42.7489 1.30804 33.2937 1.39201 29.473V10.7055ZM20.5374 14.1063C24.1062 14.6101 31.1933 17.5827 30.9918 25.4423C30.7903 33.302 23.9382 35.6028 20.5374 35.7708C17.0946 35.4769 10.1082 32.9997 9.70514 25.4423C9.30208 17.8849 16.7587 14.736 20.5374 14.1063Z" stroke="black" stroke-width="1.75"/>
</svg>
