<svg width="91" height="100" viewBox="0 0 91 100" fill="none" xmlns="http://www.w3.org/2000/svg">
<path d="M32.1689 45.6082L40.9548 54.3919L58.5244 36.8224M45.3465 89.5332L49.2112 87.8633C57.3146 84.386 64.3121 78.7577 69.4458 71.5881C74.5794 64.4186 77.6535 55.9811 78.3351 47.1895L80.2243 22.9425C80.255 21.9384 79.9401 20.9541 79.3322 20.1543C78.7243 19.3545 77.8602 18.7876 76.8844 18.5485L45.3465 10.4669L13.8085 18.3735C12.8332 18.6126 11.9694 19.1791 11.3615 19.9785C10.7536 20.7778 10.4385 21.7616 10.4688 22.7654L12.3579 47.0124C13.0392 55.8044 16.1131 64.2424 21.2467 71.4123C26.3804 78.5822 33.3781 84.2108 41.4817 87.6883L45.3465 89.5332Z" stroke="black" stroke-linecap="round" stroke-linejoin="round"/>
</svg>
