<svg width="260" height="100" viewBox="0 0 260 100" fill="none" xmlns="http://www.w3.org/2000/svg">
<rect width="260" height="100" rx="8" fill="#BFDBFE"/>
<g clip-path="url(#clip0_652_62)">
<mask id="mask0_652_62" style="mask-type:luminance" maskUnits="userSpaceOnUse" x="35" y="26" width="23" height="36">
<path d="M37.8514 51.8221L37.8521 51.8125C37.8521 54.1427 38.4837 55.9799 39.7531 57.3115C41.0162 58.643 42.7655 59.3088 45.0012 59.3088C46.9779 59.3088 48.6957 58.7071 50.1545 57.5036C51.6071 56.3001 52.3397 54.8853 52.3397 53.2721C52.3397 51.5372 50.7355 49.1558 47.5273 46.1151L45.1969 43.9257C42.2161 41.1219 40.7256 38.5356 40.7256 36.1734C40.7256 33.4207 41.7866 31.1609 43.9023 29.3813C46.0243 27.6081 48.721 26.7183 51.9987 26.7183C53.7354 26.7183 55.1437 26.9871 56.2173 27.5249C57.2909 28.0626 57.8277 28.7604 57.8277 29.6182C57.8277 30.476 57.4488 31.4426 56.6847 32.5629C55.4595 30.1559 53.4511 28.9524 50.685 28.9524C48.9609 28.9524 47.5147 29.4965 46.3274 30.5784C45.1464 31.6603 44.5591 32.9983 44.5591 34.5858C44.5591 35.6421 44.7549 36.4551 45.1401 37.012C45.5317 37.5689 46.7315 38.7853 48.7525 40.6609L50.6598 42.447C54.1332 45.7246 55.8763 48.6693 55.8763 51.2748C55.8763 54.3091 54.689 56.8313 52.3144 58.8286C49.9398 60.8259 46.9526 61.8246 43.3528 61.8246C40.9341 61.8246 38.9384 61.2485 37.3659 60.109C35.787 58.9631 35.0039 57.5163 35.0039 55.7687C35.0039 54.6256 35.8828 53.3645 37.6405 51.9855L37.8514 51.8221Z" fill="white"/>
</mask>
<g mask="url(#mask0_652_62)">
<path d="M35.0039 26.7183H57.8277V61.8246H35.0039V26.7183Z" fill="#231F20"/>
</g>
<mask id="mask1_652_62" style="mask-type:luminance" maskUnits="userSpaceOnUse" x="62" y="35" width="25" height="25">
<path d="M83.1508 35.4556C83.9276 35.4556 84.597 35.6796 85.1654 36.1277C85.7275 36.5822 86.0117 37.1264 86.0117 37.773C86.0117 38.7716 84.9381 40.1032 82.7908 41.7676C82.254 40.6409 81.4962 40.0712 80.5047 40.0712C78.7111 40.0712 76.4249 42.0044 73.6462 45.871C71.922 48.278 70.4316 50.7618 69.1559 53.3161C67.8865 55.8703 67.2487 57.6947 67.2487 58.783L67.2676 59.1479L67.2739 59.1607C66.3076 59.6216 65.5372 59.8456 64.9498 59.8456C63.5036 59.8456 62.7773 59.1991 62.7773 57.9124C62.7773 57.253 63.0299 55.6142 63.5415 52.9895L64.6025 47.6379C65.253 44.4562 65.5814 42.1005 65.5814 40.5704C65.5814 39.7383 65.3477 39.0469 64.8803 38.4836C66.3645 37.9714 67.5708 37.7089 68.5054 37.7089C69.4906 37.7089 69.9895 38.3491 69.9895 39.6231C69.9895 40.4105 69.6358 42.4782 68.9348 45.8326L67.7349 52.0869C70.4064 46.8312 73.0904 42.747 75.7934 39.8279C78.4963 36.9152 80.9468 35.4556 83.1508 35.4556Z" fill="white"/>
</mask>
<g mask="url(#mask1_652_62)">
<path d="M62.7773 35.4556H86.0117V59.8456H62.7773V35.4556Z" fill="#231F20"/>
</g>
<mask id="mask2_652_62" style="mask-type:luminance" maskUnits="userSpaceOnUse" x="86" y="38" width="25" height="22">
<path d="M91.6178 38.8933C92.6598 38.8933 93.184 39.6359 93.184 41.1211C93.184 42.2222 92.9819 43.8034 92.5714 45.8647L91.744 50.0513C91.3336 52.0678 91.1252 53.3801 91.1252 53.9819C91.1252 55.7551 91.864 56.6449 93.3545 56.6449C95.1165 56.6449 97.4722 55.1405 100.409 52.1254C103.352 49.1166 106.194 45.2949 108.954 40.673L110.709 41.7228H110.722C107.533 47.401 104.299 51.8373 101.034 55.0381C97.7689 58.2389 94.8387 59.8393 92.2366 59.8393C90.6515 59.8393 89.3758 59.3144 88.4096 58.2709C87.4433 57.2275 86.957 55.8511 86.957 54.1483C86.957 53.5018 87.096 52.4775 87.3801 51.0755L87.8475 48.7133C88.5358 45.3013 88.8832 42.9135 88.8832 41.5372C88.8832 40.7177 88.6433 40.052 88.1632 39.5335C90.0011 39.1045 91.1504 38.8933 91.6178 38.8933Z" fill="white"/>
</mask>
<g mask="url(#mask2_652_62)">
<path d="M86.957 38.8933H110.722V59.8393H86.957V38.8933Z" fill="#231F20"/>
</g>
<mask id="mask3_652_62" style="mask-type:luminance" maskUnits="userSpaceOnUse" x="104" y="35" width="42" height="25">
<path d="M117.781 35.4556C119.915 35.4556 122.227 36.1277 124.721 37.4785C125.088 36.147 126.584 35.4812 129.218 35.4812C129.383 35.4812 129.666 35.4876 130.046 35.5004C129.237 36.7487 128.624 38.4516 128.201 40.6153L127.841 42.4462C127.431 44.4818 127.229 46.8568 127.229 49.5775C127.229 52.7143 127.949 54.2827 129.388 54.2827C130.917 54.2827 133.001 52.9895 135.653 50.4033C138.299 47.8171 140.902 44.5266 143.466 40.5257L145.12 41.6844C142.506 46.4087 139.518 50.3521 136.159 53.5144C132.793 56.6705 129.907 58.2517 127.488 58.2517C124.438 58.2517 122.909 55.6718 122.909 50.5185C122.909 49.4431 122.953 47.9963 123.035 46.1782H123.016C121.204 49.9744 118.975 53.2008 116.322 55.8575C113.67 58.5142 111.365 59.8392 109.394 59.8392C107.897 59.8392 106.698 59.1607 105.794 57.8099C104.898 56.4592 104.449 54.654 104.449 52.407C104.449 47.9259 105.794 43.9761 108.472 40.5704C111.15 37.1648 114.257 35.4556 117.781 35.4556ZM116.606 38.0994C114.472 38.0994 112.621 39.4118 111.068 42.0428C109.514 44.6739 108.731 47.7915 108.731 51.402C108.731 54.2955 109.666 55.7422 111.535 55.7422C113.556 55.7422 117.427 51.2419 123.149 42.2477C123.219 42.1325 123.509 41.7355 124.014 41.0442C121.046 39.0853 118.576 38.0994 116.606 38.0994Z" fill="white"/>
</mask>
<g mask="url(#mask3_652_62)">
<path d="M104.449 35.4556H145.12V59.8392H104.449V35.4556Z" fill="#231F20"/>
</g>
<mask id="mask4_652_62" style="mask-type:luminance" maskUnits="userSpaceOnUse" x="139" y="23" width="31" height="38">
<path d="M145.128 23.7927C146.076 23.7927 146.783 24.2408 147.263 25.1371C147.731 26.0333 149.814 30.8985 153.502 39.7391C157.645 49.668 160.368 54.6292 161.687 54.6292C162.66 54.6292 163.613 52.5231 164.535 48.298C165.464 44.0794 165.925 39.7455 165.925 35.29C165.925 31.7115 165.085 29.3557 163.405 28.2226C164.788 27.2176 166.039 26.7183 167.157 26.7183C168.843 26.7183 169.683 28.101 169.683 30.8857C169.683 33.0942 169.298 36.4743 168.546 41.0322C167.788 45.5837 166.973 49.4183 166.096 52.5231C164.649 57.5803 163.045 60.1089 161.283 60.1089C159.755 60.1089 158.119 58.7391 156.376 56.0119C154.627 53.2849 152.303 48.4581 149.391 41.5444C148.444 39.3102 147.8 37.8122 147.465 37.0504L146.768 35.5127L144.08 49.2519C143.569 51.8574 143.316 53.829 143.316 55.1606C143.316 57.1514 143.872 58.547 144.989 59.3472C143.701 59.8465 142.532 60.1025 141.472 60.1025C139.886 60.1025 139.098 59.36 139.098 57.8876C139.098 56.4152 139.937 52.1198 141.617 44.8028L144.775 31.0969L144.156 29.4197C143.322 27.1408 142.274 25.7708 141.017 25.3163C143.196 24.2985 144.567 23.7927 145.128 23.7927Z" fill="white"/>
</mask>
<g mask="url(#mask4_652_62)">
<path d="M139.098 23.7927H169.683V60.1089H139.098V23.7927Z" fill="#231F20"/>
</g>
<mask id="mask5_652_62" style="mask-type:luminance" maskUnits="userSpaceOnUse" x="173" y="34" width="25" height="26">
<path d="M176.928 34.2595C178.482 34.2595 180.06 36.3272 181.645 40.4562C183.237 44.5917 184.38 49.585 185.075 55.4424C187.544 52.2608 189.584 48.9832 191.195 45.6032C192.805 42.2232 193.721 39.304 193.93 36.8586C196.051 37.7164 197.106 38.6894 197.106 39.7777C197.106 40.7508 196.095 42.9593 194.068 46.397C192.041 49.8346 189.837 53.0866 187.469 56.1529C186.306 57.6382 185.334 58.5984 184.538 59.0337C183.748 59.4626 182.435 59.7443 180.597 59.8915C180.907 58.6304 181.065 57.5421 181.065 56.6267C181.065 53.0866 180.319 49.1817 178.841 44.8989C177.358 40.6163 175.62 37.3899 173.625 35.207C174.851 34.5796 175.955 34.2595 176.928 34.2595Z" fill="white"/>
</mask>
<g mask="url(#mask5_652_62)">
<path d="M173.625 34.2595H197.106V59.8915H173.625V34.2595Z" fill="#231F20"/>
</g>
<mask id="mask6_652_62" style="mask-type:luminance" maskUnits="userSpaceOnUse" x="200" y="38" width="25" height="22">
<path d="M205.067 38.8931C206.115 38.8931 206.633 39.6356 206.633 41.1208C206.633 42.2219 206.425 43.8031 206.021 45.8644L205.193 50.0511C204.783 52.0675 204.58 53.3799 204.58 53.9816C204.58 55.7549 205.319 56.6447 206.809 56.6447C208.578 56.6447 210.928 55.1403 213.864 52.1251C216.801 49.1164 219.655 45.2947 222.408 40.6727L224.164 41.7226C220.969 47.4008 217.741 51.8371 214.477 55.0379C211.212 58.2387 208.281 59.839 205.679 59.839C204.1 59.839 202.824 59.3141 201.859 58.2707C200.892 57.2272 200.406 55.8509 200.406 54.1481C200.406 53.5015 200.545 52.4772 200.836 51.0753L201.296 48.7131C201.991 45.3011 202.333 42.9133 202.333 41.5369C202.333 40.7175 202.092 40.0517 201.612 39.5332C203.45 39.1043 204.599 38.8931 205.067 38.8931Z" fill="white"/>
</mask>
<g mask="url(#mask6_652_62)">
<path d="M200.406 38.8931H224.164V59.839H200.406V38.8931Z" fill="#231F20"/>
</g>
<mask id="mask7_652_62" style="mask-type:luminance" maskUnits="userSpaceOnUse" x="87" y="21" width="17" height="14">
<path d="M103.831 21.9995C103.269 25.482 102.189 28.2923 100.257 31.3522C96.3979 36.3071 89.0973 34.4506 89.0973 34.4506L89.1047 34.3778C89.3644 32.9123 96.3906 27.9869 98.0049 26.5214L98.0904 26.4422C97.4342 26.6727 93.7213 29.0158 90.1238 31.4801L89.6451 31.8092C89.0085 32.2485 88.3799 32.6889 87.7773 33.119C88.1058 23.7151 101.665 22.1916 103.831 21.9995Z" fill="white"/>
</mask>
<g mask="url(#mask7_652_62)">
<path d="M87.7773 21.9995H103.831V34.7913H87.7773V21.9995Z" fill="#BFD63A"/>
</g>
<mask id="mask8_652_62" style="mask-type:luminance" maskUnits="userSpaceOnUse" x="204" y="22" width="17" height="13">
<path d="M220.777 22.0059C220.777 22.0059 219.673 27.3384 218.011 29.9246C214.361 35.7693 206.953 34.553 206.018 34.4954C205.926 34.246 208.459 32.1198 211.007 30.0354L211.444 29.6789C213.259 28.1979 215.005 26.7941 215.731 26.1669C213.958 26.4009 208.429 30.5656 206.06 32.405L205.786 32.6181C205.272 33.0196 204.964 33.2662 204.964 33.2662C204.483 31.9092 205.525 28.8364 207.541 27.1207C210.331 24.1824 219.647 22.0891 220.777 22.0059Z" fill="white"/>
</mask>
<g mask="url(#mask8_652_62)">
<path d="M204.848 22.0059H220.777V34.6382H204.848V22.0059Z" fill="#BFD63A"/>
</g>
<mask id="mask9_652_62" style="mask-type:luminance" maskUnits="userSpaceOnUse" x="42" y="71" width="42" height="7">
<path d="M83.5202 71.6189V77.6812H42.7031V71.6189H83.5202Z" fill="white"/>
</mask>
<g mask="url(#mask9_652_62)">
<path d="M42.7031 71.6189H83.5202V77.6812H42.7031V71.6189Z" fill="#BFD63A"/>
</g>
<mask id="mask10_652_62" style="mask-type:luminance" maskUnits="userSpaceOnUse" x="87" y="70" width="5" height="8">
<path d="M91.2018 70.9072L91.0861 71.9723L89.0861 77.9242H87.6836L90.3053 70.9072H91.2018Z" fill="white"/>
</mask>
<g mask="url(#mask10_652_62)">
<path d="M87.6836 70.9072H91.2018V77.9242H87.6836V70.9072Z" fill="black"/>
</g>
<mask id="mask11_652_62" style="mask-type:luminance" maskUnits="userSpaceOnUse" x="90" y="70" width="5" height="8">
<path d="M91.534 70.9072L94.1703 77.9242H92.763L90.7533 71.9723L90.6328 70.9072H91.534Z" fill="white"/>
</mask>
<g mask="url(#mask11_652_62)">
<path d="M90.6328 70.9072H94.1703V77.9242H90.6328V70.9072Z" fill="black"/>
</g>
<mask id="mask12_652_62" style="mask-type:luminance" maskUnits="userSpaceOnUse" x="88" y="75" width="5" height="2">
<path d="M92.6663 75.3169V76.3627H88.9023V75.3169H92.6663Z" fill="white"/>
</mask>
<g mask="url(#mask12_652_62)">
<path d="M88.9023 75.3169H92.6663V76.3627H88.9023V75.3169Z" fill="black"/>
</g>
<mask id="mask13_652_62" style="mask-type:luminance" maskUnits="userSpaceOnUse" x="95" y="70" width="6" height="8">
<path d="M97.9401 70.9072C98.4734 70.9072 98.9313 70.9875 99.3136 71.1481C99.696 71.3088 99.9899 71.5466 100.196 71.8614C100.401 72.1763 100.504 72.5634 100.504 73.0229C100.504 73.3859 100.44 73.7008 100.311 73.9675C100.183 74.2342 100.001 74.4575 99.7666 74.6374C99.5353 74.8174 99.2622 74.9587 98.9473 75.0615L98.5329 75.2735L96.7157 75.2731L96.7159 77.9242H95.3906V70.9072H97.9401ZM97.9401 71.953H96.7159L96.7157 74.2277L97.9546 74.2278C98.2276 74.2278 98.4541 74.1796 98.634 74.0832C98.814 73.9868 98.949 73.8535 99.0389 73.6832C99.1321 73.5129 99.1786 73.3185 99.1786 73.1C99.1786 72.8655 99.1337 72.663 99.0437 72.4928C98.9537 72.3192 98.8172 72.1859 98.634 72.0928C98.4509 71.9996 98.2196 71.953 97.9401 71.953Z" fill="white"/>
</mask>
<g mask="url(#mask13_652_62)">
<path d="M95.3906 70.9072H100.504V77.9242H95.3906V70.9072Z" fill="black"/>
</g>
<mask id="mask14_652_62" style="mask-type:luminance" maskUnits="userSpaceOnUse" x="97" y="74" width="4" height="4">
<path d="M99.129 74.7771L100.772 77.8567V77.9242H99.3507L97.7266 74.782L99.129 74.7771Z" fill="white"/>
</mask>
<g mask="url(#mask14_652_62)">
<path d="M97.7266 74.7771H100.772V77.9242H97.7266V74.7771Z" fill="black"/>
</g>
<mask id="mask15_652_62" style="mask-type:luminance" maskUnits="userSpaceOnUse" x="103" y="70" width="2" height="8">
<path d="M104.86 70.9072V77.9242H103.539V70.9072H104.86Z" fill="white"/>
</mask>
<g mask="url(#mask15_652_62)">
<path d="M103.539 70.9072H104.86V77.9242H103.539V70.9072Z" fill="black"/>
</g>
<mask id="mask16_652_62" style="mask-type:luminance" maskUnits="userSpaceOnUse" x="101" y="70" width="7" height="2">
<path d="M107.024 70.9075V71.9532H101.371V70.9075H107.024Z" fill="white"/>
</mask>
<g mask="url(#mask16_652_62)">
<path d="M101.371 70.9075H107.024V71.9532H101.371V70.9075Z" fill="black"/>
</g>
<mask id="mask17_652_62" style="mask-type:luminance" maskUnits="userSpaceOnUse" x="108" y="70" width="2" height="8">
<path d="M109.817 70.9075V77.9245H108.492V70.9075H109.817Z" fill="white"/>
</mask>
<g mask="url(#mask17_652_62)">
<path d="M108.492 70.9075H109.817V77.9245H108.492V70.9075Z" fill="black"/>
</g>
<mask id="mask18_652_62" style="mask-type:luminance" maskUnits="userSpaceOnUse" x="111" y="70" width="6" height="9">
<path d="M114.188 70.8113C114.709 70.8113 115.159 70.906 115.538 71.0956C115.92 71.2851 116.216 71.5422 116.424 71.8667C116.633 72.1912 116.738 72.5559 116.738 72.9607H115.417C115.417 72.7422 115.371 72.5494 115.277 72.3824C115.187 72.2153 115.049 72.0835 114.863 71.9871C114.68 71.8908 114.448 71.8426 114.169 71.8426C113.899 71.8426 113.674 71.8828 113.494 71.9631C113.318 72.0434 113.184 72.1526 113.094 72.2908C113.008 72.429 112.964 72.5832 112.964 72.7535C112.964 72.882 112.995 72.9977 113.056 73.1005C113.117 73.2001 113.208 73.2949 113.33 73.3848C113.452 73.4715 113.604 73.5534 113.783 73.6306C113.967 73.7045 114.179 73.7784 114.42 73.8523C114.805 73.968 115.143 74.0965 115.432 74.2379C115.724 74.3792 115.967 74.5399 116.159 74.7198C116.355 74.8997 116.502 75.1022 116.598 75.327C116.698 75.5519 116.747 75.8074 116.747 76.0933C116.747 76.3953 116.688 76.6653 116.569 76.903C116.45 77.1407 116.28 77.3432 116.058 77.5102C115.836 77.6773 115.57 77.8042 115.258 77.891C114.95 77.9777 114.604 78.0211 114.222 78.0211C113.881 78.0211 113.544 77.9761 113.21 77.8861C112.879 77.7929 112.579 77.6548 112.309 77.4716C112.039 77.2853 111.824 77.0508 111.663 76.7681C111.502 76.4821 111.422 76.1479 111.422 75.7656H112.752C112.752 75.9873 112.787 76.1768 112.858 76.3343C112.932 76.4885 113.035 76.6154 113.167 76.715C113.301 76.8114 113.459 76.8821 113.639 76.9271C113.819 76.972 114.013 76.9945 114.222 76.9945C114.492 76.9945 114.714 76.9576 114.887 76.8837C115.064 76.8066 115.195 76.7005 115.282 76.5656C115.372 76.4307 115.417 76.2765 115.417 76.103C115.417 75.968 115.396 75.8475 115.355 75.7415C115.316 75.6323 115.244 75.5343 115.138 75.4475C115.035 75.3575 114.889 75.2708 114.699 75.1873C114.513 75.1005 114.272 75.0105 113.976 74.9174C113.648 74.8146 113.343 74.6989 113.06 74.5704C112.778 74.4418 112.529 74.2925 112.313 74.1222C112.101 73.9519 111.936 73.7559 111.817 73.5342C111.698 73.3093 111.639 73.0491 111.639 72.7535C111.639 72.4643 111.7 72.2008 111.822 71.9631C111.947 71.7253 112.124 71.5213 112.352 71.351C112.58 71.1775 112.848 71.0442 113.157 70.951C113.469 70.8578 113.812 70.8113 114.188 70.8113Z" fill="white"/>
</mask>
<g mask="url(#mask18_652_62)">
<path d="M111.422 70.8113H116.747V78.0211H111.422V70.8113Z" fill="black"/>
</g>
<mask id="mask19_652_62" style="mask-type:luminance" maskUnits="userSpaceOnUse" x="119" y="70" width="3" height="8">
<path d="M121.277 70.9075V77.9245H119.957V70.9075H121.277Z" fill="white"/>
</mask>
<g mask="url(#mask19_652_62)">
<path d="M119.957 70.9075H121.277V77.9245H119.957V70.9075Z" fill="black"/>
</g>
<mask id="mask20_652_62" style="mask-type:luminance" maskUnits="userSpaceOnUse" x="117" y="70" width="7" height="2">
<path d="M123.462 70.9075V71.9532H117.809V70.9075H123.462Z" fill="white"/>
</mask>
<g mask="url(#mask20_652_62)">
<path d="M117.809 70.9075H123.462V71.9532H117.809V70.9075Z" fill="black"/>
</g>
<mask id="mask21_652_62" style="mask-type:luminance" maskUnits="userSpaceOnUse" x="124" y="70" width="6" height="8">
<path d="M127.369 70.9075C127.903 70.9075 128.361 70.9877 128.743 71.1484C129.125 71.309 129.42 71.5468 129.625 71.8617C129.831 72.1765 129.934 72.5637 129.934 73.0231C129.934 73.3862 129.87 73.701 129.741 73.9678C129.612 74.2344 129.43 74.4578 129.196 74.6376C128.965 74.8176 128.692 74.9589 128.377 75.0617L127.962 75.2738L126.145 75.2734V77.9245H124.82V70.9075H127.369ZM127.369 71.9532H126.145V74.2279L127.384 74.228C127.657 74.228 127.883 74.1798 128.063 74.0834C128.244 73.987 128.378 73.8537 128.468 73.6834C128.562 73.5131 128.608 73.3187 128.608 73.1003C128.608 72.8657 128.564 72.6633 128.473 72.493C128.383 72.3195 128.247 72.1861 128.063 72.093C127.881 71.9998 127.649 71.9532 127.369 71.9532Z" fill="white"/>
</mask>
<g mask="url(#mask21_652_62)">
<path d="M124.82 70.9075H129.934V77.9245H124.82V70.9075Z" fill="black"/>
</g>
<mask id="mask22_652_62" style="mask-type:luminance" maskUnits="userSpaceOnUse" x="127" y="74" width="4" height="4">
<path d="M128.566 74.7764L130.21 77.856V77.9235H128.788L127.164 74.7812L128.566 74.7764Z" fill="white"/>
</mask>
<g mask="url(#mask22_652_62)">
<path d="M127.164 74.7764H130.21V77.9235H127.164V74.7764Z" fill="black"/>
</g>
<mask id="mask23_652_62" style="mask-type:luminance" maskUnits="userSpaceOnUse" x="130" y="70" width="7" height="8">
<path d="M132.192 70.9072L133.734 74.1796L135.286 70.9072H136.742L134.409 75.3555V77.9242H133.064V75.3555L130.727 70.9072H132.192Z" fill="white"/>
</mask>
<g mask="url(#mask23_652_62)">
<path d="M130.727 70.9072H136.742V77.9242H130.727V70.9072Z" fill="black"/>
</g>
<mask id="mask24_652_62" style="mask-type:luminance" maskUnits="userSpaceOnUse" x="141" y="70" width="2" height="8">
<path d="M142.341 70.9072V77.9242H141.016V70.9072H142.341Z" fill="white"/>
</mask>
<g mask="url(#mask24_652_62)">
<path d="M141.016 70.9072H142.341V77.9242H141.016V70.9072Z" fill="black"/>
</g>
<mask id="mask25_652_62" style="mask-type:luminance" maskUnits="userSpaceOnUse" x="144" y="70" width="6" height="8">
<path d="M145.595 70.9072L148.588 75.7796V70.9072H149.909V77.9242H148.579L145.595 73.0566V77.9242H144.27V70.9072H145.595Z" fill="white"/>
</mask>
<g mask="url(#mask25_652_62)">
<path d="M144.27 70.9072H149.909V77.9242H144.27V70.9072Z" fill="black"/>
</g>
<mask id="mask26_652_62" style="mask-type:luminance" maskUnits="userSpaceOnUse" x="154" y="70" width="32" height="8">
<path d="M154.918 77.9242V70.9072H156.243H159.554V71.953L156.243 71.9526V73.8033L159.082 73.8036V74.8206L156.243 74.8199V76.8828L159.569 76.8833V77.9242H156.244H155.839H154.918ZM162.839 77.9242L160.371 70.9072H161.836L163.513 76.3473L165.2 70.9072H166.67L164.193 77.9242H163.827H163.215H162.839ZM167.886 77.9242V70.9072H169.212H172.523V71.953L169.212 71.9526V73.8033L172.05 73.8036V74.8206L169.212 74.8199V76.8828L172.537 76.8833V77.9242H169.212H168.807H167.886ZM176.501 70.9072C177.034 70.9072 177.492 70.9875 177.874 71.1481C178.257 71.3088 178.55 71.5466 178.756 71.8614C178.962 72.1763 179.064 72.5634 179.064 73.0229C179.064 73.3859 179 73.7008 178.872 73.9675C178.743 74.2342 178.562 74.4575 178.327 74.6374C178.188 74.7454 178.034 74.8394 177.866 74.9196L177.785 74.954L179.334 77.8568V77.9242H177.913L176.543 75.2731H175.277V77.9242H173.951V70.9072H176.501ZM181.307 70.9072L182.85 74.1796L184.402 70.9072H185.857L183.524 75.3555V77.9242H182.18V75.3555L179.843 70.9072H181.307ZM176.501 71.953H175.277V74.2277L176.515 74.2278C176.789 74.2278 177.015 74.1796 177.195 74.0832C177.374 73.9868 177.509 73.8535 177.6 73.6832C177.692 73.5129 177.739 73.3185 177.739 73.1C177.739 72.8655 177.694 72.663 177.604 72.4928C177.514 72.3192 177.377 72.1859 177.195 72.0928C177.011 71.9996 176.78 71.953 176.501 71.953Z" fill="white"/>
</mask>
<g mask="url(#mask26_652_62)">
<path d="M154.918 70.9072H185.857V77.9242H154.918V70.9072Z" fill="black"/>
</g>
<mask id="mask27_652_62" style="mask-type:luminance" maskUnits="userSpaceOnUse" x="190" y="70" width="6" height="8">
<path d="M192.407 70.9072C192.877 70.9072 193.303 70.9859 193.689 71.1434C194.078 71.3008 194.414 71.5273 194.697 71.8228C194.982 72.1152 195.201 72.4655 195.352 72.8735C195.506 73.2816 195.583 73.7378 195.583 74.2422V74.594C195.583 75.0952 195.506 75.5515 195.352 75.9627C195.201 76.3708 194.982 76.721 194.697 77.0134C194.414 77.3057 194.077 77.5307 193.684 77.6881C193.293 77.8455 192.857 77.9242 192.378 77.9242H190.865L190.875 76.8833H192.378C192.786 76.8833 193.128 76.7933 193.405 76.6133C193.681 76.4302 193.89 76.1683 194.031 75.8278C194.173 75.484 194.244 75.0728 194.244 74.594V74.2326C194.244 73.8631 194.203 73.537 194.123 73.2543C194.043 72.9715 193.924 72.7338 193.767 72.541C193.612 72.3482 193.421 72.202 193.193 72.1024C192.965 72.0028 192.703 71.953 192.407 71.953H190.836V70.9072H192.407Z" fill="white"/>
</mask>
<g mask="url(#mask27_652_62)">
<path d="M190.836 70.9072H195.583V77.9242H190.836V70.9072Z" fill="black"/>
</g>
<mask id="mask28_652_62" style="mask-type:luminance" maskUnits="userSpaceOnUse" x="190" y="70" width="2" height="8">
<path d="M191.611 70.9075V77.9245H190.285V70.9075H191.611Z" fill="white"/>
</mask>
<g mask="url(#mask28_652_62)">
<path d="M190.285 70.9075H191.611V77.9245H190.285V70.9075Z" fill="black"/>
</g>
<mask id="mask29_652_62" style="mask-type:luminance" maskUnits="userSpaceOnUse" x="198" y="76" width="4" height="2">
<path d="M201.859 76.8828V77.9238H198.129V76.8828H201.859Z" fill="white"/>
</mask>
<g mask="url(#mask29_652_62)">
<path d="M198.129 76.8828H201.859V77.9238H198.129V76.8828Z" fill="black"/>
</g>
<mask id="mask30_652_62" style="mask-type:luminance" maskUnits="userSpaceOnUse" x="197" y="70" width="2" height="8">
<path d="M198.544 70.9075V77.9245H197.219V70.9075H198.544Z" fill="white"/>
</mask>
<g mask="url(#mask30_652_62)">
<path d="M197.219 70.9075H198.544V77.9245H197.219V70.9075Z" fill="black"/>
</g>
<mask id="mask31_652_62" style="mask-type:luminance" maskUnits="userSpaceOnUse" x="198" y="73" width="4" height="2">
<path d="M201.372 73.8035V74.8204H198.129V73.8035H201.372Z" fill="white"/>
</mask>
<g mask="url(#mask31_652_62)">
<path d="M198.129 73.8035H201.372V74.8204H198.129V73.8035Z" fill="black"/>
</g>
<mask id="mask32_652_62" style="mask-type:luminance" maskUnits="userSpaceOnUse" x="198" y="70" width="4" height="2">
<path d="M201.845 70.9075V71.9532H198.129V70.9075H201.845Z" fill="white"/>
</mask>
<g mask="url(#mask32_652_62)">
<path d="M198.129 70.9075H201.845V71.9532H198.129V70.9075Z" fill="black"/>
</g>
<mask id="mask33_652_62" style="mask-type:luminance" maskUnits="userSpaceOnUse" x="205" y="70" width="2" height="8">
<path d="M206.391 70.9072V77.9242H205.07V70.9072H206.391Z" fill="white"/>
</mask>
<g mask="url(#mask33_652_62)">
<path d="M205.07 70.9072H206.391V77.9242H205.07V70.9072Z" fill="black"/>
</g>
<mask id="mask34_652_62" style="mask-type:luminance" maskUnits="userSpaceOnUse" x="202" y="70" width="7" height="2">
<path d="M208.555 70.9075V71.9532H202.902V70.9075H208.555Z" fill="white"/>
</mask>
<g mask="url(#mask34_652_62)">
<path d="M202.902 70.9075H208.555V71.9532H202.902V70.9075Z" fill="black"/>
</g>
<mask id="mask35_652_62" style="mask-type:luminance" maskUnits="userSpaceOnUse" x="208" y="70" width="5" height="8">
<path d="M212.359 70.9075L212.243 71.9725L210.243 77.9245H208.84L211.462 70.9075H212.359Z" fill="white"/>
</mask>
<g mask="url(#mask35_652_62)">
<path d="M208.84 70.9075H212.359V77.9245H208.84V70.9075Z" fill="black"/>
</g>
<mask id="mask36_652_62" style="mask-type:luminance" maskUnits="userSpaceOnUse" x="211" y="70" width="5" height="8">
<path d="M212.678 70.9072L215.314 77.9242H213.907L211.897 71.9723L211.777 70.9072H212.678Z" fill="white"/>
</mask>
<g mask="url(#mask36_652_62)">
<path d="M211.777 70.9072H215.314V77.9242H211.777V70.9072Z" fill="black"/>
</g>
<mask id="mask37_652_62" style="mask-type:luminance" maskUnits="userSpaceOnUse" x="210" y="75" width="4" height="2">
<path d="M213.807 75.3169V76.3627H210.043V75.3169H213.807Z" fill="white"/>
</mask>
<g mask="url(#mask37_652_62)">
<path d="M210.043 75.3169H213.807V76.3627H210.043V75.3169Z" fill="black"/>
</g>
<mask id="mask38_652_62" style="mask-type:luminance" maskUnits="userSpaceOnUse" x="216" y="70" width="2" height="8">
<path d="M217.95 70.9072V77.9242H216.625V70.9072H217.95Z" fill="white"/>
</mask>
<g mask="url(#mask38_652_62)">
<path d="M216.625 70.9072H217.95V77.9242H216.625V70.9072Z" fill="black"/>
</g>
<mask id="mask39_652_62" style="mask-type:luminance" maskUnits="userSpaceOnUse" x="220" y="76" width="5" height="2">
<path d="M224.321 76.8828V77.9238H220.793V76.8828H224.321Z" fill="white"/>
</mask>
<g mask="url(#mask39_652_62)">
<path d="M220.793 76.8828H224.321V77.9238H220.793V76.8828Z" fill="black"/>
</g>
<mask id="mask40_652_62" style="mask-type:luminance" maskUnits="userSpaceOnUse" x="219" y="70" width="3" height="8">
<path d="M221.193 70.9072V77.9242H219.867V70.9072H221.193Z" fill="white"/>
</mask>
<g mask="url(#mask40_652_62)">
<path d="M219.867 70.9072H221.193V77.9242H219.867V70.9072Z" fill="black"/>
</g>
</g>
<defs>
<clipPath id="clip0_652_62">
<rect width="190" height="56.7532" fill="white" transform="translate(35 22)"/>
</clipPath>
</defs>
</svg>
