<svg width="48" height="48" viewBox="0 0 48 48" fill="none" xmlns="http://www.w3.org/2000/svg">
<path d="M23.751 40.0005H46.501M23.751 40.0005C23.751 40.6408 23.6248 41.2747 23.3798 41.8663C23.1348 42.4578 22.7757 42.9953 22.323 43.448C21.8702 43.9007 21.3327 44.2599 20.7412 44.5049C20.1497 44.7499 19.5157 44.876 18.8755 44.876C18.2352 44.876 17.6012 44.7499 17.0097 44.5049C16.4182 44.2599 15.8807 43.9007 15.428 43.448C14.9752 42.9953 14.6161 42.4578 14.3711 41.8663C14.1261 41.2747 14 40.6408 14 40.0005C14 39.3602 14.1261 38.7263 14.3711 38.1347C14.6161 37.5432 14.9752 37.0057 15.428 36.553C15.8807 36.1003 16.4182 35.7411 17.0097 35.4961C17.6012 35.2511 18.2352 35.125 18.8755 35.125C19.5157 35.125 20.1497 35.2511 20.7412 35.4961C21.3327 35.7411 21.8702 36.1003 22.323 36.553C22.7757 37.0057 23.1348 37.5432 23.3798 38.1347C23.6248 38.7263 23.751 39.3602 23.751 40.0005ZM46.501 40.0005L40.0015 33.501M46.501 40.0005L40.0015 46.5M10.752 5.8755C10.752 7.16856 11.2656 8.40867 12.18 9.323C13.0943 10.2373 14.3344 10.751 15.6275 10.751C16.9205 10.751 18.1606 10.2373 19.075 9.323C19.9893 8.40867 20.503 7.16856 20.503 5.8755C20.503 4.58244 19.9893 3.34233 19.075 2.428C18.1606 1.51367 16.9205 1 15.6275 1C14.3344 1 13.0943 1.51367 12.18 2.428C11.2656 3.34233 10.752 4.58244 10.752 5.8755ZM23.751 22.126C23.751 23.4191 24.2646 24.6592 25.179 25.5735C26.0933 26.4878 27.3334 27.0015 28.6265 27.0015C29.9195 27.0015 31.1596 26.4878 32.074 25.5735C32.9883 24.6592 33.502 23.4191 33.502 22.126C33.502 20.8329 32.9883 19.5928 32.074 18.6785C31.1596 17.7642 29.9195 17.2505 28.6265 17.2505C27.3334 17.2505 26.0933 17.7642 25.179 18.6785C24.2646 19.5928 23.751 20.8329 23.751 22.126Z" stroke="black" stroke-width="2" stroke-linecap="round" stroke-linejoin="round"/>
<path d="M23.75 22.126H9.939C7.59932 22.1723 5.37109 23.1342 3.73282 24.8053C2.09454 26.4763 1.17687 28.7231 1.17687 31.0632C1.17687 33.4034 2.09454 35.6502 3.73282 37.3212C5.37109 38.9922 7.59932 39.9542 9.939 40.0005H13.999M33.501 22.126H38.3765C40.5315 22.126 42.5981 21.2699 44.1219 19.7462C45.6457 18.2224 46.5018 16.1557 46.5018 14.0007C46.5018 11.8458 45.6457 9.7791 44.1219 8.25532C42.5981 6.73154 40.5315 5.87549 38.3765 5.87549H20.495M10.751 5.87549H1" stroke="black" stroke-width="2" stroke-linecap="round" stroke-linejoin="round"/>
</svg>
