<svg width="57" height="52" viewBox="0 0 57 52" fill="none" xmlns="http://www.w3.org/2000/svg">
<path d="M37.366 18.7765C37.9205 17.1099 38.049 15.2143 37.6159 13.0809C35.4191 2.2595 23.4111 0.57119 17.6817 1.07972C13.3083 1.85946 4.13444 5.14793 2.42579 12.0639C0.717146 18.9798 4.56161 22.8107 6.69742 23.8617L2.42579 32.5067L12.6981 27.218C14.7113 28.0808 17.5175 28.4597 20.5294 28.3166M37.366 18.7765C41.7887 18.6748 51.3868 20.4444 54.3973 28.3368C57.4078 36.2291 53.2107 40.8465 50.7359 42.1687L54.7024 50L45.0404 44.9147C40.2942 47.0844 28.7472 48.5965 20.5294 37.2868C19.6141 35.4088 18.3326 30.9855 20.5294 28.3166M37.366 18.7765C35.3085 24.9604 27.3861 27.991 20.5294 28.3166M10.5623 12.5725C9.91818 12.6403 8.62991 13.203 8.62991 14.9117C8.62991 16.6203 9.91818 16.9797 10.5623 16.9458C11.3421 16.9797 12.9219 16.6203 13.0032 14.9117C13.0846 13.203 11.4099 12.6403 10.5623 12.5725ZM19.5124 12.5725C18.8682 12.6403 17.58 13.203 17.58 14.9117C17.58 16.6203 18.8682 16.9797 19.5124 16.9458C20.2921 16.9797 21.8719 16.6203 21.9533 14.9117C22.0347 13.203 20.3599 12.6403 19.5124 12.5725ZM28.4624 12.5725C27.8183 12.6403 26.53 13.203 26.53 14.9117C26.53 16.6203 27.8183 16.9797 28.4624 16.9458C29.2422 16.9797 30.822 16.6203 30.9034 14.9117C30.9847 13.203 29.31 12.6403 28.4624 12.5725ZM28.3607 30.1675C27.6149 30.1675 26.1232 30.6963 26.1232 32.8118C26.1232 34.9273 27.6149 35.3205 28.3607 35.2527C29.1744 35.2188 30.8017 34.6832 30.8017 32.8118C30.8017 30.9404 29.1744 30.2692 28.3607 30.1675ZM37.5142 30.1675C36.7684 30.1675 35.2767 30.6963 35.2767 32.8118C35.2767 34.9273 36.7684 35.3205 37.5142 35.2527C38.3279 35.2188 39.9551 34.6832 39.9551 32.8118C39.9551 30.9404 38.3279 30.2692 37.5142 30.1675ZM46.6677 30.1675C45.9219 30.1675 44.4302 30.6963 44.4302 32.8118C44.4302 34.9273 45.9219 35.3205 46.6677 35.2527C47.4813 35.2188 49.1086 34.6832 49.1086 32.8118C49.1086 30.9404 47.4813 30.2692 46.6677 30.1675Z" stroke="black" stroke-width="1.52"/>
</svg>
