<svg width="101" height="100" viewBox="0 0 101 100" fill="none" xmlns="http://www.w3.org/2000/svg">
<path d="M10.9492 82.8023C12.0481 74.1334 19.7505 73.6958 23.4643 74.5607V28.6213M10.9492 82.8023C10.9492 85.6513 13.4522 91.0439 23.4643 89.8229H99.4703V28.6213H91.8392M10.9492 82.8023V29.2319C11.2545 25.9759 14.1848 19.3417 23.4643 18.8535V28.6213M91.8392 28.6213V17.1746C91.7374 14.8344 90.0382 10.1235 84.0554 10.0014C82.1731 9.95048 78.3779 11.3139 78.2558 17.1746C78.2139 19.1818 78.1948 23.4302 78.1898 28.6213M91.8392 28.6213V59.7564M78.2558 59.7564H91.8392M78.2558 59.7564L82.1731 71.5084M78.2558 59.7564C78.2223 52.0292 78.1801 38.5878 78.1898 28.6213M91.8392 59.7564L87.4555 71.5084M82.1731 71.5084L84.6659 78.9869L87.4555 71.5084M82.1731 71.5084H87.4555M78.1898 28.6213H23.4643M82.1731 21.1429V56.2461M86.8026 21.1429V56.2461M45.4419 58.9933L47.8839 62.1984L53.8362 55.9409M49.4101 50.7517C52.1064 50.8026 57.5296 52.6748 57.6517 59.7564C57.7738 66.8381 52.2082 68.7103 49.4101 68.7612C46.5611 68.6594 40.8022 66.716 40.558 59.7564C40.3138 52.7969 46.3577 50.8535 49.4101 50.7517ZM46.0524 45.7152V41.1365H52.4626V45.7152C53.3274 45.8169 55.2708 46.4172 56.1255 48.0045L59.7884 44.0363L64.3671 48.9202L61.162 52.4306C61.4673 52.8884 62.0778 54.1705 62.0778 55.6356H67.2669V62.6563L62.9935 62.1984C62.6883 63.5211 61.8946 66.3192 61.162 66.9297L64.0619 70.1348L60.0937 74.4082L56.5834 71.0505C55.7185 71.8136 53.6835 73.2483 52.4626 72.882V77.6133H46.3577V72.5767C44.9332 72.3732 42.0232 71.722 41.779 70.7453L39.0318 74.2556L33.9952 69.5243L37.2003 66.3192L35.5214 62.6563H31.248V55.9409L35.2162 55.7883L37.0477 51.9727L34.3005 48.615L38.7265 44.0363L41.779 47.2414L46.0524 45.7152Z" stroke="black"/>
</svg>
