<svg width="100" height="100" viewBox="0 0 100 100" fill="none" xmlns="http://www.w3.org/2000/svg">
<path d="M44.9321 50.5422C44.3129 49.6783 43.8913 48.503 43.8462 46.9231C43.7014 41.8552 47.8884 39.9849 50 39.6833C51.629 39.6833 55.9729 41.4932 55.9729 46.9231C55.9729 48.4966 55.4503 49.6743 54.6892 50.5422M44.9321 50.5422C46.2992 52.4497 48.6298 52.8395 50 52.7149C51.2698 52.638 53.3493 52.0702 54.6892 50.5422M44.9321 50.5422C42.8808 50.9045 38.7783 52.4253 38.7783 55.6109C38.7783 58.7964 38.7783 64.2986 38.7783 66.6516V67.4986M54.6892 50.5422C56.7461 51.0251 60.8597 52.7149 60.8597 55.6109C60.8597 58.5068 60.8597 64.178 60.8597 66.6516V67.3382M38.7783 67.4986C33.9107 64.4529 30.0905 58.8664 30.0905 48.914C30.0905 35.1584 43.3635 30.2715 50 29.5475C56.1539 29.5475 68.8235 34.7964 69.5475 48.914C69.9792 57.3322 65.9704 63.6911 60.8597 67.3382M38.7783 67.4986C42.3204 69.7149 46.4171 70.5858 50 70.8145C53.4343 71.0337 57.3996 69.8074 60.8597 67.3382M43.8462 17.7828L50 24.1176L55.9729 17.7828M45.2941 10L50 14.1629L54.6892 10M39.6833 16.3348C33.3484 18.3258 19.9186 25.8552 16.8778 40.0452M17.4208 43.4842L24.1176 50L17.4208 56.6968M10 45.1131L14.7059 50L10 53.9819M16.8778 59.5928C18.1448 65.5656 24.4796 78.5973 39.6833 82.9412M43.4842 82.2172L50 75.7014L55.9729 82.2172M45.2941 90L50 84.9321L54.3439 90M59.9548 83.4842C65.7466 81.9759 78.4525 75.086 82.9412 59.5928M82.3982 43.6652L76.2443 49.819L82.3982 55.6109M90 45.2941L85.1131 49.819L89.638 54.5249M82.9412 39.6833C81.6139 33.9517 75.1222 21.3303 59.7738 16.6968" stroke="black"/>
</svg>
